<?xml version="1.0" ?><!DOCTYPE svg  PUBLIC '-//W3C//DTD SVG 1.1//EN'  'http://www.w3.org/Graphics/SVG/1.1/DTD/svg11.dtd'><svg height="2071.000" viewBox="-936.000 -1035.000 1872.000 2071.000" width="1872.000" xmlns="http://www.w3.org/2000/svg"><line fill="none" stroke="none" stroke-linecap="round" stroke-width="2.0" x1="0.0" x2="0.0" y1="0.0" y2="0.0"/><line fill="none" stroke="none" stroke-linecap="round" stroke-width="2.0" x1="0.0" x2="0.0" y1="0.0" y2="0.0"/><line fill="none" stroke="none" stroke-linecap="round" stroke-width="2.0" x1="0.0" x2="0.0" y1="0.0" y2="0.0"/><line fill="none" stroke="none" stroke-linecap="round" stroke-width="2.0" x1="0.0" x2="0.0" y1="0.0" y2="0.0"/><line fill="none" stroke="none" stroke-linecap="round" stroke-width="2.0" x1="0.0" x2="0.0" y1="0.0" y2="0.0"/><line fill="none" stroke="none" stroke-linecap="round" stroke-width="2.0" x1="0.0" x2="0.0" y1="0.0" y2="0.0"/><polygon fill="none" fill-rule="evenodd" points="0.0,0.0 0.0,0.0 0.0,0.0" stroke-linejoin="round"/><polygon fill="none" fill-rule="evenodd" points="0.0,0.0 0.0,0.0 0.0,0.0" stroke-linejoin="round"/><polygon fill="none" fill-rule="evenodd" points="0.0,0.0 0.0,0.0 0.0,0.0" stroke-linejoin="round"/><polygon fill="none" fill-rule="evenodd" points="0.0,0.0 0.0,0.0 0.0,0.0" stroke-linejoin="round"/><polygon fill="none" fill-rule="evenodd" points="0.0,0.0 0.0,0.0 0.0,0.0" stroke-linejoin="round"/><polygon fill="none" fill-rule="evenodd" points="0.0,0.0 0.0,0.0 0.0,0.0" stroke-linejoin="round"/><line fill="none" stroke="none" stroke-linecap="round" stroke-width="2.0" x1="0.0" x2="0.0" y1="0.0" y2="0.0"/><line fill="none" stroke="none" stroke-linecap="round" stroke-width="2.0" x1="0.0" x2="0.0" y1="0.0" y2="0.0"/><line fill="none" stroke="none" stroke-linecap="round" stroke-width="2.0" x1="0.0" x2="0.0" y1="0.0" y2="0.0"/><line fill="none" stroke="none" stroke-linecap="round" stroke-width="2.0" x1="0.0" x2="0.0" y1="0.0" y2="0.0"/><line fill="none" stroke="none" stroke-linecap="round" stroke-width="2.0" x1="0.0" x2="0.0" y1="0.0" y2="0.0"/><polygon fill="#fbec15" fill-rule="evenodd" points="171.0,112.0 171.0,272.0 7.0,272.0 6.999999999999971,112.0 170.99999999999997,111.99999999999996" stroke-linejoin="round"/><polyline fill="none" points="171.0,112.0 171.0,272.0 7.0,272.0 6.999999999999971,112.0 170.99999999999997,111.99999999999996" stroke="#fbec15" stroke-linecap="round" stroke-linejoin="round"/><polygon fill="#eb1c24" fill-rule="evenodd" points="211.0,-52.0 211.0,-38.0 61.0,-37.99999999999994 60.99999999999999,-51.99999999999994 211.0,-52.000000000000014" stroke-linejoin="round"/><polyline fill="none" points="211.0,-52.0 211.0,-38.0 61.0,-37.99999999999994 60.99999999999999,-51.99999999999994 211.0,-52.000000000000014" stroke="#eb1c24" stroke-linecap="round" stroke-linejoin="round"/><polygon fill="#fff" fill-rule="evenodd" points="-75.0,-231.0 -74.99999999999994,-125.0 -169.99999999999994,-124.99999999999994 -170.00000000000003,-230.99999999999994 -75.00000000000003,-231.0" stroke-linejoin="round"/><polyline fill="none" points="-75.0,-231.0 -74.99999999999994,-125.0 -169.99999999999994,-124.99999999999994 -170.00000000000003,-230.99999999999994 -75.00000000000003,-231.0" stroke="#fff" stroke-linecap="round" stroke-linejoin="round"/><polygon fill="#939498" fill-rule="evenodd" points="69.0,72.0 69.00000000000004,134.0 48.00000000000004,134.00000000000003 47.999999999999986,72.00000000000003 68.99999999999999,72.00000000000001" stroke-linejoin="round"/><polyline fill="none" points="69.0,72.0 69.00000000000004,134.0 48.00000000000004,134.00000000000003 47.999999999999986,72.00000000000003 68.99999999999999,72.00000000000001" stroke="#939498" stroke-linecap="round" stroke-linejoin="round"/><polygon fill="#f8e817" fill-rule="evenodd" points="60.0,187.0 60.000000000000036,222.0 -36.999999999999964,222.0000000000001 -37.00000000000001,187.0000000000001 59.99999999999999,187.0" stroke-linejoin="round"/><polyline fill="none" points="60.0,187.0 60.000000000000036,222.0 -36.999999999999964,222.0000000000001 -37.00000000000001,187.0000000000001 59.99999999999999,187.0" stroke="#f8e817" stroke-linecap="round" stroke-linejoin="round"/><polygon fill="#fffeff" fill-rule="evenodd" points="-150.0,-49.0 -149.9999999999999,49.0 -185.9999999999999,49.00000000000005 -186.00000000000003,-48.99999999999995 -150.00000000000003,-49.0" stroke-linejoin="round"/><polyline fill="none" points="-150.0,-49.0 -149.9999999999999,49.0 -185.9999999999999,49.00000000000005 -186.00000000000003,-48.99999999999995 -150.00000000000003,-49.0" stroke="#fffeff" stroke-linecap="round" stroke-linejoin="round"/><polygon fill="#fffeff" fill-rule="evenodd" points="-13.0,138.0 -12.999999999999938,179.0 -157.99999999999994,179.00000000000023 -158.0,138.00000000000023 -13.0,137.99999999999997" stroke-linejoin="round"/><polyline fill="none" points="-13.0,138.0 -12.999999999999938,179.0 -157.99999999999994,179.00000000000023 -158.0,138.00000000000023 -13.0,137.99999999999997" stroke="#fffeff" stroke-linecap="round" stroke-linejoin="round"/><polygon fill="#231f20" fill-rule="evenodd" points="11.0,-219.0 11.00000000000014,-140.0 -104.99999999999986,-139.9999999999998 -105.00000000000001,-218.9999999999998 10.999999999999986,-219.00000000000003" stroke-linejoin="round"/><polyline fill="none" points="11.0,-219.0 11.00000000000014,-140.0 -104.99999999999986,-139.9999999999998 -105.00000000000001,-218.9999999999998 10.999999999999986,-219.00000000000003" stroke="#231f20" stroke-linecap="round" stroke-linejoin="round"/><polygon fill="#0192cb" fill-rule="evenodd" points="-76.0,-212.0 -75.9999999999996,-17.0 -131.9999999999996,-16.999999999999883 -132.00000000000003,-211.9999999999999 -76.00000000000003,-212.0" stroke-linejoin="round"/><polyline fill="none" points="-76.0,-212.0 -75.9999999999996,-17.0 -131.9999999999996,-16.999999999999883 -132.00000000000003,-211.9999999999999 -76.00000000000003,-212.0" stroke="#0192cb" stroke-linecap="round" stroke-linejoin="round"/><polygon fill="#fff" fill-rule="evenodd" points="199.0,-204.0 199.00000000000006,-175.0 140.00000000000006,-174.99999999999986 140.0,-203.99999999999986 199.0,-204.0" stroke-linejoin="round"/><polyline fill="none" points="199.0,-204.0 199.00000000000006,-175.0 140.00000000000006,-174.99999999999986 140.0,-203.99999999999986 199.0,-204.0" stroke="#fff" stroke-linecap="round" stroke-linejoin="round"/><polygon fill="#fff" fill-rule="evenodd" points="-137.0,153.0 -136.9999999999997,281.0 -150.9999999999997,281.00000000000006 -151.00000000000003,153.00000000000006 -137.00000000000003,153.00000000000003" stroke-linejoin="round"/><polyline fill="none" points="-137.0,153.0 -136.9999999999997,281.0 -150.9999999999997,281.00000000000006 -151.00000000000003,153.00000000000006 -137.00000000000003,153.00000000000003" stroke="#fff" stroke-linecap="round" stroke-linejoin="round"/><polygon fill="#0192cb" fill-rule="evenodd" points="49.0,322.0 49.00000000000038,459.0 -7.999999999999623,459.00000000000017 -8.000000000000018,322.00000000000017 48.999999999999986,322.0" stroke-linejoin="round"/><polyline fill="none" points="49.0,322.0 49.00000000000038,459.0 -7.999999999999623,459.00000000000017 -8.000000000000018,322.00000000000017 48.999999999999986,322.0" stroke="#0192cb" stroke-linecap="round" stroke-linejoin="round"/><polygon fill="#231f20" fill-rule="evenodd" points="197.0,-114.0 197.00000000000017,-54.0 112.00000000000017,-53.99999999999974 111.99999999999999,-113.99999999999974 197.0,-114.00000000000001" stroke-linejoin="round"/><polyline fill="none" points="197.0,-114.0 197.00000000000017,-54.0 112.00000000000017,-53.99999999999974 111.99999999999999,-113.99999999999974 197.0,-114.00000000000001" stroke="#231f20" stroke-linecap="round" stroke-linejoin="round"/><polygon fill="#ef5b2d" fill-rule="evenodd" points="-23.0,119.0 -22.99999999999979,184.0 -117.99999999999979,184.0000000000003 -118.0,119.00000000000031 -23.0,118.99999999999999" stroke-linejoin="round"/><polyline fill="none" points="-23.0,119.0 -22.99999999999979,184.0 -117.99999999999979,184.0000000000003 -118.0,119.00000000000031 -23.0,118.99999999999999" stroke="#ef5b2d" stroke-linecap="round" stroke-linejoin="round"/><polygon fill="#0192c9" fill-rule="evenodd" points="-123.0,-117.0 -122.99999999999955,15.0 -179.99999999999955,15.000000000000203 -180.00000000000003,-116.9999999999998 -123.00000000000003,-117.00000000000001" stroke-linejoin="round"/><polyline fill="none" points="-123.0,-117.0 -122.99999999999955,15.0 -179.99999999999955,15.000000000000203 -180.00000000000003,-116.9999999999998 -123.00000000000003,-117.00000000000001" stroke="#0192c9" stroke-linecap="round" stroke-linejoin="round"/><polygon fill="#fbec15" fill-rule="evenodd" points="-108.0,-140.0 -107.9999999999999,-113.0 -228.9999999999999,-112.99999999999955 -229.0,-139.99999999999955 -108.0,-140.00000000000003" stroke-linejoin="round"/><polyline fill="none" points="-108.0,-140.0 -107.9999999999999,-113.0 -228.9999999999999,-112.99999999999955 -229.0,-139.99999999999955 -108.0,-140.00000000000003" stroke="#fbec15" stroke-linecap="round" stroke-linejoin="round"/><polygon fill="#f8e817" fill-rule="evenodd" points="-186.0,-84.0 -185.9999999999997,-6.0 -204.9999999999997,-5.999999999999924 -205.0,-83.99999999999993 -186.0,-84.00000000000001" stroke-linejoin="round"/><polyline fill="none" points="-186.0,-84.0 -185.9999999999997,-6.0 -204.9999999999997,-5.999999999999924 -205.0,-83.99999999999993 -186.0,-84.00000000000001" stroke="#f8e817" stroke-linecap="round" stroke-linejoin="round"/><polygon fill="#fffeff" fill-rule="evenodd" points="-248.0,40.0 -247.9999999999996,135.0 -368.9999999999996,135.0000000000005 -369.0,40.00000000000051 -248.0,39.99999999999998" stroke-linejoin="round"/><polyline fill="none" points="-248.0,40.0 -247.9999999999996,135.0 -368.9999999999996,135.0000000000005 -369.0,40.00000000000051 -248.0,39.99999999999998" stroke="#fffeff" stroke-linecap="round" stroke-linejoin="round"/><polygon fill="#0192c9" fill-rule="evenodd" points="46.0,32.0 46.000000000000426,127.0 28.000000000000426,127.00000000000009 27.99999999999999,32.000000000000085 45.999999999999986,32.0" stroke-linejoin="round"/><polyline fill="none" points="46.0,32.0 46.000000000000426,127.0 28.000000000000426,127.00000000000009 27.99999999999999,32.000000000000085 45.999999999999986,32.0" stroke="#0192c9" stroke-linecap="round" stroke-linejoin="round"/><polygon fill="#0192c9" fill-rule="evenodd" points="-107.0,-161.0 -106.99999999999918,15.0 -281.9999999999992,15.000000000000837 -282.00000000000006,-160.99999999999918 -107.00000000000006,-161.00000000000003" stroke-linejoin="round"/><polyline fill="none" points="-107.0,-161.0 -106.99999999999918,15.0 -281.9999999999992,15.000000000000837 -282.00000000000006,-160.99999999999918 -107.00000000000006,-161.00000000000003" stroke="#0192c9" stroke-linecap="round" stroke-linejoin="round"/><polygon fill="#eb1c24" fill-rule="evenodd" points="38.0,-329.0 38.000000000000156,-298.0 -169.99999999999983,-297.999999999999 -170.0,-328.999999999999 38.0,-329.00000000000006" stroke-linejoin="round"/><polyline fill="none" points="38.0,-329.0 38.000000000000156,-298.0 -169.99999999999983,-297.999999999999 -170.0,-328.999999999999 38.0,-329.00000000000006" stroke="#eb1c24" stroke-linecap="round" stroke-linejoin="round"/><polygon fill="#eb1c24" fill-rule="evenodd" points="-223.0,66.0 -222.99999999999918,226.0 -252.99999999999918,226.00000000000017 -253.00000000000003,66.00000000000017 -223.00000000000003,66.00000000000001" stroke-linejoin="round"/><polyline fill="none" points="-223.0,66.0 -222.99999999999918,226.0 -252.99999999999918,226.00000000000017 -253.00000000000003,66.00000000000017 -223.00000000000003,66.00000000000001" stroke="#eb1c24" stroke-linecap="round" stroke-linejoin="round"/><polygon fill="#fffeff" fill-rule="evenodd" points="-152.0,278.0 -151.99999999999946,377.0 -283.99999999999943,377.00000000000074 -284.0,278.00000000000074 -152.0,278.0" stroke-linejoin="round"/><polyline fill="none" points="-152.0,278.0 -151.99999999999946,377.0 -283.99999999999943,377.00000000000074 -284.0,278.00000000000074 -152.0,278.0" stroke="#fffeff" stroke-linecap="round" stroke-linejoin="round"/><polygon fill="#f8e817" fill-rule="evenodd" points="152.0,-162.0 152.00000000000077,-25.0 112.00000000000077,-24.99999999999977 111.99999999999997,-161.99999999999977 151.99999999999997,-162.0" stroke-linejoin="round"/><polyline fill="none" points="152.0,-162.0 152.00000000000077,-25.0 112.00000000000077,-24.99999999999977 111.99999999999997,-161.99999999999977 151.99999999999997,-162.0" stroke="#f8e817" stroke-linecap="round" stroke-linejoin="round"/><polygon fill="#f8e817" fill-rule="evenodd" points="-188.0,246.0 -187.99999999999878,454.0 -333.99999999999875,454.00000000000085 -334.0,246.00000000000085 -188.0,245.99999999999997" stroke-linejoin="round"/><polyline fill="none" points="-188.0,246.0 -187.99999999999878,454.0 -333.99999999999875,454.00000000000085 -334.0,246.00000000000085 -188.0,245.99999999999997" stroke="#f8e817" stroke-linecap="round" stroke-linejoin="round"/><polygon fill="#fffeff" fill-rule="evenodd" points="-45.0,189.0 -44.99999999999864,408.0 -246.99999999999864,408.00000000000125 -247.00000000000003,189.00000000000125 -45.00000000000003,188.99999999999997" stroke-linejoin="round"/><polyline fill="none" points="-45.0,189.0 -44.99999999999864,408.0 -246.99999999999864,408.00000000000125 -247.00000000000003,189.00000000000125 -45.00000000000003,188.99999999999997" stroke="#fffeff" stroke-linecap="round" stroke-linejoin="round"/><polygon fill="#fbec15" fill-rule="evenodd" points="234.0,-145.0 234.00000000000068,-41.0 176.00000000000068,-40.99999999999962 176.0,-144.99999999999963 234.0,-145.0" stroke-linejoin="round"/><polyline fill="none" points="234.0,-145.0 234.00000000000068,-41.0 176.00000000000068,-40.99999999999962 176.0,-144.99999999999963 234.0,-145.0" stroke="#fbec15" stroke-linecap="round" stroke-linejoin="round"/><polygon fill="#231f20" fill-rule="evenodd" points="-147.0,331.0 -146.9999999999992,449.0 -263.9999999999992,449.0000000000008 -264.0,331.0000000000008 -147.0,331.0" stroke-linejoin="round"/><polyline fill="none" points="-147.0,331.0 -146.9999999999992,449.0 -263.9999999999992,449.0000000000008 -264.0,331.0000000000008 -147.0,331.0" stroke="#231f20" stroke-linecap="round" stroke-linejoin="round"/><polygon fill="#f8e817" fill-rule="evenodd" points="-89.0,316.0 -88.99999999999898,463.0 -213.99999999999898,463.00000000000085 -214.0,316.00000000000085 -89.0,315.99999999999994" stroke-linejoin="round"/><polyline fill="none" points="-89.0,316.0 -88.99999999999898,463.0 -213.99999999999898,463.00000000000085 -214.0,316.00000000000085 -89.0,315.99999999999994" stroke="#f8e817" stroke-linecap="round" stroke-linejoin="round"/><polygon fill="#eb1c24" fill-rule="evenodd" points="-69.0,50.0 -68.99999999999962,103.0 -83.99999999999962,103.00000000000011 -84.0,50.000000000000114 -69.0,50.0" stroke-linejoin="round"/><polyline fill="none" points="-69.0,50.0 -68.99999999999962,103.0 -83.99999999999962,103.00000000000011 -84.0,50.000000000000114 -69.0,50.0" stroke="#eb1c24" stroke-linecap="round" stroke-linejoin="round"/><polygon fill="#231f20" fill-rule="evenodd" points="25.0,76.0 25.000000000000547,150.0 5.000000000000547,150.00000000000014 4.999999999999989,76.00000000000014 24.99999999999999,75.99999999999999" stroke-linejoin="round"/><polyline fill="none" points="25.0,76.0 25.000000000000547,150.0 5.000000000000547,150.00000000000014 4.999999999999989,76.00000000000014 24.99999999999999,75.99999999999999" stroke="#231f20" stroke-linecap="round" stroke-linejoin="round"/><polygon fill="#eb1c24" fill-rule="evenodd" points="-91.0,330.0 -90.99999999999919,435.0 -186.9999999999992,435.00000000000074 -187.00000000000003,330.00000000000074 -91.00000000000003,330.0" stroke-linejoin="round"/><polyline fill="none" points="-91.0,330.0 -90.99999999999919,435.0 -186.9999999999992,435.00000000000074 -187.00000000000003,330.00000000000074 -91.00000000000003,330.0" stroke="#eb1c24" stroke-linecap="round" stroke-linejoin="round"/><polygon fill="#0192c9" fill-rule="evenodd" points="72.0,-19.0 72.00000000000128,143.0 -65.99999999999872,143.0000000000011 -66.00000000000001,-18.99999999999889 71.99999999999999,-19.000000000000007" stroke-linejoin="round"/><polyline fill="none" points="72.0,-19.0 72.00000000000128,143.0 -65.99999999999872,143.0000000000011 -66.00000000000001,-18.99999999999889 71.99999999999999,-19.000000000000007" stroke="#0192c9" stroke-linecap="round" stroke-linejoin="round"/><polygon fill="#939498" fill-rule="evenodd" points="100.0,291.0 100.0000000000016,488.0 -51.999999999998394,488.00000000000125 -52.00000000000002,291.00000000000125 99.99999999999997,291.0" stroke-linejoin="round"/><polyline fill="none" points="100.0,291.0 100.0000000000016,488.0 -51.999999999998394,488.00000000000125 -52.00000000000002,291.00000000000125 99.99999999999997,291.0" stroke="#939498" stroke-linecap="round" stroke-linejoin="round"/><polygon fill="#0192cb" fill-rule="evenodd" points="-219.0,-106.0 -218.99999999999974,-74.0 -377.9999999999998,-73.99999999999865 -378.00000000000006,-105.99999999999865 -219.00000000000006,-106.00000000000001" stroke-linejoin="round"/><polyline fill="none" points="-219.0,-106.0 -218.99999999999974,-74.0 -377.9999999999998,-73.99999999999865 -378.00000000000006,-105.99999999999865 -219.00000000000006,-106.00000000000001" stroke="#0192cb" stroke-linecap="round" stroke-linejoin="round"/><polygon fill="#fffeff" fill-rule="evenodd" points="-25.0,159.0 -24.999999999999385,230.0 -216.99999999999937,230.00000000000168 -217.0,159.00000000000168 -25.0,158.99999999999997" stroke-linejoin="round"/><polyline fill="none" points="-25.0,159.0 -24.999999999999385,230.0 -216.99999999999937,230.00000000000168 -217.0,159.00000000000168 -25.0,158.99999999999997" stroke="#fffeff" stroke-linecap="round" stroke-linejoin="round"/><polygon fill="#f8e817" fill-rule="evenodd" points="100.0,-243.0 100.00000000000037,-201.0 -84.99999999999963,-200.99999999999835 -85.00000000000001,-242.99999999999835 99.99999999999999,-243.00000000000003" stroke-linejoin="round"/><polyline fill="none" points="100.0,-243.0 100.00000000000037,-201.0 -84.99999999999963,-200.99999999999835 -85.00000000000001,-242.99999999999835 99.99999999999999,-243.00000000000003" stroke="#f8e817" stroke-linecap="round" stroke-linejoin="round"/><polygon fill="#ef5b2d" fill-rule="evenodd" points="37.0,-231.0 37.000000000002046,-7.0 -165.99999999999795,-6.999999999998136 -166.00000000000003,-230.99999999999812 36.99999999999997,-231.0" stroke-linejoin="round"/><polyline fill="none" points="37.0,-231.0 37.000000000002046,-7.0 -165.99999999999795,-6.999999999998136 -166.00000000000003,-230.99999999999812 36.99999999999997,-231.0" stroke="#ef5b2d" stroke-linecap="round" stroke-linejoin="round"/><polygon fill="#fbec15" fill-rule="evenodd" points="-141.0,-333.0 -140.99999999999915,-242.0 -308.99999999999915,-241.9999999999984 -309.0,-332.9999999999984 -141.0,-333.0" stroke-linejoin="round"/><polyline fill="none" points="-141.0,-333.0 -140.99999999999915,-242.0 -308.99999999999915,-241.9999999999984 -309.0,-332.9999999999984 -141.0,-333.0" stroke="#fbec15" stroke-linecap="round" stroke-linejoin="round"/><polygon fill="#fffeff" fill-rule="evenodd" points="69.0,-81.0 69.00000000000026,-54.0 -115.99999999999974,-53.99999999999821 -116.0,-80.99999999999821 69.0,-81.00000000000003" stroke-linejoin="round"/><polyline fill="none" points="69.0,-81.0 69.00000000000026,-54.0 -115.99999999999974,-53.99999999999821 -116.0,-80.99999999999821 69.0,-81.00000000000003" stroke="#fffeff" stroke-linecap="round" stroke-linejoin="round"/><polygon fill="#231f20" fill-rule="evenodd" points="121.0,-44.0 121.00000000000155,113.0 95.00000000000155,113.00000000000026 94.99999999999999,-43.999999999999744 120.99999999999999,-44.00000000000001" stroke-linejoin="round"/><polyline fill="none" points="121.0,-44.0 121.00000000000155,113.0 95.00000000000155,113.00000000000026 94.99999999999999,-43.999999999999744 120.99999999999999,-44.00000000000001" stroke="#231f20" stroke-linecap="round" stroke-linejoin="round"/><polygon fill="#eb1c24" fill-rule="evenodd" points="201.0,-220.0 201.00000000000017,-202.0 109.00000000000017,-201.99999999999906 108.99999999999999,-219.99999999999906 201.0,-220.0" stroke-linejoin="round"/><polyline fill="none" points="201.0,-220.0 201.00000000000017,-202.0 109.00000000000017,-201.99999999999906 108.99999999999999,-219.99999999999906 201.0,-220.0" stroke="#eb1c24" stroke-linecap="round" stroke-linejoin="round"/><polygon fill="#0192c9" fill-rule="evenodd" points="-87.0,-173.0 -86.99999999999791,29.0 -222.9999999999979,29.000000000001414 -223.0,-172.99999999999858 -87.0,-173.0" stroke-linejoin="round"/><polyline fill="none" points="-87.0,-173.0 -86.99999999999791,29.0 -222.9999999999979,29.000000000001414 -223.0,-172.99999999999858 -87.0,-173.0" stroke="#0192c9" stroke-linecap="round" stroke-linejoin="round"/><polygon fill="#fbec15" fill-rule="evenodd" points="-60.0,70.0 -59.99999999999955,112.0 -243.99999999999955,112.00000000000196 -244.0,70.00000000000196 -60.0,69.99999999999997" stroke-linejoin="round"/><polyline fill="none" points="-60.0,70.0 -59.99999999999955,112.0 -243.99999999999955,112.00000000000196 -244.0,70.00000000000196 -60.0,69.99999999999997" stroke="#fbec15" stroke-linecap="round" stroke-linejoin="round"/><polygon fill="#231f20" fill-rule="evenodd" points="-129.0,298.0 -128.9999999999981,474.0 -313.99999999999807,474.000000000002 -314.0,298.000000000002 -129.0,297.99999999999994" stroke-linejoin="round"/><polyline fill="none" points="-129.0,298.0 -128.9999999999981,474.0 -313.99999999999807,474.000000000002 -314.0,298.000000000002 -129.0,297.99999999999994" stroke="#231f20" stroke-linecap="round" stroke-linejoin="round"/><polygon fill="#f8e817" fill-rule="evenodd" points="179.0,-137.0 179.00000000000202,46.0 99.00000000000202,46.00000000000089 98.99999999999997,-136.99999999999912 178.99999999999997,-137.00000000000003" stroke-linejoin="round"/><polyline fill="none" points="179.0,-137.0 179.00000000000202,46.0 99.00000000000202,46.00000000000089 98.99999999999997,-136.99999999999912 178.99999999999997,-137.00000000000003" stroke="#f8e817" stroke-linecap="round" stroke-linejoin="round"/><polygon fill="#231f20" fill-rule="evenodd" points="-86.0,257.0 -85.9999999999994,310.0 -286.99999999999943,310.0000000000023 -287.00000000000006,257.0000000000023 -86.00000000000006,256.99999999999994" stroke-linejoin="round"/><polyline fill="none" points="-86.0,257.0 -85.9999999999994,310.0 -286.99999999999943,310.0000000000023 -287.00000000000006,257.0000000000023 -86.00000000000006,256.99999999999994" stroke="#231f20" stroke-linecap="round" stroke-linejoin="round"/><polygon fill="#fbec15" fill-rule="evenodd" points="-95.0,-205.0 -94.99999999999923,-139.0 -305.9999999999992,-138.99999999999756 -306.0,-204.99999999999756 -95.0,-205.00000000000003" stroke-linejoin="round"/><polyline fill="none" points="-95.0,-205.0 -94.99999999999923,-139.0 -305.9999999999992,-138.99999999999756 -306.0,-204.99999999999756 -95.0,-205.00000000000003" stroke="#fbec15" stroke-linecap="round" stroke-linejoin="round"/><polygon fill="#dd2d26" fill-rule="evenodd" points="94.0,285.0 94.00000000000125,391.0 -112.99999999999875,391.00000000000244 -113.00000000000001,285.00000000000244 93.99999999999999,284.99999999999994" stroke-linejoin="round"/><polyline fill="none" points="94.0,285.0 94.00000000000125,391.0 -112.99999999999875,391.00000000000244 -113.00000000000001,285.00000000000244 93.99999999999999,284.99999999999994" stroke="#dd2d26" stroke-linecap="round" stroke-linejoin="round"/><polygon fill="#0192c9" fill-rule="evenodd" points="-199.0,-135.0 -198.99999999999753,69.0 -314.9999999999975,69.0000000000014 -315.0,-134.99999999999858 -199.0,-135.0" stroke-linejoin="round"/><polyline fill="none" points="-199.0,-135.0 -198.99999999999753,69.0 -314.9999999999975,69.0000000000014 -315.0,-134.99999999999858 -199.0,-135.0" stroke="#0192c9" stroke-linecap="round" stroke-linejoin="round"/><polygon fill="#231f20" fill-rule="evenodd" points="194.0,-37.0 194.00000000000261,176.0 9.000000000002615,176.0000000000023 8.999999999999968,-36.9999999999977 193.99999999999997,-37.00000000000001" stroke-linejoin="round"/><polyline fill="none" points="194.0,-37.0 194.00000000000261,176.0 9.000000000002615,176.0000000000023 8.999999999999968,-36.9999999999977 193.99999999999997,-37.00000000000001" stroke="#231f20" stroke-linecap="round" stroke-linejoin="round"/><polygon fill="#0192cb" fill-rule="evenodd" points="196.0,68.0 196.00000000000168,202.0 -16.999999999998323,202.0000000000027 -17.00000000000002,68.0000000000027 195.99999999999997,67.99999999999999" stroke-linejoin="round"/><polyline fill="none" points="196.0,68.0 196.00000000000168,202.0 -16.999999999998323,202.0000000000027 -17.00000000000002,68.0000000000027 195.99999999999997,67.99999999999999" stroke="#0192cb" stroke-linecap="round" stroke-linejoin="round"/><polygon fill="#939498" fill-rule="evenodd" points="-136.0,287.0 -135.99999999999844,409.0 -274.9999999999984,409.00000000000176 -275.0,287.00000000000176 -136.0,286.99999999999994" stroke-linejoin="round"/><polyline fill="none" points="-136.0,287.0 -135.99999999999844,409.0 -274.9999999999984,409.00000000000176 -275.0,287.00000000000176 -136.0,286.99999999999994" stroke="#939498" stroke-linecap="round" stroke-linejoin="round"/><polygon fill="#fffeff" fill-rule="evenodd" points="155.0,95.0 155.00000000000108,177.0 11.00000000000108,177.00000000000188 11.0,95.00000000000188 155.0,94.99999999999997" stroke-linejoin="round"/><polyline fill="none" points="155.0,95.0 155.00000000000108,177.0 11.00000000000108,177.00000000000188 11.0,95.00000000000188 155.0,94.99999999999997" stroke="#fffeff" stroke-linecap="round" stroke-linejoin="round"/><polygon fill="#ef5b2d" fill-rule="evenodd" points="-200.0,179.0 -199.99999999999778,345.0 -249.99999999999778,345.0000000000007 -250.0,179.00000000000068 -200.0,179.0" stroke-linejoin="round"/><polyline fill="none" points="-200.0,179.0 -199.99999999999778,345.0 -249.99999999999778,345.0000000000007 -250.0,179.00000000000068 -200.0,179.0" stroke="#ef5b2d" stroke-linecap="round" stroke-linejoin="round"/><polygon fill="#939498" fill-rule="evenodd" points="-41.0,219.0 -40.99999999999785,378.0 -187.99999999999784,378.000000000002 -188.0,219.000000000002 -41.0,218.99999999999997" stroke-linejoin="round"/><polyline fill="none" points="-41.0,219.0 -40.99999999999785,378.0 -187.99999999999784,378.000000000002 -188.0,219.000000000002 -41.0,218.99999999999997" stroke="#939498" stroke-linecap="round" stroke-linejoin="round"/><polygon fill="#0192c9" fill-rule="evenodd" points="195.0,126.0 195.00000000000264,317.0 26.000000000002643,317.00000000000233 25.99999999999999,126.00000000000233 195.0,125.99999999999997" stroke-linejoin="round"/><polyline fill="none" points="195.0,126.0 195.00000000000264,317.0 26.000000000002643,317.00000000000233 25.99999999999999,126.00000000000233 195.0,125.99999999999997" stroke="#0192c9" stroke-linecap="round" stroke-linejoin="round"/><polygon fill="#939498" fill-rule="evenodd" points="132.0,-147.0 132.00000000000233,20.0 80.00000000000233,20.000000000000732 79.99999999999997,-146.99999999999926 131.99999999999997,-147.0" stroke-linejoin="round"/><polyline fill="none" points="132.0,-147.0 132.00000000000233,20.0 80.00000000000233,20.000000000000732 79.99999999999997,-146.99999999999926 131.99999999999997,-147.0" stroke="#939498" stroke-linecap="round" stroke-linejoin="round"/><polygon fill="#939498" fill-rule="evenodd" points="20.0,265.0 20.000000000002583,446.0 -180.9999999999974,446.0000000000029 -181.00000000000003,265.0000000000029 19.99999999999997,265.0" stroke-linejoin="round"/><polyline fill="none" points="20.0,265.0 20.000000000002583,446.0 -180.9999999999974,446.0000000000029 -181.00000000000003,265.0000000000029 19.99999999999997,265.0" stroke="#939498" stroke-linecap="round" stroke-linejoin="round"/><polygon fill="#0192c9" fill-rule="evenodd" points="200.0,-130.0 200.0000000000006,-88.0 164.0000000000006,-87.99999999999947 163.99999999999997,-129.9999999999995 199.99999999999997,-130.00000000000003" stroke-linejoin="round"/><polyline fill="none" points="200.0,-130.0 200.0000000000006,-88.0 164.0000000000006,-87.99999999999947 163.99999999999997,-129.9999999999995 199.99999999999997,-130.00000000000003" stroke="#0192c9" stroke-linecap="round" stroke-linejoin="round"/><polygon fill="#0192c9" fill-rule="evenodd" points="-181.0,-4.0 -180.9999999999994,37.0 -360.99999999999943,37.000000000002665 -361.00000000000006,-3.9999999999973355 -181.00000000000006,-4.000000000000025" stroke-linejoin="round"/><polyline fill="none" points="-181.0,-4.0 -180.9999999999994,37.0 -360.99999999999943,37.000000000002665 -361.00000000000006,-3.9999999999973355 -181.00000000000006,-4.000000000000025" stroke="#0192c9" stroke-linecap="round" stroke-linejoin="round"/><polygon fill="#939498" fill-rule="evenodd" points="-133.0,322.0 -132.99999999999943,359.0 -167.99999999999943,359.0000000000005 -168.0,322.0000000000005 -133.0,322.0" stroke-linejoin="round"/><polyline fill="none" points="-133.0,322.0 -132.99999999999943,359.0 -167.99999999999943,359.0000000000005 -168.0,322.0000000000005 -133.0,322.0" stroke="#939498" stroke-linecap="round" stroke-linejoin="round"/><polygon fill="#fff" fill-rule="evenodd" points="-18.0,-190.0 -17.9999999999975,-26.0 -30.9999999999975,-25.9999999999998 -31.000000000000018,-189.9999999999998 -18.000000000000018,-190.0" stroke-linejoin="round"/><polyline fill="none" points="-18.0,-190.0 -17.9999999999975,-26.0 -30.9999999999975,-25.9999999999998 -31.000000000000018,-189.9999999999998 -18.000000000000018,-190.0" stroke="#fff" stroke-linecap="round" stroke-linejoin="round"/><polygon fill="#fffeff" fill-rule="evenodd" points="238.0,-197.0 238.00000000000233,-46.0 29.00000000000233,-45.99999999999675 28.99999999999997,-196.99999999999676 237.99999999999997,-197.00000000000003" stroke-linejoin="round"/><polyline fill="none" points="238.0,-197.0 238.00000000000233,-46.0 29.00000000000233,-45.99999999999675 28.99999999999997,-196.99999999999676 237.99999999999997,-197.00000000000003" stroke="#fffeff" stroke-linecap="round" stroke-linejoin="round"/><polygon fill="#128542" fill-rule="evenodd" points="-235.0,253.0 -234.99999999999713,435.0 -332.99999999999716,435.00000000000153 -333.00000000000006,253.00000000000153 -235.00000000000006,252.99999999999997" stroke-linejoin="round"/><polyline fill="none" points="-235.0,253.0 -234.99999999999713,435.0 -332.99999999999716,435.00000000000153 -333.00000000000006,253.00000000000153 -235.00000000000006,252.99999999999997" stroke="#128542" stroke-linecap="round" stroke-linejoin="round"/><polygon fill="#eb1c24" fill-rule="evenodd" points="-234.0,289.0 -233.99999999999977,303.0 -322.9999999999998,303.0000000000014 -323.0,289.0000000000014 -234.0,289.0" stroke-linejoin="round"/><polyline fill="none" points="-234.0,289.0 -233.99999999999977,303.0 -322.9999999999998,303.0000000000014 -323.0,289.0000000000014 -234.0,289.0" stroke="#eb1c24" stroke-linecap="round" stroke-linejoin="round"/><polygon fill="#dd2d26" fill-rule="evenodd" points="-52.0,-105.0 -51.99999999999846,-10.0 -254.99999999999847,-9.999999999996694 -255.00000000000003,-104.99999999999669 -52.00000000000003,-105.00000000000001" stroke-linejoin="round"/><polyline fill="none" points="-52.0,-105.0 -51.99999999999846,-10.0 -254.99999999999847,-9.999999999996694 -255.00000000000003,-104.99999999999669 -52.00000000000003,-105.00000000000001" stroke="#dd2d26" stroke-linecap="round" stroke-linejoin="round"/><polygon fill="#fbec15" fill-rule="evenodd" points="-107.0,-328.0 -106.999999999999,-268.0 -230.999999999999,-267.99999999999795 -231.0,-327.99999999999795 -107.0,-328.0" stroke-linejoin="round"/><polyline fill="none" points="-107.0,-328.0 -106.999999999999,-268.0 -230.999999999999,-267.99999999999795 -231.0,-327.99999999999795 -107.0,-328.0" stroke="#fbec15" stroke-linecap="round" stroke-linejoin="round"/><polygon fill="#ef5b2d" fill-rule="evenodd" points="-135.0,-51.0 -134.9999999999992,-3.0 -316.9999999999992,-2.9999999999969464 -317.0,-50.999999999996945 -135.0,-51.00000000000002" stroke-linejoin="round"/><polyline fill="none" points="-135.0,-51.0 -134.9999999999992,-3.0 -316.9999999999992,-2.9999999999969464 -317.0,-50.999999999996945 -135.0,-51.00000000000002" stroke="#ef5b2d" stroke-linecap="round" stroke-linejoin="round"/><polygon fill="#0192c9" fill-rule="evenodd" points="31.0,198.0 31.000000000002867,367.0 -177.99999999999713,367.0000000000036 -178.00000000000003,198.00000000000358 30.99999999999997,198.0" stroke-linejoin="round"/><polyline fill="none" points="31.0,198.0 31.000000000002867,367.0 -177.99999999999713,367.0000000000036 -178.00000000000003,198.00000000000358 30.99999999999997,198.0" stroke="#0192c9" stroke-linecap="round" stroke-linejoin="round"/><polygon fill="#939498" fill-rule="evenodd" points="178.0,232.0 178.0000000000023,366.0 2.3021584638627246e-12,366.00000000000307 -1.989433200056877e-14,232.00000000000307 177.99999999999997,231.99999999999997" stroke-linejoin="round"/><polyline fill="none" points="178.0,232.0 178.0000000000023,366.0 2.3021584638627246e-12,366.00000000000307 -1.989433200056877e-14,232.00000000000307 177.99999999999997,231.99999999999997" stroke="#939498" stroke-linecap="round" stroke-linejoin="round"/><polygon fill="#0192c9" fill-rule="evenodd" points="-226.0,-92.0 -225.99999999999727,64.0 -334.99999999999727,64.0000000000019 -335.0,-91.9999999999981 -226.0,-92.00000000000001" stroke-linejoin="round"/><polyline fill="none" points="-226.0,-92.0 -225.99999999999727,64.0 -334.99999999999727,64.0000000000019 -335.0,-91.9999999999981 -226.0,-92.00000000000001" stroke="#0192c9" stroke-linecap="round" stroke-linejoin="round"/><polygon fill="#0192cb" fill-rule="evenodd" points="-217.0,138.0 -216.9999999999962,354.0 -320.9999999999962,354.0000000000018 -321.00000000000006,138.00000000000182 -217.00000000000006,137.99999999999997" stroke-linejoin="round"/><polyline fill="none" points="-217.0,138.0 -216.9999999999962,354.0 -320.9999999999962,354.0000000000018 -321.00000000000006,138.00000000000182 -217.00000000000006,137.99999999999997" stroke="#0192cb" stroke-linecap="round" stroke-linejoin="round"/><polygon fill="#fffeff" fill-rule="evenodd" points="-191.0,-338.0 -190.9999999999986,-261.0 -270.99999999999864,-260.9999999999986 -271.0,-337.9999999999986 -191.0,-338.00000000000006" stroke-linejoin="round"/><polyline fill="none" points="-191.0,-338.0 -190.9999999999986,-261.0 -270.99999999999864,-260.9999999999986 -271.0,-337.9999999999986 -191.0,-338.00000000000006" stroke="#fffeff" stroke-linecap="round" stroke-linejoin="round"/><polygon fill="#0192cb" fill-rule="evenodd" points="-176.0,-49.0 -175.99999999999977,-36.0 -203.99999999999977,-35.99999999999949 -204.0,-48.99999999999949 -176.0,-49.0" stroke-linejoin="round"/><polyline fill="none" points="-176.0,-49.0 -175.99999999999977,-36.0 -203.99999999999977,-35.99999999999949 -204.0,-48.99999999999949 -176.0,-49.0" stroke="#0192cb" stroke-linecap="round" stroke-linejoin="round"/><polygon fill="#f8e817" fill-rule="evenodd" points="183.0,-75.0 183.00000000000097,-23.0 116.00000000000097,-22.99999999999876 116.0,-74.99999999999876 183.0,-75.00000000000001" stroke-linejoin="round"/><polyline fill="none" points="183.0,-75.0 183.00000000000097,-23.0 116.00000000000097,-22.99999999999876 116.0,-74.99999999999876 183.0,-75.00000000000001" stroke="#f8e817" stroke-linecap="round" stroke-linejoin="round"/><polygon fill="#fff" fill-rule="evenodd" points="-107.0,-339.0 -106.99999999999594,-121.0 -251.99999999999594,-120.99999999999729 -252.00000000000003,-338.99999999999727 -107.00000000000003,-339.0" stroke-linejoin="round"/><polyline fill="none" points="-107.0,-339.0 -106.99999999999594,-121.0 -251.99999999999594,-120.99999999999729 -252.00000000000003,-338.99999999999727 -107.00000000000003,-339.0" stroke="#fff" stroke-linecap="round" stroke-linejoin="round"/><polygon fill="#128542" fill-rule="evenodd" points="-233.0,61.0 -232.99999999999795,169.0 -444.99999999999795,169.00000000000404 -445.0,61.000000000004036 -233.0,60.999999999999986" stroke-linejoin="round"/><polyline fill="none" points="-233.0,61.0 -232.99999999999795,169.0 -444.99999999999795,169.00000000000404 -445.0,61.000000000004036 -233.0,60.999999999999986" stroke="#128542" stroke-linecap="round" stroke-linejoin="round"/><polygon fill="#fbec15" fill-rule="evenodd" points="-21.0,148.0 -20.999999999995996,357.0 -210.999999999996,357.00000000000364 -211.00000000000003,148.00000000000364 -21.00000000000003,147.99999999999997" stroke-linejoin="round"/><polyline fill="none" points="-21.0,148.0 -20.999999999995996,357.0 -210.999999999996,357.00000000000364 -211.00000000000003,148.00000000000364 -21.00000000000003,147.99999999999997" stroke="#fbec15" stroke-linecap="round" stroke-linejoin="round"/><polygon fill="#fbec15" fill-rule="evenodd" points="-203.0,235.0 -202.99999999999918,277.0 -274.9999999999992,277.0000000000014 -275.0,235.00000000000142 -203.0,235.0" stroke-linejoin="round"/><polyline fill="none" points="-203.0,235.0 -202.99999999999918,277.0 -274.9999999999992,277.0000000000014 -275.0,235.00000000000142 -203.0,235.0" stroke="#fbec15" stroke-linecap="round" stroke-linejoin="round"/><polygon fill="#fbec15" fill-rule="evenodd" points="28.0,-155.0 28.000000000003638,30.0 -42.99999999999636,30.0000000000014 -43.00000000000002,-154.9999999999986 27.99999999999998,-155.00000000000003" stroke-linejoin="round"/><polyline fill="none" points="28.0,-155.0 28.000000000003638,30.0 -42.99999999999636,30.0000000000014 -43.00000000000002,-154.9999999999986 27.99999999999998,-155.00000000000003" stroke="#fbec15" stroke-linecap="round" stroke-linejoin="round"/><polygon fill="#ef5b2d" fill-rule="evenodd" points="159.0,-270.0 159.0000000000042,-58.0 101.0000000000042,-57.99999999999884 100.99999999999996,-269.99999999999886 158.99999999999994,-270.0" stroke-linejoin="round"/><polyline fill="none" points="159.0,-270.0 159.0000000000042,-58.0 101.0000000000042,-57.99999999999884 100.99999999999996,-269.99999999999886 158.99999999999994,-270.0" stroke="#ef5b2d" stroke-linecap="round" stroke-linejoin="round"/><polygon fill="#939498" fill-rule="evenodd" points="-230.0,-153.0 -229.99999999999977,-142.0 -386.9999999999998,-141.99999999999682 -387.0,-152.99999999999682 -230.0,-153.0" stroke-linejoin="round"/><polyline fill="none" points="-230.0,-153.0 -229.99999999999977,-142.0 -386.9999999999998,-141.99999999999682 -387.0,-152.99999999999682 -230.0,-153.0" stroke="#939498" stroke-linecap="round" stroke-linejoin="round"/><polygon fill="#0192c9" fill-rule="evenodd" points="-207.0,-304.0 -206.99999999999707,-160.0 -242.99999999999707,-159.99999999999926 -243.00000000000003,-303.99999999999926 -207.00000000000003,-304.0" stroke-linejoin="round"/><polyline fill="none" points="-207.0,-304.0 -206.99999999999707,-160.0 -242.99999999999707,-159.99999999999926 -243.00000000000003,-303.99999999999926 -207.00000000000003,-304.0" stroke="#0192c9" stroke-linecap="round" stroke-linejoin="round"/><polygon fill="#fbec15" fill-rule="evenodd" points="132.0,-128.0 132.0000000000012,-70.0 -86.9999999999988,-69.99999999999547 -87.00000000000001,-127.99999999999547 132.0,-128.00000000000003" stroke-linejoin="round"/><polyline fill="none" points="132.0,-128.0 132.0000000000012,-70.0 -86.9999999999988,-69.99999999999547 -87.00000000000001,-127.99999999999547 132.0,-128.00000000000003" stroke="#fbec15" stroke-linecap="round" stroke-linejoin="round"/><polygon fill="#ef5b2d" fill-rule="evenodd" points="168.0,60.0 168.0000000000006,88.0 -19.999999999999403,88.00000000000394 -19.999999999999993,60.000000000003936 168.0,59.99999999999998" stroke-linejoin="round"/><polyline fill="none" points="168.0,60.0 168.0000000000006,88.0 -19.999999999999403,88.00000000000394 -19.999999999999993,60.000000000003936 168.0,59.99999999999998" stroke="#ef5b2d" stroke-linecap="round" stroke-linejoin="round"/><polygon fill="#fffeff" fill-rule="evenodd" points="-122.0,-105.0 -121.99999999999751,13.0 -265.9999999999975,13.00000000000305 -266.0,-104.99999999999694 -122.0,-105.00000000000001" stroke-linejoin="round"/><polyline fill="none" points="-122.0,-105.0 -121.99999999999751,13.0 -265.9999999999975,13.00000000000305 -266.0,-104.99999999999694 -122.0,-105.00000000000001" stroke="#fffeff" stroke-linecap="round" stroke-linejoin="round"/><polygon fill="#fff" fill-rule="evenodd" points="-156.0,307.0 -155.9999999999961,489.0 -314.99999999999613,489.0000000000034 -315.00000000000006,307.0000000000034 -156.00000000000006,307.0" stroke-linejoin="round"/><polyline fill="none" points="-156.0,307.0 -155.9999999999961,489.0 -314.99999999999613,489.0000000000034 -315.00000000000006,307.0000000000034 -156.00000000000006,307.0" stroke="#fff" stroke-linecap="round" stroke-linejoin="round"/><polygon fill="#fbec15" fill-rule="evenodd" points="-106.0,231.0 -105.99999999999613,410.0 -274.99999999999613,410.00000000000364 -275.0,231.00000000000364 -106.0,230.99999999999994" stroke-linejoin="round"/><polyline fill="none" points="-106.0,231.0 -105.99999999999613,410.0 -274.99999999999613,410.00000000000364 -275.0,231.00000000000364 -106.0,230.99999999999994" stroke="#fbec15" stroke-linecap="round" stroke-linejoin="round"/><polygon fill="#fffeff" fill-rule="evenodd" points="-6.0,-259.0 -5.999999999999497,-236.0 -202.9999999999995,-235.99999999999568 -203.0,-258.9999999999957 -6.0,-259.0" stroke-linejoin="round"/><polyline fill="none" points="-6.0,-259.0 -5.999999999999497,-236.0 -202.9999999999995,-235.99999999999568 -203.0,-258.9999999999957 -6.0,-259.0" stroke="#fffeff" stroke-linecap="round" stroke-linejoin="round"/><polygon fill="#dd2d26" fill-rule="evenodd" points="87.0,-5.0 87.00000000000414,182.0 22.000000000004135,182.00000000000145 21.99999999999998,-4.9999999999985505 86.99999999999997,-4.999999999999999" stroke-linejoin="round"/><polyline fill="none" points="87.0,-5.0 87.00000000000414,182.0 22.000000000004135,182.00000000000145 21.99999999999998,-4.9999999999985505 86.99999999999997,-4.999999999999999" stroke="#dd2d26" stroke-linecap="round" stroke-linejoin="round"/><polygon fill="#f8e817" fill-rule="evenodd" points="245.0,-91.0 245.00000000000287,38.0 81.00000000000287,38.00000000000367 80.99999999999997,-90.99999999999633 244.99999999999997,-91.00000000000003" stroke-linejoin="round"/><polyline fill="none" points="245.0,-91.0 245.00000000000287,38.0 81.00000000000287,38.00000000000367 80.99999999999997,-90.99999999999633 244.99999999999997,-91.00000000000003" stroke="#f8e817" stroke-linecap="round" stroke-linejoin="round"/><polygon fill="#fff" fill-rule="evenodd" points="-26.0,-9.0 -25.999999999996994,124.0 -248.999999999997,124.00000000000506 -249.0,-8.999999999994941 -26.0,-9.000000000000021" stroke-linejoin="round"/><polyline fill="none" points="-26.0,-9.0 -25.999999999996994,124.0 -248.999999999997,124.00000000000506 -249.0,-8.999999999994941 -26.0,-9.000000000000021" stroke="#fff" stroke-linecap="round" stroke-linejoin="round"/><polygon fill="#eb1c24" fill-rule="evenodd" points="-167.0,-226.0 -166.9999999999989,-177.0 -206.9999999999989,-176.9999999999991 -207.00000000000003,-225.9999999999991 -167.00000000000003,-226.0" stroke-linejoin="round"/><polyline fill="none" points="-167.0,-226.0 -166.9999999999989,-177.0 -206.9999999999989,-176.9999999999991 -207.00000000000003,-225.9999999999991 -167.00000000000003,-226.0" stroke="#eb1c24" stroke-linecap="round" stroke-linejoin="round"/><polygon fill="#128542" fill-rule="evenodd" points="-172.0,266.0 -171.99999999999795,355.0 -324.99999999999795,355.0000000000035 -325.0,266.0000000000035 -172.0,265.99999999999994" stroke-linejoin="round"/><polyline fill="none" points="-172.0,266.0 -171.99999999999795,355.0 -324.99999999999795,355.0000000000035 -325.0,266.0000000000035 -172.0,265.99999999999994" stroke="#128542" stroke-linecap="round" stroke-linejoin="round"/><polygon fill="#fff" fill-rule="evenodd" points="72.0,-295.0 72.00000000000401,-123.0 16.000000000004007,-122.99999999999869 15.999999999999973,-294.9999999999987 71.99999999999997,-295.0" stroke-linejoin="round"/><polyline fill="none" points="72.0,-295.0 72.00000000000401,-123.0 16.000000000004007,-122.99999999999869 15.999999999999973,-294.9999999999987 71.99999999999997,-295.0" stroke="#fff" stroke-linecap="round" stroke-linejoin="round"/><polygon fill="#eb1c24" fill-rule="evenodd" points="-183.0,-268.0 -182.99999999999758,-165.0 -377.9999999999976,-164.9999999999954 -378.00000000000006,-267.9999999999954 -183.00000000000006,-268.00000000000006" stroke-linejoin="round"/><polyline fill="none" points="-183.0,-268.0 -182.99999999999758,-165.0 -377.9999999999976,-164.9999999999954 -378.00000000000006,-267.9999999999954 -183.00000000000006,-268.00000000000006" stroke="#eb1c24" stroke-linecap="round" stroke-linejoin="round"/><polygon fill="#fffeff" fill-rule="evenodd" points="-149.0,-228.0 -148.99999999999622,-69.0 -252.99999999999622,-68.99999999999751 -253.00000000000003,-227.9999999999975 -149.00000000000003,-228.0" stroke-linejoin="round"/><polyline fill="none" points="-149.0,-228.0 -148.99999999999622,-69.0 -252.99999999999622,-68.99999999999751 -253.00000000000003,-227.9999999999975 -149.00000000000003,-228.0" stroke="#fffeff" stroke-linecap="round" stroke-linejoin="round"/><polygon fill="#dd2d26" fill-rule="evenodd" points="-174.0,-229.0 -173.99999999999764,-131.0 -254.99999999999764,-130.99999999999804 -255.0,-228.99999999999804 -174.0,-229.0" stroke-linejoin="round"/><polyline fill="none" points="-174.0,-229.0 -173.99999999999764,-131.0 -254.99999999999764,-130.99999999999804 -255.0,-228.99999999999804 -174.0,-229.0" stroke="#dd2d26" stroke-linecap="round" stroke-linejoin="round"/><polygon fill="#939498" fill-rule="evenodd" points="-14.0,200.0 -13.99999999999616,358.0 -131.99999999999616,358.0000000000029 -132.00000000000003,200.0000000000029 -14.000000000000028,200.0" stroke-linejoin="round"/><polyline fill="none" points="-14.0,200.0 -13.99999999999616,358.0 -131.99999999999616,358.0000000000029 -132.00000000000003,200.0000000000029 -14.000000000000028,200.0" stroke="#939498" stroke-linecap="round" stroke-linejoin="round"/><polygon fill="#fffeff" fill-rule="evenodd" points="242.0,166.0 242.00000000000426,340.0 33.00000000000426,340.0000000000052 32.99999999999997,166.00000000000517 241.99999999999997,166.0" stroke-linejoin="round"/><polyline fill="none" points="242.0,166.0 242.00000000000426,340.0 33.00000000000426,340.0000000000052 32.99999999999997,166.00000000000517 241.99999999999997,166.0" stroke="#fffeff" stroke-linecap="round" stroke-linejoin="round"/><polygon fill="#939498" fill-rule="evenodd" points="204.0,18.0 204.00000000000176,89.0 74.00000000000176,89.00000000000323 73.99999999999999,18.000000000003226 204.0,17.99999999999998" stroke-linejoin="round"/><polyline fill="none" points="204.0,18.0 204.00000000000176,89.0 74.00000000000176,89.00000000000323 73.99999999999999,18.000000000003226 204.0,17.99999999999998" stroke="#939498" stroke-linecap="round" stroke-linejoin="round"/><polygon fill="#0192cb" fill-rule="evenodd" points="57.0,263.0 57.000000000003205,391.0 -41.999999999996795,391.0000000000025 -42.000000000000014,263.0000000000025 56.999999999999986,263.0" stroke-linejoin="round"/><polyline fill="none" points="57.0,263.0 57.000000000003205,391.0 -41.999999999996795,391.0000000000025 -42.000000000000014,263.0000000000025 56.999999999999986,263.0" stroke="#0192cb" stroke-linecap="round" stroke-linejoin="round"/><polygon fill="#ef5b2d" fill-rule="evenodd" points="-151.0,291.0 -150.99999999999517,482.0 -178.99999999999517,482.0000000000007 -179.00000000000003,291.0000000000007 -151.00000000000003,290.99999999999994" stroke-linejoin="round"/><polyline fill="none" points="-151.0,291.0 -150.99999999999517,482.0 -178.99999999999517,482.0000000000007 -179.00000000000003,291.0000000000007 -151.00000000000003,290.99999999999994" stroke="#ef5b2d" stroke-linecap="round" stroke-linejoin="round"/><polygon fill="#939498" fill-rule="evenodd" points="-189.0,162.0 -188.99999999999545,340.0 -374.99999999999545,340.0000000000048 -375.0,162.00000000000477 -189.0,162.0" stroke-linejoin="round"/><polyline fill="none" points="-189.0,162.0 -188.99999999999545,340.0 -374.99999999999545,340.0000000000048 -375.0,162.00000000000477 -189.0,162.0" stroke="#939498" stroke-linecap="round" stroke-linejoin="round"/><polygon fill="#fff" fill-rule="evenodd" points="101.0,41.0 101.00000000000529,246.0 71.00000000000529,246.00000000000077 70.99999999999997,41.00000000000077 100.99999999999997,40.999999999999986" stroke-linejoin="round"/><polyline fill="none" points="101.0,41.0 101.00000000000529,246.0 71.00000000000529,246.00000000000077 70.99999999999997,41.00000000000077 100.99999999999997,40.999999999999986" stroke="#fff" stroke-linecap="round" stroke-linejoin="round"/><polygon fill="#fbec15" fill-rule="evenodd" points="-8.0,336.0 -7.999999999999609,351.0 -54.99999999999961,351.00000000000125 -55.0,336.00000000000125 -8.0,336.0" stroke-linejoin="round"/><polyline fill="none" points="-8.0,336.0 -7.999999999999609,351.0 -54.99999999999961,351.00000000000125 -55.0,336.00000000000125 -8.0,336.0" stroke="#fbec15" stroke-linecap="round" stroke-linejoin="round"/><polygon fill="#939498" fill-rule="evenodd" points="-222.0,258.0 -221.99999999999545,431.0 -430.99999999999545,431.0000000000055 -431.0,258.0000000000055 -222.0,258.0" stroke-linejoin="round"/><polyline fill="none" points="-222.0,258.0 -221.99999999999545,431.0 -430.99999999999545,431.0000000000055 -431.0,258.0000000000055 -222.0,258.0" stroke="#939498" stroke-linecap="round" stroke-linejoin="round"/><polygon fill="#0192cb" fill-rule="evenodd" points="-119.0,-112.0 -118.9999999999985,-55.0 -220.9999999999985,-54.99999999999729 -221.0,-111.9999999999973 -119.0,-112.00000000000003" stroke-linejoin="round"/><polyline fill="none" points="-119.0,-112.0 -118.9999999999985,-55.0 -220.9999999999985,-54.99999999999729 -221.0,-111.9999999999973 -119.0,-112.00000000000003" stroke="#0192cb" stroke-linecap="round" stroke-linejoin="round"/><polygon fill="#fffeff" fill-rule="evenodd" points="-164.0,228.0 -163.9999999999991,262.0 -232.9999999999991,262.0000000000019 -233.0,228.00000000000188 -164.0,228.00000000000003" stroke-linejoin="round"/><polyline fill="none" points="-164.0,228.0 -163.9999999999991,262.0 -232.9999999999991,262.0000000000019 -233.0,228.00000000000188 -164.0,228.00000000000003" stroke="#fffeff" stroke-linecap="round" stroke-linejoin="round"/><polygon fill="#fbec15" fill-rule="evenodd" points="-129.0,315.0 -128.99999999999838,375.0 -180.99999999999838,375.0000000000014 -181.0,315.0000000000014 -129.0,315.0" stroke-linejoin="round"/><polyline fill="none" points="-129.0,315.0 -128.99999999999838,375.0 -180.99999999999838,375.0000000000014 -181.0,315.0000000000014 -129.0,315.0" stroke="#fbec15" stroke-linecap="round" stroke-linejoin="round"/><polygon fill="#231f20" fill-rule="evenodd" points="196.0,-223.0 196.0000000000023,-138.0 165.0000000000023,-137.99999999999915 164.99999999999997,-222.99999999999915 195.99999999999997,-223.0" stroke-linejoin="round"/><polyline fill="none" points="196.0,-223.0 196.0000000000023,-138.0 165.0000000000023,-137.99999999999915 164.99999999999997,-222.99999999999915 195.99999999999997,-223.0" stroke="#231f20" stroke-linecap="round" stroke-linejoin="round"/><polygon fill="#0192c9" fill-rule="evenodd" points="108.0,-77.0 108.00000000000156,-20.0 -33.99999999999844,-19.99999999999609 -34.000000000000014,-76.99999999999609 107.99999999999999,-77.00000000000003" stroke-linejoin="round"/><polyline fill="none" points="108.0,-77.0 108.00000000000156,-20.0 -33.99999999999844,-19.99999999999609 -34.000000000000014,-76.99999999999609 107.99999999999999,-77.00000000000003" stroke="#0192c9" stroke-linecap="round" stroke-linejoin="round"/><polygon fill="#ef5b2d" fill-rule="evenodd" points="19.0,-69.0 19.000000000002384,17.0 -81.99999999999761,17.000000000002807 -82.00000000000001,-68.99999999999719 18.999999999999986,-69.0" stroke-linejoin="round"/><polyline fill="none" points="19.0,-69.0 19.000000000002384,17.0 -81.99999999999761,17.000000000002807 -82.00000000000001,-68.99999999999719 18.999999999999986,-69.0" stroke="#ef5b2d" stroke-linecap="round" stroke-linejoin="round"/><polygon fill="#f8e817" fill-rule="evenodd" points="-24.0,-290.0 -23.99999999999891,-251.0 -243.99999999999892,-250.99999999999383 -244.00000000000003,-289.99999999999386 -24.00000000000003,-290.00000000000006" stroke-linejoin="round"/><polyline fill="none" points="-24.0,-290.0 -23.99999999999891,-251.0 -243.99999999999892,-250.99999999999383 -244.00000000000003,-289.99999999999386 -24.00000000000003,-290.00000000000006" stroke="#f8e817" stroke-linecap="round" stroke-linejoin="round"/><polygon fill="#fff" fill-rule="evenodd" points="60.0,-48.0 60.00000000000136,0.0 -122.99999999999864,5.176949414035599e-12 -123.0,-47.99999999999482 60.0,-48.00000000000002" stroke-linejoin="round"/><polyline fill="none" points="60.0,-48.0 60.00000000000136,0.0 -122.99999999999864,5.176949414035599e-12 -123.0,-47.99999999999482 60.0,-48.00000000000002" stroke="#fff" stroke-linecap="round" stroke-linejoin="round"/><polygon fill="#ef5b2d" fill-rule="evenodd" points="-37.0,126.0 -36.999999999994394,323.0 -202.9999999999944,323.0000000000047 -203.00000000000003,126.00000000000472 -37.00000000000003,125.99999999999996" stroke-linejoin="round"/><polyline fill="none" points="-37.0,126.0 -36.999999999994394,323.0 -202.9999999999944,323.0000000000047 -203.00000000000003,126.00000000000472 -37.00000000000003,125.99999999999996" stroke="#ef5b2d" stroke-linecap="round" stroke-linejoin="round"/><polygon fill="#f8e817" fill-rule="evenodd" points="45.0,-295.0 45.00000000000066,-272.0 -88.99999999999935,-271.99999999999613 -89.00000000000001,-294.99999999999613 44.999999999999986,-295.0" stroke-linejoin="round"/><polyline fill="none" points="45.0,-295.0 45.00000000000066,-272.0 -88.99999999999935,-271.99999999999613 -89.00000000000001,-294.99999999999613 44.999999999999986,-295.0" stroke="#f8e817" stroke-linecap="round" stroke-linejoin="round"/><polygon fill="#0192c9" fill-rule="evenodd" points="-87.0,-16.0 -86.99999999999908,16.0 -124.99999999999908,16.0000000000011 -125.0,-15.999999999998899 -87.0,-16.000000000000007" stroke-linejoin="round"/><polyline fill="none" points="-87.0,-16.0 -86.99999999999908,16.0 -124.99999999999908,16.0000000000011 -125.0,-15.999999999998899 -87.0,-16.000000000000007" stroke="#0192c9" stroke-linecap="round" stroke-linejoin="round"/><polygon fill="#eb1c24" fill-rule="evenodd" points="-249.0,-159.0 -248.999999999997,-56.0 -277.999999999997,-55.999999999999154 -278.0,-158.99999999999915 -249.0,-159.0" stroke-linejoin="round"/><polyline fill="none" points="-249.0,-159.0 -248.999999999997,-56.0 -277.999999999997,-55.999999999999154 -278.0,-158.99999999999915 -249.0,-159.0" stroke="#eb1c24" stroke-linecap="round" stroke-linejoin="round"/><polygon fill="#231f20" fill-rule="evenodd" points="-15.0,47.0 -14.999999999996907,152.0 -209.9999999999969,152.00000000000574 -210.0,47.00000000000574 -15.0,46.999999999999964" stroke-linejoin="round"/><polyline fill="none" points="-15.0,47.0 -14.999999999996907,152.0 -209.9999999999969,152.00000000000574 -210.0,47.00000000000574 -15.0,46.999999999999964" stroke="#231f20" stroke-linecap="round" stroke-linejoin="round"/><polygon fill="#128542" fill-rule="evenodd" points="-37.0,-158.0 -36.999999999999375,-137.0 -134.99999999999937,-136.99999999999707 -135.0,-157.99999999999707 -37.0,-158.0" stroke-linejoin="round"/><polyline fill="none" points="-37.0,-158.0 -36.999999999999375,-137.0 -134.99999999999937,-136.99999999999707 -135.0,-157.99999999999707 -37.0,-158.0" stroke="#128542" stroke-linecap="round" stroke-linejoin="round"/><polygon fill="#fffeff" fill-rule="evenodd" points="119.0,-347.0 119.00000000000408,-211.0 -83.99999999999592,-210.99999999999392 -84.00000000000001,-346.9999999999939 118.99999999999999,-347.00000000000006" stroke-linejoin="round"/><polyline fill="none" points="119.0,-347.0 119.00000000000408,-211.0 -83.99999999999592,-210.99999999999392 -84.00000000000001,-346.9999999999939 118.99999999999999,-347.00000000000006" stroke="#fffeff" stroke-linecap="round" stroke-linejoin="round"/><polygon fill="#0192cb" fill-rule="evenodd" points="144.0,110.0 144.0000000000037,232.0 5.000000000003695,232.0000000000042 4.999999999999997,110.0000000000042 144.0,109.99999999999999" stroke-linejoin="round"/><polyline fill="none" points="144.0,110.0 144.0000000000037,232.0 5.000000000003695,232.0000000000042 4.999999999999997,110.0000000000042 144.0,109.99999999999999" stroke="#0192cb" stroke-linecap="round" stroke-linejoin="round"/><polygon fill="#128542" fill-rule="evenodd" points="-48.0,-81.0 -47.99999999999848,-31.0 -190.99999999999847,-30.99999999999564 -191.0,-80.99999999999564 -48.0,-81.00000000000001" stroke-linejoin="round"/><polyline fill="none" points="-48.0,-81.0 -47.99999999999848,-31.0 -190.99999999999847,-30.99999999999564 -191.0,-80.99999999999564 -48.0,-81.00000000000001" stroke="#128542" stroke-linecap="round" stroke-linejoin="round"/><polygon fill="#128542" fill-rule="evenodd" points="176.0,259.0 176.00000000000657,473.0 156.00000000000657,473.0000000000006 155.99999999999997,259.0000000000006 175.99999999999997,259.0" stroke-linejoin="round"/><polyline fill="none" points="176.0,259.0 176.00000000000657,473.0 156.00000000000657,473.0000000000006 155.99999999999997,259.0000000000006 175.99999999999997,259.0" stroke="#128542" stroke-linecap="round" stroke-linejoin="round"/><polygon fill="#939498" fill-rule="evenodd" points="-21.0,-168.0 -20.999999999994063,24.0 -112.99999999999406,24.00000000000285 -113.00000000000001,-167.99999999999716 -21.000000000000014,-168.00000000000003" stroke-linejoin="round"/><polyline fill="none" points="-21.0,-168.0 -20.999999999994063,24.0 -112.99999999999406,24.00000000000285 -113.00000000000001,-167.99999999999716 -21.000000000000014,-168.00000000000003" stroke="#939498" stroke-linecap="round" stroke-linejoin="round"/><polygon fill="#0192c9" fill-rule="evenodd" points="138.0,-264.0 138.00000000000608,-69.0 86.00000000000608,-68.99999999999838 85.99999999999999,-263.9999999999984 138.0,-264.00000000000006" stroke-linejoin="round"/><polyline fill="none" points="138.0,-264.0 138.00000000000608,-69.0 86.00000000000608,-68.99999999999838 85.99999999999999,-263.9999999999984 138.0,-264.00000000000006" stroke="#0192c9" stroke-linecap="round" stroke-linejoin="round"/><polygon fill="#f8e817" fill-rule="evenodd" points="-75.0,229.0 -74.99999999999824,285.0 -248.99999999999824,285.00000000000546 -249.0,229.00000000000546 -75.0,228.99999999999997" stroke-linejoin="round"/><polyline fill="none" points="-75.0,229.0 -74.99999999999824,285.0 -248.99999999999824,285.00000000000546 -249.0,229.00000000000546 -75.0,228.99999999999997" stroke="#f8e817" stroke-linecap="round" stroke-linejoin="round"/><polygon fill="#fff" fill-rule="evenodd" points="248.0,228.0 248.00000000000557,404.0 225.00000000000557,404.00000000000074 224.99999999999997,228.00000000000074 247.99999999999997,228.0" stroke-linejoin="round"/><polyline fill="none" points="248.0,228.0 248.00000000000557,404.0 225.00000000000557,404.00000000000074 224.99999999999997,228.00000000000074 247.99999999999997,228.0" stroke="#fff" stroke-linecap="round" stroke-linejoin="round"/><polygon fill="#231f20" fill-rule="evenodd" points="106.0,-320.0 106.00000000000712,-97.0 70.00000000000712,-96.99999999999885 69.99999999999997,-319.99999999999886 105.99999999999997,-320.0" stroke-linejoin="round"/><polyline fill="none" points="106.0,-320.0 106.00000000000712,-97.0 70.00000000000712,-96.99999999999885 69.99999999999997,-319.99999999999886 105.99999999999997,-320.0" stroke="#231f20" stroke-linecap="round" stroke-linejoin="round"/><polygon fill="#eb1c24" fill-rule="evenodd" points="-151.0,88.0 -150.9999999999929,309.0 -324.9999999999929,309.0000000000056 -325.0,88.00000000000563 -151.0,88.0" stroke-linejoin="round"/><polyline fill="none" points="-151.0,88.0 -150.9999999999929,309.0 -324.9999999999929,309.0000000000056 -325.0,88.00000000000563 -151.0,88.0" stroke="#eb1c24" stroke-linecap="round" stroke-linejoin="round"/><polygon fill="#939498" fill-rule="evenodd" points="-28.0,-252.0 -27.999999999998476,-205.0 -103.99999999999848,-204.99999999999753 -104.00000000000001,-251.99999999999753 -28.000000000000014,-252.0" stroke-linejoin="round"/><polyline fill="none" points="-28.0,-252.0 -27.999999999998476,-205.0 -103.99999999999848,-204.99999999999753 -104.00000000000001,-251.99999999999753 -28.000000000000014,-252.0" stroke="#939498" stroke-linecap="round" stroke-linejoin="round"/><polygon fill="#0192cb" fill-rule="evenodd" points="-31.0,-129.0 -30.999999999997094,-40.0 -99.9999999999971,-39.99999999999774 -100.00000000000001,-128.99999999999773 -31.000000000000014,-129.0" stroke-linejoin="round"/><polyline fill="none" points="-31.0,-129.0 -30.999999999997094,-40.0 -99.9999999999971,-39.99999999999774 -100.00000000000001,-128.99999999999773 -31.000000000000014,-129.0" stroke="#0192cb" stroke-linecap="round" stroke-linejoin="round"/><polygon fill="#0192c9" fill-rule="evenodd" points="-222.0,-114.0 -221.99999999999588,11.0 -408.9999999999959,11.00000000000616 -409.00000000000006,-113.99999999999383 -222.00000000000006,-114.00000000000001" stroke-linejoin="round"/><polyline fill="none" points="-222.0,-114.0 -221.99999999999588,11.0 -408.9999999999959,11.00000000000616 -409.00000000000006,-113.99999999999383 -222.00000000000006,-114.00000000000001" stroke="#0192c9" stroke-linecap="round" stroke-linejoin="round"/><polygon fill="#fff" fill-rule="evenodd" points="-164.0,105.0 -163.99999999999554,240.0 -293.99999999999557,240.00000000000432 -294.00000000000006,105.00000000000432 -164.00000000000006,104.99999999999999" stroke-linejoin="round"/><polyline fill="none" points="-164.0,105.0 -163.99999999999554,240.0 -293.99999999999557,240.00000000000432 -294.00000000000006,105.00000000000432 -164.00000000000006,104.99999999999999" stroke="#fff" stroke-linecap="round" stroke-linejoin="round"/><polygon fill="#0192cb" fill-rule="evenodd" points="-170.0,145.0 -169.999999999995,295.0 -359.999999999995,295.00000000000637 -360.0,145.00000000000637 -170.0,145.0" stroke-linejoin="round"/><polyline fill="none" points="-170.0,145.0 -169.999999999995,295.0 -359.999999999995,295.00000000000637 -360.0,145.00000000000637 -170.0,145.0" stroke="#0192cb" stroke-linecap="round" stroke-linejoin="round"/><polygon fill="#fffeff" fill-rule="evenodd" points="96.0,-232.0 96.00000000000222,-166.0 77.00000000000222,-165.99999999999935 76.99999999999999,-231.99999999999935 95.99999999999999,-232.0" stroke-linejoin="round"/><polyline fill="none" points="96.0,-232.0 96.00000000000222,-166.0 77.00000000000222,-165.99999999999935 76.99999999999999,-231.99999999999935 95.99999999999999,-232.0" stroke="#fffeff" stroke-linecap="round" stroke-linejoin="round"/><polygon fill="#ef5b2d" fill-rule="evenodd" points="-148.0,129.0 -147.9999999999938,312.0 -240.9999999999938,312.0000000000032 -241.00000000000003,129.00000000000318 -148.00000000000003,129.00000000000003" stroke-linejoin="round"/><polyline fill="none" points="-148.0,129.0 -147.9999999999938,312.0 -240.9999999999938,312.0000000000032 -241.00000000000003,129.00000000000318 -148.00000000000003,129.00000000000003" stroke="#ef5b2d" stroke-linecap="round" stroke-linejoin="round"/><polygon fill="#939498" fill-rule="evenodd" points="66.0,-181.0 66.00000000000207,-120.0 -70.99999999999793,-119.99999999999532 -71.00000000000001,-180.99999999999534 65.99999999999999,-181.00000000000003" stroke-linejoin="round"/><polyline fill="none" points="66.0,-181.0 66.00000000000207,-120.0 -70.99999999999793,-119.99999999999532 -71.00000000000001,-180.99999999999534 65.99999999999999,-181.00000000000003" stroke="#939498" stroke-linecap="round" stroke-linejoin="round"/><polygon fill="#dd2d26" fill-rule="evenodd" points="-17.0,339.0 -16.999999999998387,386.0 -174.99999999999838,386.00000000000546 -175.0,339.00000000000546 -17.0,339.0" stroke-linejoin="round"/><polyline fill="none" points="-17.0,339.0 -16.999999999998387,386.0 -174.99999999999838,386.00000000000546 -175.0,339.00000000000546 -17.0,339.0" stroke="#dd2d26" stroke-linecap="round" stroke-linejoin="round"/><polygon fill="#128542" fill-rule="evenodd" points="102.0,-111.0 102.00000000000304,-23.0 -109.99999999999696,-22.999999999992653 -110.00000000000001,-110.99999999999265 101.99999999999999,-111.00000000000003" stroke-linejoin="round"/><polyline fill="none" points="102.0,-111.0 102.00000000000304,-23.0 -109.99999999999696,-22.999999999992653 -110.00000000000001,-110.99999999999265 101.99999999999999,-111.00000000000003" stroke="#128542" stroke-linecap="round" stroke-linejoin="round"/><polygon fill="#0192cb" fill-rule="evenodd" points="-229.0,4.0 -228.99999999999633,109.0 -453.99999999999636,109.00000000000786 -454.00000000000006,4.000000000007859 -229.00000000000006,3.999999999999978" stroke-linejoin="round"/><polyline fill="none" points="-229.0,4.0 -228.99999999999633,109.0 -453.99999999999636,109.00000000000786 -454.00000000000006,4.000000000007859 -229.00000000000006,3.999999999999978" stroke="#0192cb" stroke-linecap="round" stroke-linejoin="round"/><polygon fill="#dd2d26" fill-rule="evenodd" points="148.0,-338.0 148.00000000000318,-247.0 89.00000000000318,-246.99999999999793 88.99999999999999,-337.99999999999795 148.0,-338.00000000000006" stroke-linejoin="round"/><polyline fill="none" points="148.0,-338.0 148.00000000000318,-247.0 89.00000000000318,-246.99999999999793 88.99999999999999,-337.99999999999795 148.0,-338.00000000000006" stroke="#dd2d26" stroke-linecap="round" stroke-linejoin="round"/><polygon fill="#dd2d26" fill-rule="evenodd" points="31.0,-67.0 31.0000000000059,100.0 -92.9999999999941,100.00000000000439 -93.00000000000003,-66.99999999999561 30.99999999999997,-67.00000000000001" stroke-linejoin="round"/><polyline fill="none" points="31.0,-67.0 31.0000000000059,100.0 -92.9999999999941,100.00000000000439 -93.00000000000003,-66.99999999999561 30.99999999999997,-67.00000000000001" stroke="#dd2d26" stroke-linecap="round" stroke-linejoin="round"/><polygon fill="#0192cb" fill-rule="evenodd" points="-51.0,99.0 -50.999999999999645,109.0 -73.99999999999964,109.00000000000082 -74.0,99.00000000000082 -51.0,99.0" stroke-linejoin="round"/><polyline fill="none" points="-51.0,99.0 -50.999999999999645,109.0 -73.99999999999964,109.00000000000082 -74.0,99.00000000000082 -51.0,99.0" stroke="#0192cb" stroke-linecap="round" stroke-linejoin="round"/><polygon fill="#128542" fill-rule="evenodd" points="-41.0,-93.0 -40.999999999999105,-68.0 -219.9999999999991,-67.99999999999358 -220.0,-92.99999999999358 -41.0,-93.00000000000003" stroke-linejoin="round"/><polyline fill="none" points="-41.0,-93.0 -40.999999999999105,-68.0 -219.9999999999991,-67.99999999999358 -220.0,-92.99999999999358 -41.0,-93.00000000000003" stroke="#128542" stroke-linecap="round" stroke-linejoin="round"/><polygon fill="#0192cb" fill-rule="evenodd" points="68.0,-225.0 68.00000000000537,-76.0 17.00000000000537,-75.99999999999815 16.99999999999998,-224.99999999999815 67.99999999999997,-225.0" stroke-linejoin="round"/><polyline fill="none" points="68.0,-225.0 68.00000000000537,-76.0 17.00000000000537,-75.99999999999815 16.99999999999998,-224.99999999999815 67.99999999999997,-225.0" stroke="#0192cb" stroke-linecap="round" stroke-linejoin="round"/><polygon fill="#fff" fill-rule="evenodd" points="50.0,204.0 50.00000000000414,318.0 7.0000000000041425,318.0000000000016 6.999999999999989,204.0000000000016 49.999999999999986,204.00000000000003" stroke-linejoin="round"/><polyline fill="none" points="50.0,204.0 50.00000000000414,318.0 7.0000000000041425,318.0000000000016 6.999999999999989,204.0000000000016 49.999999999999986,204.00000000000003" stroke="#fff" stroke-linecap="round" stroke-linejoin="round"/><polygon fill="#dd2d26" fill-rule="evenodd" points="-97.0,53.0 -96.99999999999449,204.0 -234.9999999999945,204.00000000000506 -235.00000000000003,53.00000000000506 -97.00000000000003,52.999999999999986" stroke-linejoin="round"/><polyline fill="none" points="-97.0,53.0 -96.99999999999449,204.0 -234.9999999999945,204.00000000000506 -235.00000000000003,53.00000000000506 -97.00000000000003,52.999999999999986" stroke="#dd2d26" stroke-linecap="round" stroke-linejoin="round"/><polygon fill="#0192c9" fill-rule="evenodd" points="109.0,-137.0 109.00000000000578,20.0 -95.99999999999422,20.000000000007557 -96.00000000000001,-136.99999999999244 108.99999999999999,-137.00000000000003" stroke-linejoin="round"/><polyline fill="none" points="109.0,-137.0 109.00000000000578,20.0 -95.99999999999422,20.000000000007557 -96.00000000000001,-136.99999999999244 108.99999999999999,-137.00000000000003" stroke="#0192c9" stroke-linecap="round" stroke-linejoin="round"/><polygon fill="#eb1c24" fill-rule="evenodd" points="221.0,-123.0 221.00000000000207,-67.0 110.00000000000207,-66.99999999999588 110.0,-122.99999999999588 221.0,-123.00000000000001" stroke-linejoin="round"/><polyline fill="none" points="221.0,-123.0 221.00000000000207,-67.0 110.00000000000207,-66.99999999999588 110.0,-122.99999999999588 221.0,-123.00000000000001" stroke="#eb1c24" stroke-linecap="round" stroke-linejoin="round"/><polygon fill="#eb1c24" fill-rule="evenodd" points="-112.0,234.0 -111.99999999999213,445.0 -274.99999999999216,445.0000000000061 -275.00000000000006,234.00000000000608 -112.00000000000006,233.99999999999997" stroke-linejoin="round"/><polyline fill="none" points="-112.0,234.0 -111.99999999999213,445.0 -274.99999999999216,445.0000000000061 -275.00000000000006,234.00000000000608 -112.00000000000006,233.99999999999997" stroke="#eb1c24" stroke-linecap="round" stroke-linejoin="round"/><polygon fill="#fffeff" fill-rule="evenodd" points="-163.0,-19.0 -162.99999999999898,8.0 -178.99999999999898,8.000000000000602 -179.0,-18.999999999999396 -163.0,-19.0" stroke-linejoin="round"/><polyline fill="none" points="-163.0,-19.0 -162.99999999999898,8.0 -178.99999999999898,8.000000000000602 -179.0,-18.999999999999396 -163.0,-19.0" stroke="#fffeff" stroke-linecap="round" stroke-linejoin="round"/><polygon fill="#dd2d26" fill-rule="evenodd" points="-56.0,155.0 -55.99999999999335,331.0 -162.99999999999335,331.00000000000404 -163.00000000000003,155.00000000000404 -56.00000000000003,154.99999999999997" stroke-linejoin="round"/><polyline fill="none" points="-56.0,155.0 -55.99999999999335,331.0 -162.99999999999335,331.00000000000404 -163.00000000000003,155.00000000000404 -56.00000000000003,154.99999999999997" stroke="#dd2d26" stroke-linecap="round" stroke-linejoin="round"/><polygon fill="#fbec15" fill-rule="evenodd" points="192.0,-54.0 192.00000000000745,142.0 124.00000000000745,142.0000000000026 123.99999999999997,-53.999999999997414 191.99999999999997,-54.000000000000014" stroke-linejoin="round"/><polyline fill="none" points="192.0,-54.0 192.00000000000745,142.0 124.00000000000745,142.0000000000026 123.99999999999997,-53.999999999997414 191.99999999999997,-54.000000000000014" stroke="#fbec15" stroke-linecap="round" stroke-linejoin="round"/><polygon fill="#fbec15" fill-rule="evenodd" points="164.0,-301.0 164.00000000000355,-208.0 113.00000000000355,-207.99999999999804 112.99999999999999,-300.99999999999807 164.0,-301.00000000000006" stroke-linejoin="round"/><polyline fill="none" points="164.0,-301.0 164.00000000000355,-208.0 113.00000000000355,-207.99999999999804 112.99999999999999,-300.99999999999807 164.0,-301.00000000000006" stroke="#fbec15" stroke-linecap="round" stroke-linejoin="round"/><polygon fill="#ef5b2d" fill-rule="evenodd" points="-88.0,270.0 -87.99999999999842,311.0 -295.9999999999984,311.000000000008 -296.0,270.000000000008 -88.0,269.99999999999994" stroke-linejoin="round"/><polyline fill="none" points="-88.0,270.0 -87.99999999999842,311.0 -295.9999999999984,311.000000000008 -296.0,270.000000000008 -88.0,269.99999999999994" stroke="#ef5b2d" stroke-linecap="round" stroke-linejoin="round"/><polygon fill="#0192c9" fill-rule="evenodd" points="-229.0,-138.0 -228.999999999994,17.0 -270.999999999994,17.00000000000163 -271.0,-137.99999999999838 -229.0,-138.00000000000003" stroke-linejoin="round"/><polyline fill="none" points="-229.0,-138.0 -228.999999999994,17.0 -270.999999999994,17.00000000000163 -271.0,-137.99999999999838 -229.0,-138.00000000000003" stroke="#0192c9" stroke-linecap="round" stroke-linejoin="round"/><polygon fill="#231f20" fill-rule="evenodd" points="-242.0,224.0 -241.99999999999517,348.0 -384.99999999999517,348.00000000000557 -385.0,224.00000000000557 -242.0,223.99999999999997" stroke-linejoin="round"/><polyline fill="none" points="-242.0,224.0 -241.99999999999517,348.0 -384.99999999999517,348.00000000000557 -385.0,224.00000000000557 -242.0,223.99999999999997" stroke="#231f20" stroke-linecap="round" stroke-linejoin="round"/><polygon fill="#128542" fill-rule="evenodd" points="-72.0,255.0 -71.99999999999383,412.0 -128.99999999999383,412.0000000000022 -129.0,255.00000000000222 -72.0,254.99999999999997" stroke-linejoin="round"/><polyline fill="none" points="-72.0,255.0 -71.99999999999383,412.0 -128.99999999999383,412.0000000000022 -129.0,255.00000000000222 -72.0,254.99999999999997" stroke="#128542" stroke-linecap="round" stroke-linejoin="round"/><polygon fill="#939498" fill-rule="evenodd" points="1.0,71.0 1.0000000000083729,283.0 -120.99999999999163,283.00000000000483 -121.00000000000003,71.00000000000483 0.9999999999999716,70.99999999999999" stroke-linejoin="round"/><polyline fill="none" points="1.0,71.0 1.0000000000083729,283.0 -120.99999999999163,283.00000000000483 -121.00000000000003,71.00000000000483 0.9999999999999716,70.99999999999999" stroke="#939498" stroke-linecap="round" stroke-linejoin="round"/><polygon fill="#fbec15" fill-rule="evenodd" points="-143.0,-164.0 -142.99999999999608,-65.0 -322.9999999999961,-64.99999999999284 -323.0,-163.99999999999284 -143.0,-164.00000000000003" stroke-linejoin="round"/><polyline fill="none" points="-143.0,-164.0 -142.99999999999608,-65.0 -322.9999999999961,-64.99999999999284 -323.0,-163.99999999999284 -143.0,-164.00000000000003" stroke="#fbec15" stroke-linecap="round" stroke-linejoin="round"/><polygon fill="#ef5b2d" fill-rule="evenodd" points="114.0,244.0 114.00000000000676,413.0 20.000000000006764,413.00000000000375 19.999999999999986,244.00000000000375 113.99999999999999,243.99999999999997" stroke-linejoin="round"/><polyline fill="none" points="114.0,244.0 114.00000000000676,413.0 20.000000000006764,413.00000000000375 19.999999999999986,244.00000000000375 113.99999999999999,243.99999999999997" stroke="#ef5b2d" stroke-linecap="round" stroke-linejoin="round"/><polygon fill="#0192c9" fill-rule="evenodd" points="15.0,-129.0 15.000000000005713,13.0 -141.9999999999943,13.000000000006326 -142.00000000000003,-128.99999999999366 14.999999999999972,-129.0" stroke-linejoin="round"/><polyline fill="none" points="15.0,-129.0 15.000000000005713,13.0 -141.9999999999943,13.000000000006326 -142.00000000000003,-128.99999999999366 14.999999999999972,-129.0" stroke="#0192c9" stroke-linecap="round" stroke-linejoin="round"/><polygon fill="#fff" fill-rule="evenodd" points="-66.0,-46.0 -65.99999999999474,84.0 -169.99999999999474,84.00000000000422 -170.00000000000003,-45.99999999999578 -66.00000000000003,-46.00000000000001" stroke-linejoin="round"/><polyline fill="none" points="-66.0,-46.0 -65.99999999999474,84.0 -169.99999999999474,84.00000000000422 -170.00000000000003,-45.99999999999578 -66.00000000000003,-46.00000000000001" stroke="#fff" stroke-linecap="round" stroke-linejoin="round"/><polygon fill="#128542" fill-rule="evenodd" points="-169.0,33.0 -168.9999999999986,67.0 -383.99999999999864,67.00000000000877 -384.0,33.00000000000877 -169.0,32.99999999999997" stroke-linejoin="round"/><polyline fill="none" points="-169.0,33.0 -168.9999999999986,67.0 -383.99999999999864,67.00000000000877 -384.0,33.00000000000877 -169.0,32.99999999999997" stroke="#128542" stroke-linecap="round" stroke-linejoin="round"/><polygon fill="#fffeff" fill-rule="evenodd" points="139.0,113.0 139.00000000000549,247.0 -45.999999999994515,247.0000000000076 -46.00000000000002,113.00000000000759 138.99999999999997,112.99999999999997" stroke-linejoin="round"/><polyline fill="none" points="139.0,113.0 139.00000000000549,247.0 -45.999999999994515,247.0000000000076 -46.00000000000002,113.00000000000759 138.99999999999997,112.99999999999997" stroke="#fffeff" stroke-linecap="round" stroke-linejoin="round"/><polygon fill="#0192cb" fill-rule="evenodd" points="138.0,-56.0 138.00000000000415,45.0 -46.99999999999585,45.00000000000764 -47.00000000000003,-55.99999999999236 137.99999999999997,-56.00000000000002" stroke-linejoin="round"/><polyline fill="none" points="138.0,-56.0 138.00000000000415,45.0 -46.99999999999585,45.00000000000764 -47.00000000000003,-55.99999999999236 137.99999999999997,-56.00000000000002" stroke="#0192cb" stroke-linecap="round" stroke-linejoin="round"/><polygon fill="#128542" fill-rule="evenodd" points="4.0,255.0 4.000000000004353,360.0 -183.99999999999565,360.0000000000078 -184.00000000000003,255.0000000000078 3.9999999999999716,254.99999999999997" stroke-linejoin="round"/><polyline fill="none" points="4.0,255.0 4.000000000004353,360.0 -183.99999999999565,360.0000000000078 -184.00000000000003,255.0000000000078 3.9999999999999716,254.99999999999997" stroke="#128542" stroke-linecap="round" stroke-linejoin="round"/><polygon fill="#fff" fill-rule="evenodd" points="109.0,-9.0 109.0000000000013,22.0 19.000000000001293,22.00000000000376 18.999999999999996,-8.999999999996241 109.0,-9.00000000000001" stroke-linejoin="round"/><polyline fill="none" points="109.0,-9.0 109.0000000000013,22.0 19.000000000001293,22.00000000000376 18.999999999999996,-8.999999999996241 109.0,-9.00000000000001" stroke="#fff" stroke-linecap="round" stroke-linejoin="round"/><polygon fill="#0192cb" fill-rule="evenodd" points="-149.0,332.0 -148.99999999999216,519.0 -273.99999999999216,519.0000000000052 -274.0,332.00000000000523 -149.0,331.99999999999994" stroke-linejoin="round"/><polyline fill="none" points="-149.0,332.0 -148.99999999999216,519.0 -273.99999999999216,519.0000000000052 -274.0,332.00000000000523 -149.0,331.99999999999994" stroke="#0192cb" stroke-linecap="round" stroke-linejoin="round"/><polygon fill="#dd2d26" fill-rule="evenodd" points="227.0,-119.0 227.00000000000418,-20.0 149.00000000000418,-19.999999999996703 149.0,-118.9999999999967 227.0,-119.00000000000001" stroke-linejoin="round"/><polyline fill="none" points="227.0,-119.0 227.00000000000418,-20.0 149.00000000000418,-19.999999999996703 149.0,-118.9999999999967 227.0,-119.00000000000001" stroke="#dd2d26" stroke-linecap="round" stroke-linejoin="round"/><polygon fill="#0192cb" fill-rule="evenodd" points="195.0,-177.0 195.00000000000875,29.0 2.000000000008754,29.000000000008203 1.9999999999999873,-176.9999999999918 195.0,-177.0" stroke-linejoin="round"/><polyline fill="none" points="195.0,-177.0 195.00000000000875,29.0 2.000000000008754,29.000000000008203 1.9999999999999873,-176.9999999999918 195.0,-177.0" stroke="#0192cb" stroke-linecap="round" stroke-linejoin="round"/><polygon fill="#0192c9" fill-rule="evenodd" points="239.0,252.0 239.00000000000895,462.0 33.00000000000895,462.0000000000088 32.999999999999964,252.0000000000088 238.99999999999997,251.99999999999997" stroke-linejoin="round"/><polyline fill="none" points="239.0,252.0 239.00000000000895,462.0 33.00000000000895,462.0000000000088 32.999999999999964,252.0000000000088 238.99999999999997,251.99999999999997" stroke="#0192c9" stroke-linecap="round" stroke-linejoin="round"/><polygon fill="#939498" fill-rule="evenodd" points="170.0,-156.0 170.00000000000253,-97.0 36.00000000000253,-96.99999999999424 35.99999999999999,-155.99999999999426 170.0,-156.00000000000003" stroke-linejoin="round"/><polyline fill="none" points="170.0,-156.0 170.00000000000253,-97.0 36.00000000000253,-96.99999999999424 35.99999999999999,-155.99999999999426 170.0,-156.00000000000003" stroke="#939498" stroke-linecap="round" stroke-linejoin="round"/><polygon fill="#ef5b2d" fill-rule="evenodd" points="-202.0,325.0 -201.99999999999818,367.0 -252.99999999999818,367.0000000000022 -253.0,325.0000000000022 -202.0,325.0" stroke-linejoin="round"/><polyline fill="none" points="-202.0,325.0 -201.99999999999818,367.0 -252.99999999999818,367.0000000000022 -253.0,325.0000000000022 -202.0,325.0" stroke="#ef5b2d" stroke-linecap="round" stroke-linejoin="round"/><polygon fill="#ef5b2d" fill-rule="evenodd" points="140.0,226.0 140.00000000000273,289.0 121.00000000000273,289.00000000000085 120.99999999999999,226.00000000000085 140.0,226.00000000000003" stroke-linejoin="round"/><polyline fill="none" points="140.0,226.0 140.00000000000273,289.0 121.00000000000273,289.00000000000085 120.99999999999999,226.00000000000085 140.0,226.00000000000003" stroke="#ef5b2d" stroke-linecap="round" stroke-linejoin="round"/><polygon fill="#128542" fill-rule="evenodd" points="-245.0,315.0 -244.99999999999713,381.0 -306.99999999999716,381.00000000000273 -307.00000000000006,315.00000000000273 -245.00000000000006,315.0" stroke-linejoin="round"/><polyline fill="none" points="-245.0,315.0 -244.99999999999713,381.0 -306.99999999999716,381.00000000000273 -307.00000000000006,315.00000000000273 -245.00000000000006,315.0" stroke="#128542" stroke-linecap="round" stroke-linejoin="round"/><polygon fill="#dd2d26" fill-rule="evenodd" points="-101.0,-21.0 -100.99999999999956,-11.0 -114.99999999999956,-10.999999999999385 -115.0,-20.999999999999385 -101.0,-21.000000000000004" stroke-linejoin="round"/><polyline fill="none" points="-101.0,-21.0 -100.99999999999956,-11.0 -114.99999999999956,-10.999999999999385 -115.0,-20.999999999999385 -101.0,-21.000000000000004" stroke="#dd2d26" stroke-linecap="round" stroke-linejoin="round"/><polygon fill="#dd2d26" fill-rule="evenodd" points="-91.0,-1.0 -90.99999999999925,16.0 -228.99999999999926,16.0000000000061 -229.0,-0.9999999999939 -91.0,-1.0000000000000178" stroke-linejoin="round"/><polyline fill="none" points="-91.0,-1.0 -90.99999999999925,16.0 -228.99999999999926,16.0000000000061 -229.0,-0.9999999999939 -91.0,-1.0000000000000178" stroke="#dd2d26" stroke-linecap="round" stroke-linejoin="round"/><polygon fill="#0192c9" fill-rule="evenodd" points="8.0,-116.0 8.000000000005327,4.0 -106.99999999999467,4.000000000005112 -107.00000000000001,-115.99999999999488 7.999999999999986,-116.00000000000001" stroke-linejoin="round"/><polyline fill="none" points="8.0,-116.0 8.000000000005327,4.0 -106.99999999999467,4.000000000005112 -107.00000000000001,-115.99999999999488 7.999999999999986,-116.00000000000001" stroke="#0192c9" stroke-linecap="round" stroke-linejoin="round"/><polygon fill="#128542" fill-rule="evenodd" points="114.0,337.0 114.00000000000085,356.0 -31.999999999999147,356.00000000000654 -31.999999999999996,337.00000000000654 114.0,337.0" stroke-linejoin="round"/><polyline fill="none" points="114.0,337.0 114.00000000000085,356.0 -31.999999999999147,356.00000000000654 -31.999999999999996,337.00000000000654 114.0,337.0" stroke="#128542" stroke-linecap="round" stroke-linejoin="round"/><polygon fill="#128542" fill-rule="evenodd" points="-93.0,-289.0 -92.99999999999721,-227.0 -247.99999999999721,-226.99999999999304 -248.0,-288.99999999999307 -93.0,-289.00000000000006" stroke-linejoin="round"/><polyline fill="none" points="-93.0,-289.0 -92.99999999999721,-227.0 -247.99999999999721,-226.99999999999304 -248.0,-288.99999999999307 -93.0,-289.00000000000006" stroke="#128542" stroke-linecap="round" stroke-linejoin="round"/><polygon fill="#eb1c24" fill-rule="evenodd" points="167.0,-203.0 167.00000000000355,-124.0 -48.99999999999645,-123.99999999999024 -49.00000000000002,-202.99999999999022 166.99999999999997,-203.0" stroke-linejoin="round"/><polyline fill="none" points="167.0,-203.0 167.00000000000355,-124.0 -48.99999999999645,-123.99999999999024 -49.00000000000002,-202.99999999999022 166.99999999999997,-203.0" stroke="#eb1c24" stroke-linecap="round" stroke-linejoin="round"/><polygon fill="#0192cb" fill-rule="evenodd" points="230.0,239.0 230.00000000000958,450.0 164.00000000000958,450.000000000003 163.99999999999997,239.000000000003 229.99999999999997,239.0" stroke-linejoin="round"/><polyline fill="none" points="230.0,239.0 230.00000000000958,450.0 164.00000000000958,450.000000000003 163.99999999999997,239.000000000003 229.99999999999997,239.0" stroke="#0192cb" stroke-linecap="round" stroke-linejoin="round"/><polygon fill="#dd2d26" fill-rule="evenodd" points="-66.0,-109.0 -65.99999999999713,-46.0 -166.99999999999713,-45.99999999999539 -167.0,-108.9999999999954 -66.0,-109.00000000000003" stroke-linejoin="round"/><polyline fill="none" points="-66.0,-109.0 -65.99999999999713,-46.0 -166.99999999999713,-45.99999999999539 -167.0,-108.9999999999954 -66.0,-109.00000000000003" stroke="#dd2d26" stroke-linecap="round" stroke-linejoin="round"/><polygon fill="#ef5b2d" fill-rule="evenodd" points="-193.0,-163.0 -192.99999999999056,43.0 -381.99999999999056,43.00000000000868 -382.00000000000006,-162.9999999999913 -193.00000000000006,-163.0" stroke-linejoin="round"/><polyline fill="none" points="-193.0,-163.0 -192.99999999999056,43.0 -381.99999999999056,43.00000000000868 -382.00000000000006,-162.9999999999913 -193.00000000000006,-163.0" stroke="#ef5b2d" stroke-linecap="round" stroke-linejoin="round"/><polygon fill="#231f20" fill-rule="evenodd" points="-131.0,-252.0 -130.99999999998963,-27.0 -180.99999999998963,-26.99999999999769 -181.00000000000003,-251.9999999999977 -131.00000000000003,-252.0" stroke-linejoin="round"/><polyline fill="none" points="-131.0,-252.0 -130.99999999998963,-27.0 -180.99999999998963,-26.99999999999769 -181.00000000000003,-251.9999999999977 -131.00000000000003,-252.0" stroke="#231f20" stroke-linecap="round" stroke-linejoin="round"/><polygon fill="#128542" fill-rule="evenodd" points="201.0,-179.0 201.00000000000108,-156.0 66.00000000000108,-155.99999999999375 66.00000000000001,-178.99999999999375 201.0,-179.00000000000003" stroke-linejoin="round"/><polyline fill="none" points="201.0,-179.0 201.00000000000108,-156.0 66.00000000000108,-155.99999999999375 66.00000000000001,-178.99999999999375 201.0,-179.00000000000003" stroke="#128542" stroke-linecap="round" stroke-linejoin="round"/><polygon fill="#128542" fill-rule="evenodd" points="226.0,45.0 226.00000000000125,72.0 18.00000000000125,72.0000000000097 17.99999999999999,45.000000000009706 226.0,44.99999999999998" stroke-linejoin="round"/><polyline fill="none" points="226.0,45.0 226.00000000000125,72.0 18.00000000000125,72.0000000000097 17.99999999999999,45.000000000009706 226.0,44.99999999999998" stroke="#128542" stroke-linecap="round" stroke-linejoin="round"/><polygon fill="#fff" fill-rule="evenodd" points="-109.0,279.0 -108.99999999999105,470.0 -236.99999999999105,470.000000000006 -237.00000000000003,279.000000000006 -109.00000000000003,279.0" stroke-linejoin="round"/><polyline fill="none" points="-109.0,279.0 -108.99999999999105,470.0 -236.99999999999105,470.000000000006 -237.00000000000003,279.000000000006 -109.00000000000003,279.0" stroke="#fff" stroke-linecap="round" stroke-linejoin="round"/><polygon fill="#0192c9" fill-rule="evenodd" points="107.0,318.0 107.00000000000212,363.0 92.00000000000212,363.0000000000007 92.0,318.0000000000007 107.0,318.0" stroke-linejoin="round"/><polyline fill="none" points="107.0,318.0 107.00000000000212,363.0 92.00000000000212,363.0000000000007 92.0,318.0000000000007 107.0,318.0" stroke="#0192c9" stroke-linecap="round" stroke-linejoin="round"/><polygon fill="#0192cb" fill-rule="evenodd" points="119.0,-339.0 119.00000000000321,-271.0 -18.99999999999679,-270.99999999999346 -19.000000000000014,-338.99999999999346 118.99999999999999,-339.0" stroke-linejoin="round"/><polyline fill="none" points="119.0,-339.0 119.00000000000321,-271.0 -18.99999999999679,-270.99999999999346 -19.000000000000014,-338.99999999999346 118.99999999999999,-339.0" stroke="#0192cb" stroke-linecap="round" stroke-linejoin="round"/><polygon fill="#fffeff" fill-rule="evenodd" points="-1.0,291.0 -0.9999999999918643,462.0 -84.99999999999187,462.000000000004 -85.00000000000003,291.000000000004 -1.0000000000000284,290.99999999999994" stroke-linejoin="round"/><polyline fill="none" points="-1.0,291.0 -0.9999999999918643,462.0 -84.99999999999187,462.000000000004 -85.00000000000003,291.000000000004 -1.0000000000000284,290.99999999999994" stroke="#fffeff" stroke-linecap="round" stroke-linejoin="round"/><polygon fill="#f8e817" fill-rule="evenodd" points="56.0,248.0 56.00000000000612,376.0 -30.999999999993882,376.00000000000415 -31.000000000000018,248.00000000000415 55.999999999999986,247.99999999999997" stroke-linejoin="round"/><polyline fill="none" points="56.0,248.0 56.00000000000612,376.0 -30.999999999993882,376.00000000000415 -31.000000000000018,248.00000000000415 55.999999999999986,247.99999999999997" stroke="#f8e817" stroke-linecap="round" stroke-linejoin="round"/><polygon fill="#f8e817" fill-rule="evenodd" points="-77.0,-169.0 -76.99999999999496,-64.0 -121.99999999999496,-63.99999999999783 -122.00000000000001,-168.99999999999784 -77.00000000000001,-169.0" stroke-linejoin="round"/><polyline fill="none" points="-77.0,-169.0 -76.99999999999496,-64.0 -121.99999999999496,-63.99999999999783 -122.00000000000001,-168.99999999999784 -77.00000000000001,-169.0" stroke="#f8e817" stroke-linecap="round" stroke-linejoin="round"/><polygon fill="#0192cb" fill-rule="evenodd" points="244.0,-119.0 244.00000000000682,22.0 78.00000000000682,22.00000000000803 77.99999999999999,-118.99999999999197 244.0,-119.00000000000001" stroke-linejoin="round"/><polyline fill="none" points="244.0,-119.0 244.00000000000682,22.0 78.00000000000682,22.00000000000803 77.99999999999999,-118.99999999999197 244.0,-119.00000000000001" stroke="#0192cb" stroke-linecap="round" stroke-linejoin="round"/><polygon fill="#dd2d26" fill-rule="evenodd" points="-4.0,-199.0 -3.9999999999980576,-159.0 -149.99999999999807,-158.9999999999929 -150.00000000000003,-198.9999999999929 -4.000000000000028,-199.0" stroke-linejoin="round"/><polyline fill="none" points="-4.0,-199.0 -3.9999999999980576,-159.0 -149.99999999999807,-158.9999999999929 -150.00000000000003,-198.9999999999929 -4.000000000000028,-199.0" stroke="#dd2d26" stroke-linecap="round" stroke-linejoin="round"/><polygon fill="#f8e817" fill-rule="evenodd" points="87.0,-34.0 87.00000000000752,120.0 -38.99999999999248,120.00000000000615 -39.000000000000014,-33.99999999999385 86.99999999999999,-34.00000000000002" stroke-linejoin="round"/><polyline fill="none" points="87.0,-34.0 87.00000000000752,120.0 -38.99999999999248,120.00000000000615 -39.000000000000014,-33.99999999999385 86.99999999999999,-34.00000000000002" stroke="#f8e817" stroke-linecap="round" stroke-linejoin="round"/><polyline fill="none" points="-475.0,575.0 475.0,574.9999999999535 474.9999999999437,-575.0000000000465 -475.0000000000563,-575.0000000000001 -475.00000000000017,574.9999999999999" stroke="#fff" stroke-linecap="round" stroke-linejoin="round" stroke-width="450.0"/></svg>