<?xml version="1.0" ?><!DOCTYPE svg  PUBLIC '-//W3C//DTD SVG 1.1//EN'  'http://www.w3.org/Graphics/SVG/1.1/DTD/svg11.dtd'><svg height="2121.000" viewBox="-1060.000 -1060.000 2121.000 2121.000" width="2121.000" xmlns="http://www.w3.org/2000/svg"><line fill="none" stroke="none" stroke-linecap="round" stroke-width="2.0" x1="0.0" x2="0.0" y1="0.0" y2="0.0"/><line fill="none" stroke="none" stroke-linecap="round" stroke-width="2.0" x1="0.0" x2="0.0" y1="0.0" y2="0.0"/><line fill="none" stroke="none" stroke-linecap="round" stroke-width="2.0" x1="0.0" x2="0.0" y1="0.0" y2="0.0"/><line fill="none" stroke="none" stroke-linecap="round" stroke-width="2.0" x1="0.0" x2="0.0" y1="0.0" y2="0.0"/><line fill="none" stroke="none" stroke-linecap="round" stroke-width="2.0" x1="0.0" x2="0.0" y1="0.0" y2="0.0"/><line fill="none" stroke="none" stroke-linecap="round" stroke-width="2.0" x1="0.0" x2="0.0" y1="0.0" y2="0.0"/><line fill="none" stroke="none" stroke-linecap="round" stroke-width="2.0" x1="0.0" x2="0.0" y1="0.0" y2="0.0"/><polygon fill="none" fill-rule="evenodd" points="0.0,0.0 0.0,0.0 0.0,0.0" stroke-linejoin="round"/><line fill="none" stroke="none" stroke-linecap="round" stroke-width="2.0" x1="0.0" x2="0.0" y1="0.0" y2="0.0"/><polygon fill="none" fill-rule="evenodd" points="0.0,0.0 0.0,0.0 0.0,0.0" stroke-linejoin="round"/><line fill="none" stroke="none" stroke-linecap="round" stroke-width="2.0" x1="0.0" x2="0.0" y1="0.0" y2="0.0"/><polygon fill="none" fill-rule="evenodd" points="0.0,0.0 0.0,0.0 0.0,0.0" stroke-linejoin="round"/><line fill="none" stroke="none" stroke-linecap="round" stroke-width="2.0" x1="0.0" x2="0.0" y1="0.0" y2="0.0"/><polygon fill="none" fill-rule="evenodd" points="0.0,0.0 0.0,0.0 0.0,0.0" stroke-linejoin="round"/><line fill="none" stroke="none" stroke-linecap="round" stroke-width="2.0" x1="0.0" x2="0.0" y1="0.0" y2="0.0"/><polygon fill="none" fill-rule="evenodd" points="0.0,0.0 0.0,0.0 0.0,0.0" stroke-linejoin="round"/><polygon fill="none" fill-rule="evenodd" points="0.0,0.0 0.0,0.0 0.0,0.0" stroke-linejoin="round"/><polygon fill="#fffeff" fill-rule="evenodd" points="-136.0,-262.0 -136.0,-40.0 -265.0,-39.999999999999986 -265.00000000000006,-262.0 -136.00000000000006,-262.00000000000006" stroke-linejoin="round"/><polyline fill="none" points="-136.0,-262.0 -136.0,-40.0 -265.0,-39.999999999999986 -265.00000000000006,-262.0 -136.00000000000006,-262.00000000000006" stroke="#fffeff" stroke-linecap="round" stroke-linejoin="round"/><polygon fill="#128542" fill-rule="evenodd" points="-318.0,397.0 -317.99999999999994,558.0 -439.99999999999994,558.0 -440.0,397.0 -318.0,396.99999999999994" stroke-linejoin="round"/><polyline fill="none" points="-318.0,397.0 -317.99999999999994,558.0 -439.99999999999994,558.0 -440.0,397.0 -318.0,396.99999999999994" stroke="#128542" stroke-linecap="round" stroke-linejoin="round"/><polygon fill="#dd2d26" fill-rule="evenodd" points="29.0,-241.0 29.000000000000068,-120.0 -72.99999999999993,-119.99999999999994 -73.00000000000001,-240.99999999999994 28.999999999999986,-241.00000000000003" stroke-linejoin="round"/><polyline fill="none" points="29.0,-241.0 29.000000000000068,-120.0 -72.99999999999993,-119.99999999999994 -73.00000000000001,-240.99999999999994 28.999999999999986,-241.00000000000003" stroke="#dd2d26" stroke-linecap="round" stroke-linejoin="round"/><polygon fill="#ef5b2d" fill-rule="evenodd" points="-395.0,343.0 -394.99999999999994,383.0 -413.99999999999994,383.0 -414.0,343.0 -395.0,343.0" stroke-linejoin="round"/><polyline fill="none" points="-395.0,343.0 -394.99999999999994,383.0 -413.99999999999994,383.0 -414.0,343.0 -395.0,343.0" stroke="#ef5b2d" stroke-linecap="round" stroke-linejoin="round"/><polygon fill="#0192cb" fill-rule="evenodd" points="-353.0,-226.0 -352.9999999999998,-3.0 -441.9999999999998,-2.999999999999902 -442.00000000000006,-225.99999999999991 -353.00000000000006,-226.00000000000003" stroke-linejoin="round"/><polyline fill="none" points="-353.0,-226.0 -352.9999999999998,-3.0 -441.9999999999998,-2.999999999999902 -442.00000000000006,-225.99999999999991 -353.00000000000006,-226.00000000000003" stroke="#0192cb" stroke-linecap="round" stroke-linejoin="round"/><polygon fill="#128542" fill-rule="evenodd" points="-311.0,-322.0 -311.0,-301.0 -379.0,-300.9999999999999 -379.00000000000006,-321.9999999999999 -311.00000000000006,-322.0" stroke-linejoin="round"/><polyline fill="none" points="-311.0,-322.0 -311.0,-301.0 -379.0,-300.9999999999999 -379.00000000000006,-321.9999999999999 -311.00000000000006,-322.0" stroke="#128542" stroke-linecap="round" stroke-linejoin="round"/><polygon fill="#128542" fill-rule="evenodd" points="15.0,-236.0 15.000000000000258,-68.0 -15.999999999999742,-67.99999999999996 -16.00000000000002,-235.99999999999994 14.999999999999979,-236.0" stroke-linejoin="round"/><polyline fill="none" points="15.0,-236.0 15.000000000000258,-68.0 -15.999999999999742,-67.99999999999996 -16.00000000000002,-235.99999999999994 14.999999999999979,-236.0" stroke="#128542" stroke-linecap="round" stroke-linejoin="round"/><polygon fill="#939498" fill-rule="evenodd" points="119.0,-254.0 119.00000000000017,-161.0 -40.99999999999983,-160.99999999999972 -41.00000000000001,-253.99999999999972 119.0,-254.00000000000003" stroke-linejoin="round"/><polyline fill="none" points="119.0,-254.0 119.00000000000017,-161.0 -40.99999999999983,-160.99999999999972 -41.00000000000001,-253.99999999999972 119.0,-254.00000000000003" stroke="#939498" stroke-linecap="round" stroke-linejoin="round"/><polygon fill="#eb1c24" fill-rule="evenodd" points="329.0,282.0 329.00000000000034,462.0 156.00000000000034,462.00000000000034 155.99999999999994,282.00000000000034 328.99999999999994,281.99999999999994" stroke-linejoin="round"/><polyline fill="none" points="329.0,282.0 329.00000000000034,462.0 156.00000000000034,462.00000000000034 155.99999999999994,282.00000000000034 328.99999999999994,281.99999999999994" stroke="#eb1c24" stroke-linecap="round" stroke-linejoin="round"/><polygon fill="#f8e817" fill-rule="evenodd" points="274.0,-173.0 274.00000000000045,28.0 198.00000000000045,28.000000000000178 197.99999999999997,-172.99999999999983 274.0,-173.00000000000003" stroke-linejoin="round"/><polyline fill="none" points="274.0,-173.0 274.00000000000045,28.0 198.00000000000045,28.000000000000178 197.99999999999997,-172.99999999999983 274.0,-173.00000000000003" stroke="#f8e817" stroke-linecap="round" stroke-linejoin="round"/><polygon fill="#dd2d26" fill-rule="evenodd" points="-70.0,351.0 -69.99999999999963,497.0 -116.99999999999963,497.0000000000001 -117.00000000000001,351.0000000000001 -70.00000000000001,351.0" stroke-linejoin="round"/><polyline fill="none" points="-70.0,351.0 -69.99999999999963,497.0 -116.99999999999963,497.0000000000001 -117.00000000000001,351.0000000000001 -70.00000000000001,351.0" stroke="#dd2d26" stroke-linecap="round" stroke-linejoin="round"/><polygon fill="#eb1c24" fill-rule="evenodd" points="349.0,-314.0 349.00000000000034,-187.0 177.00000000000034,-186.99999999999952 176.99999999999997,-313.99999999999955 349.0,-314.00000000000006" stroke-linejoin="round"/><polyline fill="none" points="349.0,-314.0 349.00000000000034,-187.0 177.00000000000034,-186.99999999999952 176.99999999999997,-313.99999999999955 349.0,-314.00000000000006" stroke="#eb1c24" stroke-linecap="round" stroke-linejoin="round"/><polygon fill="#939498" fill-rule="evenodd" points="7.0,64.0 7.000000000000411,201.0 -61.99999999999959,201.0000000000002 -62.000000000000014,64.0000000000002 6.999999999999986,63.99999999999998" stroke-linejoin="round"/><polyline fill="none" points="7.0,64.0 7.000000000000411,201.0 -61.99999999999959,201.0000000000002 -62.000000000000014,64.0000000000002 6.999999999999986,63.99999999999998" stroke="#939498" stroke-linecap="round" stroke-linejoin="round"/><polygon fill="#231f20" fill-rule="evenodd" points="-6.0,397.0 -5.999999999999929,419.0 -24.99999999999993,419.00000000000006 -25.000000000000004,397.00000000000006 -6.0000000000000036,397.0" stroke-linejoin="round"/><polyline fill="none" points="-6.0,397.0 -5.999999999999929,419.0 -24.99999999999993,419.00000000000006 -25.000000000000004,397.00000000000006 -6.0000000000000036,397.0" stroke="#231f20" stroke-linecap="round" stroke-linejoin="round"/><polygon fill="#0192cb" fill-rule="evenodd" points="-379.0,-348.0 -378.99999999999966,-258.0 -521.9999999999997,-257.9999999999995 -522.0,-347.9999999999995 -379.0,-348.0" stroke-linejoin="round"/><polyline fill="none" points="-379.0,-348.0 -378.99999999999966,-258.0 -521.9999999999997,-257.9999999999995 -522.0,-347.9999999999995 -379.0,-348.0" stroke="#0192cb" stroke-linecap="round" stroke-linejoin="round"/><polygon fill="#fff" fill-rule="evenodd" points="332.0,298.0 332.0000000000007,477.0 127.00000000000068,477.0000000000008 126.99999999999999,298.0000000000008 332.0,298.0" stroke-linejoin="round"/><polyline fill="none" points="332.0,298.0 332.0000000000007,477.0 127.00000000000068,477.0000000000008 126.99999999999999,298.0000000000008 332.0,298.0" stroke="#fff" stroke-linecap="round" stroke-linejoin="round"/><polygon fill="#0192cb" fill-rule="evenodd" points="212.0,292.0 212.00000000000082,501.0 195.00000000000082,501.00000000000006 194.99999999999997,292.00000000000006 211.99999999999997,292.0" stroke-linejoin="round"/><polyline fill="none" points="212.0,292.0 212.00000000000082,501.0 195.00000000000082,501.00000000000006 194.99999999999997,292.00000000000006 211.99999999999997,292.0" stroke="#0192cb" stroke-linecap="round" stroke-linejoin="round"/><polygon fill="#eb1c24" fill-rule="evenodd" points="2.0,226.0 2.0000000000004015,321.0 -207.9999999999996,321.0000000000009 -208.00000000000003,226.0000000000009 1.9999999999999716,225.99999999999997" stroke-linejoin="round"/><polyline fill="none" points="2.0,226.0 2.0000000000004015,321.0 -207.9999999999996,321.0000000000009 -208.00000000000003,226.0000000000009 1.9999999999999716,225.99999999999997" stroke="#eb1c24" stroke-linecap="round" stroke-linejoin="round"/><polygon fill="#eb1c24" fill-rule="evenodd" points="196.0,71.0 196.0000000000002,114.0 33.0000000000002,114.00000000000074 33.0,71.00000000000074 196.0,70.99999999999999" stroke-linejoin="round"/><polyline fill="none" points="196.0,71.0 196.0000000000002,114.0 33.0000000000002,114.00000000000074 33.0,71.00000000000074 196.0,70.99999999999999" stroke="#eb1c24" stroke-linecap="round" stroke-linejoin="round"/><polygon fill="#dd2d26" fill-rule="evenodd" points="152.0,-164.0 152.00000000000034,-89.0 35.00000000000034,-88.99999999999945 34.99999999999998,-163.99999999999943 151.99999999999997,-164.0" stroke-linejoin="round"/><polyline fill="none" points="152.0,-164.0 152.00000000000034,-89.0 35.00000000000034,-88.99999999999945 34.99999999999998,-163.99999999999943 151.99999999999997,-164.0" stroke="#dd2d26" stroke-linecap="round" stroke-linejoin="round"/><polygon fill="#0192cb" fill-rule="evenodd" points="-11.0,188.0 -10.999999999999197,350.0 -221.9999999999992,350.0000000000011 -222.00000000000003,188.00000000000108 -11.000000000000028,188.0" stroke-linejoin="round"/><polyline fill="none" points="-11.0,188.0 -10.999999999999197,350.0 -221.9999999999992,350.0000000000011 -222.00000000000003,188.00000000000108 -11.000000000000028,188.0" stroke="#0192cb" stroke-linecap="round" stroke-linejoin="round"/><polygon fill="#0192cb" fill-rule="evenodd" points="361.0,-332.0 361.00000000000114,-118.0 326.00000000000114,-117.99999999999982 326.0,-331.99999999999983 361.0,-332.0" stroke-linejoin="round"/><polyline fill="none" points="361.0,-332.0 361.00000000000114,-118.0 326.00000000000114,-117.99999999999982 326.0,-331.99999999999983 361.0,-332.0" stroke="#0192cb" stroke-linecap="round" stroke-linejoin="round"/><polygon fill="#ef5b2d" fill-rule="evenodd" points="-69.0,277.0 -68.99999999999925,416.0 -245.99999999999926,416.00000000000097 -246.00000000000003,277.00000000000097 -69.00000000000003,276.99999999999994" stroke-linejoin="round"/><polyline fill="none" points="-69.0,277.0 -68.99999999999925,416.0 -245.99999999999926,416.00000000000097 -246.00000000000003,277.00000000000097 -69.00000000000003,276.99999999999994" stroke="#ef5b2d" stroke-linecap="round" stroke-linejoin="round"/><polygon fill="#fff" fill-rule="evenodd" points="-346.0,58.0 -345.99999999999966,113.0 -531.9999999999997,113.00000000000107 -532.0,58.000000000001066 -346.0,57.99999999999997" stroke-linejoin="round"/><polyline fill="none" points="-346.0,58.0 -345.99999999999966,113.0 -531.9999999999997,113.00000000000107 -532.0,58.000000000001066 -346.0,57.99999999999997" stroke="#fff" stroke-linecap="round" stroke-linejoin="round"/><polygon fill="#fff" fill-rule="evenodd" points="-154.0,-219.0 -153.99999999999915,-75.0 -252.99999999999915,-74.9999999999994 -253.00000000000003,-218.9999999999994 -154.00000000000003,-219.0" stroke-linejoin="round"/><polyline fill="none" points="-154.0,-219.0 -153.99999999999915,-75.0 -252.99999999999915,-74.9999999999994 -253.00000000000003,-218.9999999999994 -154.00000000000003,-219.0" stroke="#fff" stroke-linecap="round" stroke-linejoin="round"/><polygon fill="#fff" fill-rule="evenodd" points="67.0,-249.0 67.00000000000068,-138.0 -124.99999999999932,-137.9999999999988 -125.00000000000001,-248.9999999999988 66.99999999999999,-249.00000000000003" stroke-linejoin="round"/><polyline fill="none" points="67.0,-249.0 67.00000000000068,-138.0 -124.99999999999932,-137.9999999999988 -125.00000000000001,-248.9999999999988 66.99999999999999,-249.00000000000003" stroke="#fff" stroke-linecap="round" stroke-linejoin="round"/><polygon fill="#dd2d26" fill-rule="evenodd" points="-31.0,51.0 -30.999999999998554,276.0 -159.99999999999855,276.00000000000085 -160.00000000000003,51.00000000000085 -31.00000000000003,51.0" stroke-linejoin="round"/><polyline fill="none" points="-31.0,51.0 -30.999999999998554,276.0 -159.99999999999855,276.00000000000085 -160.00000000000003,51.00000000000085 -31.00000000000003,51.0" stroke="#dd2d26" stroke-linecap="round" stroke-linejoin="round"/><polygon fill="#231f20" fill-rule="evenodd" points="372.0,-249.0 372.00000000000045,-178.0 318.00000000000045,-177.99999999999963 318.0,-248.99999999999963 372.0,-249.0" stroke-linejoin="round"/><polyline fill="none" points="372.0,-249.0 372.00000000000045,-178.0 318.00000000000045,-177.99999999999963 318.0,-248.99999999999963 372.0,-249.0" stroke="#231f20" stroke-linecap="round" stroke-linejoin="round"/><polygon fill="#ef5b2d" fill-rule="evenodd" points="16.0,400.0 16.000000000000416,460.0 -135.99999999999957,460.0000000000011 -136.0,400.0000000000011 16.0,400.0" stroke-linejoin="round"/><polyline fill="none" points="16.0,400.0 16.000000000000416,460.0 -135.99999999999957,460.0000000000011 -136.0,400.0000000000011 16.0,400.0" stroke="#ef5b2d" stroke-linecap="round" stroke-linejoin="round"/><polygon fill="#fff" fill-rule="evenodd" points="116.0,-400.0 116.0000000000012,-234.0 91.0000000000012,-233.99999999999983 90.99999999999999,-399.99999999999983 115.99999999999999,-400.0" stroke-linejoin="round"/><polyline fill="none" points="116.0,-400.0 116.0000000000012,-234.0 91.0000000000012,-233.99999999999983 90.99999999999999,-399.99999999999983 115.99999999999999,-400.0" stroke="#fff" stroke-linecap="round" stroke-linejoin="round"/><polygon fill="#eb1c24" fill-rule="evenodd" points="-328.0,248.0 -327.99999999999875,419.0 -518.9999999999987,419.0000000000014 -519.0,248.00000000000142 -328.0,247.99999999999997" stroke-linejoin="round"/><polyline fill="none" points="-328.0,248.0 -327.99999999999875,419.0 -518.9999999999987,419.0000000000014 -519.0,248.00000000000142 -328.0,247.99999999999997" stroke="#eb1c24" stroke-linecap="round" stroke-linejoin="round"/><polygon fill="#f8e817" fill-rule="evenodd" points="173.0,376.0 173.0000000000006,454.0 52.0000000000006,454.0000000000009 51.99999999999999,376.0000000000009 173.0,375.99999999999994" stroke-linejoin="round"/><polyline fill="none" points="173.0,376.0 173.0000000000006,454.0 52.0000000000006,454.0000000000009 51.99999999999999,376.0000000000009 173.0,375.99999999999994" stroke="#f8e817" stroke-linecap="round" stroke-linejoin="round"/><polygon fill="#231f20" fill-rule="evenodd" points="57.0,-135.0 57.00000000000148,52.0 -8.999999999998522,52.000000000000526 -9.000000000000021,-134.9999999999995 56.99999999999998,-135.00000000000003" stroke-linejoin="round"/><polyline fill="none" points="57.0,-135.0 57.00000000000148,52.0 -8.999999999998522,52.000000000000526 -9.000000000000021,-134.9999999999995 56.99999999999998,-135.00000000000003" stroke="#231f20" stroke-linecap="round" stroke-linejoin="round"/><polygon fill="#939498" fill-rule="evenodd" points="-144.0,-76.0 -143.9999999999984,119.0 -205.9999999999984,119.00000000000051 -206.00000000000003,-75.99999999999949 -144.00000000000003,-76.0" stroke-linejoin="round"/><polyline fill="none" points="-144.0,-76.0 -143.9999999999984,119.0 -205.9999999999984,119.00000000000051 -206.00000000000003,-75.99999999999949 -144.00000000000003,-76.0" stroke="#939498" stroke-linecap="round" stroke-linejoin="round"/><polygon fill="#dd2d26" fill-rule="evenodd" points="192.0,-155.0 192.0000000000005,-95.0 161.0000000000005,-94.99999999999974 161.0,-154.99999999999974 192.0,-155.0" stroke-linejoin="round"/><polyline fill="none" points="192.0,-155.0 192.0000000000005,-95.0 161.0000000000005,-94.99999999999974 161.0,-154.99999999999974 192.0,-155.0" stroke="#dd2d26" stroke-linecap="round" stroke-linejoin="round"/><polygon fill="#939498" fill-rule="evenodd" points="-7.0,387.0 -6.999999999998869,518.0 -158.99999999999886,518.0000000000014 -159.0,387.00000000000136 -7.0,387.0" stroke-linejoin="round"/><polyline fill="none" points="-7.0,387.0 -6.999999999998869,518.0 -158.99999999999886,518.0000000000014 -159.0,387.00000000000136 -7.0,387.0" stroke="#939498" stroke-linecap="round" stroke-linejoin="round"/><polygon fill="#0192cb" fill-rule="evenodd" points="233.0,373.0 233.0000000000008,462.0 13.000000000000796,462.000000000002 12.999999999999995,373.000000000002 233.0,373.0" stroke-linejoin="round"/><polyline fill="none" points="233.0,373.0 233.0000000000008,462.0 13.000000000000796,462.000000000002 12.999999999999995,373.000000000002 233.0,373.0" stroke="#0192cb" stroke-linecap="round" stroke-linejoin="round"/><polygon fill="#128542" fill-rule="evenodd" points="31.0,21.0 31.00000000000185,224.0 -123.99999999999815,224.00000000000142 -124.00000000000003,21.00000000000142 30.99999999999997,20.99999999999998" stroke-linejoin="round"/><polyline fill="none" points="31.0,21.0 31.00000000000185,224.0 -123.99999999999815,224.00000000000142 -124.00000000000003,21.00000000000142 30.99999999999997,20.99999999999998" stroke="#128542" stroke-linecap="round" stroke-linejoin="round"/><polygon fill="#939498" fill-rule="evenodd" points="-186.0,-124.0 -185.99999999999957,-80.0 -308.99999999999955,-79.99999999999883 -308.99999999999994,-123.99999999999883 -185.99999999999994,-124.00000000000001" stroke-linejoin="round"/><polyline fill="none" points="-186.0,-124.0 -185.99999999999957,-80.0 -308.99999999999955,-79.99999999999883 -308.99999999999994,-123.99999999999883 -185.99999999999994,-124.00000000000001" stroke="#939498" stroke-linecap="round" stroke-linejoin="round"/><polygon fill="#231f20" fill-rule="evenodd" points="43.0,9.0 43.00000000000052,63.0 -180.9999999999995,63.00000000000217 -181.0,9.000000000002167 43.0,8.999999999999973" stroke-linejoin="round"/><polyline fill="none" points="43.0,9.0 43.00000000000052,63.0 -180.9999999999995,63.00000000000217 -181.0,9.000000000002167 43.0,8.999999999999973" stroke="#231f20" stroke-linecap="round" stroke-linejoin="round"/><polygon fill="#128542" fill-rule="evenodd" points="331.0,207.0 331.000000000001,313.0 223.00000000000102,313.0000000000011 222.99999999999997,207.00000000000108 331.0,207.0" stroke-linejoin="round"/><polyline fill="none" points="331.0,207.0 331.000000000001,313.0 223.00000000000102,313.0000000000011 222.99999999999997,207.00000000000108 331.0,207.0" stroke="#128542" stroke-linecap="round" stroke-linejoin="round"/><polygon fill="#fbec15" fill-rule="evenodd" points="-86.0,343.0 -85.99999999999959,384.0 -306.9999999999996,384.0000000000023 -307.0,343.0000000000023 -86.0,343.0" stroke-linejoin="round"/><polyline fill="none" points="-86.0,343.0 -85.99999999999959,384.0 -306.9999999999996,384.0000000000023 -307.0,343.0000000000023 -86.0,343.0" stroke="#fbec15" stroke-linecap="round" stroke-linejoin="round"/><polygon fill="#0192cb" fill-rule="evenodd" points="132.0,-180.0 132.0000000000018,-7.0 -75.99999999999821,-6.999999999997835 -76.00000000000001,-179.99999999999784 132.0,-180.00000000000003" stroke-linejoin="round"/><polyline fill="none" points="132.0,-180.0 132.0000000000018,-7.0 -75.99999999999821,-6.999999999997835 -76.00000000000001,-179.99999999999784 132.0,-180.00000000000003" stroke="#0192cb" stroke-linecap="round" stroke-linejoin="round"/><polygon fill="#939498" fill-rule="evenodd" points="-120.0,-118.0 -119.9999999999988,-5.0 -173.9999999999988,-4.9999999999994245 -174.00000000000003,-117.99999999999943 -120.00000000000003,-118.00000000000001" stroke-linejoin="round"/><polyline fill="none" points="-120.0,-118.0 -119.9999999999988,-5.0 -173.9999999999988,-4.9999999999994245 -174.00000000000003,-117.99999999999943 -120.00000000000003,-118.00000000000001" stroke="#939498" stroke-linecap="round" stroke-linejoin="round"/><polygon fill="#939498" fill-rule="evenodd" points="-331.0,193.0 -330.9999999999977,402.0 -478.9999999999977,402.0000000000016 -479.0,193.0000000000016 -331.0,192.99999999999997" stroke-linejoin="round"/><polyline fill="none" points="-331.0,193.0 -330.9999999999977,402.0 -478.9999999999977,402.0000000000016 -479.0,193.0000000000016 -331.0,192.99999999999997" stroke="#939498" stroke-linecap="round" stroke-linejoin="round"/><polygon fill="#0192cb" fill-rule="evenodd" points="221.0,-244.0 221.00000000000236,-31.0 140.00000000000236,-30.999999999999098 139.99999999999997,-243.9999999999991 220.99999999999997,-244.0" stroke-linejoin="round"/><polyline fill="none" points="221.0,-244.0 221.00000000000236,-31.0 140.00000000000236,-30.999999999999098 139.99999999999997,-243.9999999999991 220.99999999999997,-244.0" stroke="#0192cb" stroke-linecap="round" stroke-linejoin="round"/><polygon fill="#ef5b2d" fill-rule="evenodd" points="137.0,112.0 137.00000000000145,241.0 -35.99999999999855,241.00000000000196 -36.00000000000003,112.00000000000196 136.99999999999997,111.99999999999997" stroke-linejoin="round"/><polyline fill="none" points="137.0,112.0 137.00000000000145,241.0 -35.99999999999855,241.00000000000196 -36.00000000000003,112.00000000000196 136.99999999999997,111.99999999999997" stroke="#ef5b2d" stroke-linecap="round" stroke-linejoin="round"/><polygon fill="#fff" fill-rule="evenodd" points="-324.0,-27.0 -323.99999999999966,2.0 -516.9999999999997,2.0000000000022453 -517.0,-26.999999999997755 -324.0,-27.000000000000025" stroke-linejoin="round"/><polyline fill="none" points="-324.0,-27.0 -323.99999999999966,2.0 -516.9999999999997,2.0000000000022453 -517.0,-26.999999999997755 -324.0,-27.000000000000025" stroke="#fff" stroke-linecap="round" stroke-linejoin="round"/><polygon fill="#fbec15" fill-rule="evenodd" points="-115.0,-383.0 -114.99999999999787,-203.0 -135.99999999999787,-202.99999999999974 -136.00000000000003,-382.9999999999998 -115.00000000000003,-383.0" stroke-linejoin="round"/><polyline fill="none" points="-115.0,-383.0 -114.99999999999787,-203.0 -135.99999999999787,-202.99999999999974 -136.00000000000003,-382.9999999999998 -115.00000000000003,-383.0" stroke="#fbec15" stroke-linecap="round" stroke-linejoin="round"/><polygon fill="#231f20" fill-rule="evenodd" points="-136.0,-165.0 -135.99999999999878,-64.0 -161.99999999999878,-63.99999999999969 -162.0,-164.9999999999997 -136.0,-165.0" stroke-linejoin="round"/><polyline fill="none" points="-136.0,-165.0 -135.99999999999878,-64.0 -161.99999999999878,-63.99999999999969 -162.0,-164.9999999999997 -136.0,-165.0" stroke="#231f20" stroke-linecap="round" stroke-linejoin="round"/><polygon fill="#dd2d26" fill-rule="evenodd" points="-230.0,-317.0 -229.99999999999733,-99.0 -381.9999999999973,-98.99999999999812 -382.00000000000006,-316.9999999999981 -230.00000000000006,-317.0" stroke-linejoin="round"/><polyline fill="none" points="-230.0,-317.0 -229.99999999999733,-99.0 -381.9999999999973,-98.99999999999812 -382.00000000000006,-316.9999999999981 -230.00000000000006,-317.0" stroke="#dd2d26" stroke-linecap="round" stroke-linejoin="round"/><polygon fill="#0192c9" fill-rule="evenodd" points="121.0,-195.0 121.00000000000144,-81.0 50.000000000001435,-80.9999999999991 49.99999999999999,-194.9999999999991 121.0,-195.0" stroke-linejoin="round"/><polyline fill="none" points="121.0,-195.0 121.00000000000144,-81.0 50.000000000001435,-80.9999999999991 49.99999999999999,-194.9999999999991 121.0,-195.0" stroke="#0192c9" stroke-linecap="round" stroke-linejoin="round"/><polygon fill="#f8e817" fill-rule="evenodd" points="275.0,133.0 275.00000000000284,353.0 160.00000000000284,353.0000000000015 160.0,133.00000000000148 275.0,132.99999999999997" stroke-linejoin="round"/><polyline fill="none" points="275.0,133.0 275.00000000000284,353.0 160.00000000000284,353.0000000000015 160.0,133.00000000000148 275.0,132.99999999999997" stroke="#f8e817" stroke-linecap="round" stroke-linejoin="round"/><polygon fill="#dd2d26" fill-rule="evenodd" points="45.0,-165.0 45.00000000000107,-83.0 7.000000000001073,-82.9999999999995 6.999999999999994,-164.9999999999995 44.99999999999999,-165.0" stroke-linejoin="round"/><polyline fill="none" points="45.0,-165.0 45.00000000000107,-83.0 7.000000000001073,-82.9999999999995 6.999999999999994,-164.9999999999995 44.99999999999999,-165.0" stroke="#dd2d26" stroke-linecap="round" stroke-linejoin="round"/><polygon fill="#128542" fill-rule="evenodd" points="54.0,-371.0 54.00000000000076,-314.0 -93.99999999999923,-313.999999999998 -94.0,-370.999999999998 54.0,-371.0" stroke-linejoin="round"/><polyline fill="none" points="54.0,-371.0 54.00000000000076,-314.0 -93.99999999999923,-313.999999999998 -94.0,-370.999999999998 54.0,-371.0" stroke="#128542" stroke-linecap="round" stroke-linejoin="round"/><polygon fill="#0192c9" fill-rule="evenodd" points="-112.0,-259.0 -111.99999999999737,-65.0 -307.9999999999974,-64.99999999999734 -308.00000000000006,-258.9999999999973 -112.00000000000006,-259.0" stroke-linejoin="round"/><polyline fill="none" points="-112.0,-259.0 -111.99999999999737,-65.0 -307.9999999999974,-64.99999999999734 -308.00000000000006,-258.9999999999973 -112.00000000000006,-259.0" stroke="#0192c9" stroke-linecap="round" stroke-linejoin="round"/><polygon fill="#fffeff" fill-rule="evenodd" points="327.0,1.0 327.00000000000165,120.0 120.00000000000165,120.00000000000287 120.0,1.0000000000028706 327.0,0.9999999999999807" stroke-linejoin="round"/><polyline fill="none" points="327.0,1.0 327.00000000000165,120.0 120.00000000000165,120.00000000000287 120.0,1.0000000000028706 327.0,0.9999999999999807" stroke="#fffeff" stroke-linecap="round" stroke-linejoin="round"/><polygon fill="#fff" fill-rule="evenodd" points="47.0,173.0 47.00000000000108,250.0 -19.99999999999892,250.00000000000094 -20.00000000000001,173.00000000000094 46.999999999999986,173.0" stroke-linejoin="round"/><polyline fill="none" points="47.0,173.0 47.00000000000108,250.0 -19.99999999999892,250.00000000000094 -20.00000000000001,173.00000000000094 46.999999999999986,173.0" stroke="#fff" stroke-linecap="round" stroke-linejoin="round"/><polygon fill="#0192cb" fill-rule="evenodd" points="-351.0,-351.0 -350.9999999999989,-276.0 -550.9999999999989,-275.99999999999716 -550.9999999999999,-350.99999999999716 -350.9999999999999,-351.00000000000006" stroke-linejoin="round"/><polyline fill="none" points="-351.0,-351.0 -350.9999999999989,-276.0 -550.9999999999989,-275.99999999999716 -550.9999999999999,-350.99999999999716 -350.9999999999999,-351.00000000000006" stroke="#0192cb" stroke-linecap="round" stroke-linejoin="round"/><polygon fill="#0192c9" fill-rule="evenodd" points="69.0,-114.0 69.0000000000015,-10.0 -90.9999999999985,-9.999999999997668 -91.00000000000001,-113.99999999999767 68.99999999999999,-114.00000000000001" stroke-linejoin="round"/><polyline fill="none" points="69.0,-114.0 69.0000000000015,-10.0 -90.9999999999985,-9.999999999997668 -91.00000000000001,-113.99999999999767 68.99999999999999,-114.00000000000001" stroke="#0192c9" stroke-linecap="round" stroke-linejoin="round"/><polygon fill="#128542" fill-rule="evenodd" points="28.0,-169.0 28.000000000000725,-120.0 -151.99999999999926,-119.99999999999733 -152.0,-168.99999999999733 28.0,-169.00000000000003" stroke-linejoin="round"/><polyline fill="none" points="28.0,-169.0 28.000000000000725,-120.0 -151.99999999999926,-119.99999999999733 -152.0,-168.99999999999733 28.0,-169.00000000000003" stroke="#128542" stroke-linecap="round" stroke-linejoin="round"/><polygon fill="#fff" fill-rule="evenodd" points="-399.0,-183.0 -398.9999999999972,1.0 -586.9999999999973,1.000000000002832 -587.0,-182.99999999999716 -399.0,-183.0" stroke-linejoin="round"/><polyline fill="none" points="-399.0,-183.0 -398.9999999999972,1.0 -586.9999999999973,1.000000000002832 -587.0,-182.99999999999716 -399.0,-183.0" stroke="#fff" stroke-linecap="round" stroke-linejoin="round"/><polygon fill="#f8e817" fill-rule="evenodd" points="-206.0,187.0 -205.99999999999952,219.0 -239.99999999999952,219.0000000000005 -240.0,187.0000000000005 -206.0,187.0" stroke-linejoin="round"/><polyline fill="none" points="-206.0,187.0 -205.99999999999952,219.0 -239.99999999999952,219.0000000000005 -240.0,187.0000000000005 -206.0,187.0" stroke="#f8e817" stroke-linecap="round" stroke-linejoin="round"/><polygon fill="#0192cb" fill-rule="evenodd" points="-285.0,347.0 -284.99999999999693,545.0 -494.99999999999693,545.0000000000033 -495.0,347.0000000000033 -285.0,347.0" stroke-linejoin="round"/><polyline fill="none" points="-285.0,347.0 -284.99999999999693,545.0 -494.99999999999693,545.0000000000033 -495.0,347.0000000000033 -285.0,347.0" stroke="#0192cb" stroke-linecap="round" stroke-linejoin="round"/><polygon fill="#fbec15" fill-rule="evenodd" points="343.0,-125.0 343.00000000000085,-70.0 259.00000000000085,-69.99999999999868 259.0,-124.99999999999868 343.0,-125.00000000000001" stroke-linejoin="round"/><polyline fill="none" points="343.0,-125.0 343.00000000000085,-70.0 259.00000000000085,-69.99999999999868 259.0,-124.99999999999868 343.0,-125.00000000000001" stroke="#fbec15" stroke-linecap="round" stroke-linejoin="round"/><polygon fill="#eb1c24" fill-rule="evenodd" points="-310.0,275.0 -309.9999999999991,331.0 -424.9999999999991,331.0000000000018 -425.0,275.0000000000018 -310.0,274.99999999999994" stroke-linejoin="round"/><polyline fill="none" points="-310.0,275.0 -309.9999999999991,331.0 -424.9999999999991,331.0000000000018 -425.0,275.0000000000018 -310.0,274.99999999999994" stroke="#eb1c24" stroke-linecap="round" stroke-linejoin="round"/><polygon fill="#231f20" fill-rule="evenodd" points="282.0,15.0 282.0000000000032,211.0 220.00000000000318,211.00000000000102 219.99999999999997,15.000000000001023 282.0,15.000000000000005" stroke-linejoin="round"/><polyline fill="none" points="282.0,15.0 282.0000000000032,211.0 220.00000000000318,211.00000000000102 219.99999999999997,15.000000000001023 282.0,15.000000000000005" stroke="#231f20" stroke-linecap="round" stroke-linejoin="round"/><polygon fill="#ef5b2d" fill-rule="evenodd" points="-277.0,374.0 -276.9999999999972,544.0 -400.9999999999972,544.000000000002 -401.00000000000006,374.00000000000205 -277.00000000000006,374.0" stroke-linejoin="round"/><polyline fill="none" points="-277.0,374.0 -276.9999999999972,544.0 -400.9999999999972,544.000000000002 -401.00000000000006,374.00000000000205 -277.00000000000006,374.0" stroke="#ef5b2d" stroke-linecap="round" stroke-linejoin="round"/><polygon fill="#fbec15" fill-rule="evenodd" points="283.0,137.0 283.0000000000002,152.0 173.00000000000023,152.00000000000185 172.99999999999997,137.00000000000185 283.0,137.0" stroke-linejoin="round"/><polyline fill="none" points="283.0,137.0 283.0000000000002,152.0 173.00000000000023,152.00000000000185 172.99999999999997,137.00000000000185 283.0,137.0" stroke="#fbec15" stroke-linecap="round" stroke-linejoin="round"/><polygon fill="#fff" fill-rule="evenodd" points="-307.0,-131.0 -306.99999999999716,35.0 -381.99999999999716,35.00000000000128 -382.0,-130.99999999999872 -307.0,-131.0" stroke-linejoin="round"/><polyline fill="none" points="-307.0,-131.0 -306.99999999999716,35.0 -381.99999999999716,35.00000000000128 -382.0,-130.99999999999872 -307.0,-131.0" stroke="#fff" stroke-linecap="round" stroke-linejoin="round"/><polygon fill="#ef5b2d" fill-rule="evenodd" points="-104.0,-397.0 -103.99999999999885,-330.0 -228.99999999999886,-329.99999999999784 -229.00000000000003,-396.99999999999784 -104.00000000000003,-397.0" stroke-linejoin="round"/><polyline fill="none" points="-104.0,-397.0 -103.99999999999885,-330.0 -228.99999999999886,-329.99999999999784 -229.00000000000003,-396.99999999999784 -104.00000000000003,-397.0" stroke="#ef5b2d" stroke-linecap="round" stroke-linejoin="round"/><polygon fill="#128542" fill-rule="evenodd" points="21.0,-369.0 21.00000000000248,-227.0 -141.99999999999753,-226.99999999999716 -142.00000000000003,-368.99999999999716 20.99999999999997,-369.00000000000006" stroke-linejoin="round"/><polyline fill="none" points="21.0,-369.0 21.00000000000248,-227.0 -141.99999999999753,-226.99999999999716 -142.00000000000003,-368.99999999999716 20.99999999999997,-369.00000000000006" stroke="#128542" stroke-linecap="round" stroke-linejoin="round"/><polygon fill="#fff" fill-rule="evenodd" points="-378.0,-310.0 -377.9999999999977,-181.0 -432.9999999999977,-180.99999999999903 -433.0,-309.99999999999903 -378.0,-310.0" stroke-linejoin="round"/><polyline fill="none" points="-378.0,-310.0 -377.9999999999977,-181.0 -432.9999999999977,-180.99999999999903 -433.0,-309.99999999999903 -378.0,-310.0" stroke="#fff" stroke-linecap="round" stroke-linejoin="round"/><polygon fill="#eb1c24" fill-rule="evenodd" points="-272.0,-28.0 -271.9999999999997,-12.0 -408.9999999999997,-11.999999999997534 -409.0,-27.999999999997534 -272.0,-28.000000000000018" stroke-linejoin="round"/><polyline fill="none" points="-272.0,-28.0 -271.9999999999997,-12.0 -408.9999999999997,-11.999999999997534 -409.0,-27.999999999997534 -272.0,-28.000000000000018" stroke="#eb1c24" stroke-linecap="round" stroke-linejoin="round"/><polygon fill="#fffeff" fill-rule="evenodd" points="2.0,-132.0 2.0000000000026734,15.0 -108.99999999999733,15.000000000002025 -109.00000000000001,-131.99999999999798 1.9999999999999858,-132.00000000000003" stroke-linejoin="round"/><polyline fill="none" points="2.0,-132.0 2.0000000000026734,15.0 -108.99999999999733,15.000000000002025 -109.00000000000001,-131.99999999999798 1.9999999999999858,-132.00000000000003" stroke="#fffeff" stroke-linecap="round" stroke-linejoin="round"/><polygon fill="#0192c9" fill-rule="evenodd" points="80.0,-347.0 80.00000000000281,-194.0 -132.9999999999972,-193.99999999999605 -133.00000000000003,-346.999999999996 79.99999999999997,-347.0" stroke-linejoin="round"/><polyline fill="none" points="80.0,-347.0 80.00000000000281,-194.0 -132.9999999999972,-193.99999999999605 -133.00000000000003,-346.999999999996 79.99999999999997,-347.0" stroke="#0192c9" stroke-linecap="round" stroke-linejoin="round"/><polygon fill="#0192cb" fill-rule="evenodd" points="-373.0,-63.0 -372.99999999999835,25.0 -395.99999999999835,25.00000000000043 -396.0,-62.999999999999574 -373.0,-63.00000000000001" stroke-linejoin="round"/><polyline fill="none" points="-373.0,-63.0 -372.99999999999835,25.0 -395.99999999999835,25.00000000000043 -396.0,-62.999999999999574 -373.0,-63.00000000000001" stroke="#0192cb" stroke-linecap="round" stroke-linejoin="round"/><polygon fill="#128542" fill-rule="evenodd" points="245.0,-113.0 245.00000000000207,-3.0 151.00000000000207,-2.9999999999982156 150.99999999999997,-112.99999999999821 244.99999999999997,-113.0" stroke-linejoin="round"/><polyline fill="none" points="245.0,-113.0 245.00000000000207,-3.0 151.00000000000207,-2.9999999999982156 150.99999999999997,-112.99999999999821 244.99999999999997,-113.0" stroke="#128542" stroke-linecap="round" stroke-linejoin="round"/><polygon fill="#939498" fill-rule="evenodd" points="211.0,173.0 211.00000000000043,195.0 20.000000000000426,195.00000000000367 20.000000000000004,173.00000000000367 211.0,172.99999999999997" stroke-linejoin="round"/><polyline fill="none" points="211.0,173.0 211.00000000000043,195.0 20.000000000000426,195.00000000000367 20.000000000000004,173.00000000000367 211.0,172.99999999999997" stroke="#939498" stroke-linecap="round" stroke-linejoin="round"/><polygon fill="#fff" fill-rule="evenodd" points="355.0,-188.0 355.0000000000029,-40.0 276.0000000000029,-39.999999999998465 276.0,-187.99999999999847 355.0,-188.0" stroke-linejoin="round"/><polyline fill="none" points="355.0,-188.0 355.0000000000029,-40.0 276.0000000000029,-39.999999999998465 276.0,-187.99999999999847 355.0,-188.0" stroke="#fff" stroke-linecap="round" stroke-linejoin="round"/><polygon fill="#f8e817" fill-rule="evenodd" points="329.0,181.0 329.00000000000205,285.0 262.00000000000205,285.0000000000013 262.0,181.0000000000013 329.0,180.99999999999997" stroke-linejoin="round"/><polyline fill="none" points="329.0,181.0 329.00000000000205,285.0 262.00000000000205,285.0000000000013 262.0,181.0000000000013 329.0,180.99999999999997" stroke="#f8e817" stroke-linecap="round" stroke-linejoin="round"/><polygon fill="#f8e817" fill-rule="evenodd" points="-114.0,110.0 -113.999999999999,160.0 -283.999999999999,160.00000000000338 -284.0,110.00000000000338 -114.0,109.99999999999997" stroke-linejoin="round"/><polyline fill="none" points="-114.0,110.0 -113.999999999999,160.0 -283.999999999999,160.00000000000338 -284.0,110.00000000000338 -114.0,109.99999999999997" stroke="#f8e817" stroke-linecap="round" stroke-linejoin="round"/><polygon fill="#fbec15" fill-rule="evenodd" points="-178.0,-140.0 -177.99999999999778,-30.0 -288.9999999999978,-29.99999999999776 -289.0,-139.99999999999775 -178.0,-140.0" stroke-linejoin="round"/><polyline fill="none" points="-178.0,-140.0 -177.99999999999778,-30.0 -288.9999999999978,-29.99999999999776 -289.0,-139.99999999999775 -178.0,-140.0" stroke="#fbec15" stroke-linecap="round" stroke-linejoin="round"/><polygon fill="#dd2d26" fill-rule="evenodd" points="-58.0,-37.0 -57.99999999999843,40.0 -241.99999999999844,40.000000000003766 -242.00000000000003,-36.999999999996234 -58.00000000000003,-37.00000000000002" stroke-linejoin="round"/><polyline fill="none" points="-58.0,-37.0 -57.99999999999843,40.0 -241.99999999999844,40.000000000003766 -242.00000000000003,-36.999999999996234 -58.00000000000003,-37.00000000000002" stroke="#dd2d26" stroke-linecap="round" stroke-linejoin="round"/><polygon fill="#231f20" fill-rule="evenodd" points="157.0,-152.0 157.00000000000426,55.0 112.00000000000426,55.00000000000093 111.99999999999997,-151.99999999999906 156.99999999999997,-152.0" stroke-linejoin="round"/><polyline fill="none" points="157.0,-152.0 157.00000000000426,55.0 112.00000000000426,55.00000000000093 111.99999999999997,-151.99999999999906 156.99999999999997,-152.0" stroke="#231f20" stroke-linecap="round" stroke-linejoin="round"/><polygon fill="#fff" fill-rule="evenodd" points="183.0,-270.0 183.00000000000455,-52.0 166.00000000000455,-51.999999999999645 165.99999999999997,-269.99999999999966 182.99999999999997,-270.0" stroke-linejoin="round"/><polyline fill="none" points="183.0,-270.0 183.00000000000455,-52.0 166.00000000000455,-51.999999999999645 165.99999999999997,-269.99999999999966 182.99999999999997,-270.0" stroke="#fff" stroke-linecap="round" stroke-linejoin="round"/><polygon fill="#231f20" fill-rule="evenodd" points="-160.0,-361.0 -159.99999999999827,-279.0 -250.99999999999827,-278.99999999999807 -251.0,-360.99999999999807 -160.0,-361.0" stroke-linejoin="round"/><polyline fill="none" points="-160.0,-361.0 -159.99999999999827,-279.0 -250.99999999999827,-278.99999999999807 -251.0,-360.99999999999807 -160.0,-361.0" stroke="#231f20" stroke-linecap="round" stroke-linejoin="round"/><polygon fill="#939498" fill-rule="evenodd" points="155.0,342.0 155.00000000000273,470.0 118.00000000000273,470.0000000000008 117.99999999999997,342.0000000000008 154.99999999999997,342.0" stroke-linejoin="round"/><polyline fill="none" points="155.0,342.0 155.00000000000273,470.0 118.00000000000273,470.0000000000008 117.99999999999997,342.0000000000008 154.99999999999997,342.0" stroke="#939498" stroke-linecap="round" stroke-linejoin="round"/><polygon fill="#231f20" fill-rule="evenodd" points="-303.0,-152.0 -302.99999999999864,-88.0 -345.99999999999864,-87.99999999999906 -346.0,-151.99999999999906 -303.0,-152.0" stroke-linejoin="round"/><polyline fill="none" points="-303.0,-152.0 -302.99999999999864,-88.0 -345.99999999999864,-87.99999999999906 -346.0,-151.99999999999906 -303.0,-152.0" stroke="#231f20" stroke-linecap="round" stroke-linejoin="round"/><polygon fill="#dd2d26" fill-rule="evenodd" points="-149.0,-300.0 -148.99999999999824,-219.0 -302.99999999999824,-218.99999999999662 -303.0,-299.9999999999966 -149.0,-300.0" stroke-linejoin="round"/><polyline fill="none" points="-149.0,-300.0 -148.99999999999824,-219.0 -302.99999999999824,-218.99999999999662 -303.0,-299.9999999999966 -149.0,-300.0" stroke="#dd2d26" stroke-linecap="round" stroke-linejoin="round"/><polygon fill="#939498" fill-rule="evenodd" points="-391.0,-204.0 -390.99999999999625,-34.0 -490.99999999999625,-33.99999999999778 -491.0,-203.99999999999778 -391.0,-204.0" stroke-linejoin="round"/><polyline fill="none" points="-391.0,-204.0 -390.99999999999625,-34.0 -490.99999999999625,-33.99999999999778 -491.0,-203.99999999999778 -391.0,-204.0" stroke="#939498" stroke-linecap="round" stroke-linejoin="round"/><polygon fill="#939498" fill-rule="evenodd" points="375.0,252.0 375.00000000000097,294.0 242.00000000000097,294.00000000000296 242.00000000000003,252.00000000000296 375.0,251.99999999999997" stroke-linejoin="round"/><polyline fill="none" points="375.0,252.0 375.00000000000097,294.0 242.00000000000097,294.00000000000296 242.00000000000003,252.00000000000296 375.0,251.99999999999997" stroke="#939498" stroke-linecap="round" stroke-linejoin="round"/><polygon fill="#f8e817" fill-rule="evenodd" points="197.0,-158.0 197.0000000000011,-109.0 58.00000000000111,-108.99999999999685 57.99999999999999,-157.99999999999685 197.0,-158.0" stroke-linejoin="round"/><polyline fill="none" points="197.0,-158.0 197.0000000000011,-109.0 58.00000000000111,-108.99999999999685 57.99999999999999,-157.99999999999685 197.0,-158.0" stroke="#f8e817" stroke-linecap="round" stroke-linejoin="round"/><polygon fill="#0192cb" fill-rule="evenodd" points="153.0,-221.0 153.00000000000387,-52.0 -60.999999999996135,-51.9999999999951 -61.000000000000014,-220.9999999999951 153.0,-221.00000000000003" stroke-linejoin="round"/><polyline fill="none" points="153.0,-221.0 153.00000000000387,-52.0 -60.999999999996135,-51.9999999999951 -61.000000000000014,-220.9999999999951 153.0,-221.00000000000003" stroke="#0192cb" stroke-linecap="round" stroke-linejoin="round"/><polygon fill="#0192c9" fill-rule="evenodd" points="-254.0,-212.0 -253.99999999999534,-10.0 -280.99999999999534,-9.999999999999375 -281.0,-211.99999999999937 -254.0,-212.0" stroke-linejoin="round"/><polyline fill="none" points="-254.0,-212.0 -253.99999999999534,-10.0 -280.99999999999534,-9.999999999999375 -281.0,-211.99999999999937 -254.0,-212.0" stroke="#0192c9" stroke-linecap="round" stroke-linejoin="round"/><polygon fill="#fff" fill-rule="evenodd" points="-17.0,-132.0 -16.99999999999965,-117.0 -202.99999999999966,-116.99999999999565 -203.0,-131.99999999999565 -17.0,-132.00000000000003" stroke-linejoin="round"/><polyline fill="none" points="-17.0,-132.0 -16.99999999999965,-117.0 -202.99999999999966,-116.99999999999565 -203.0,-131.99999999999565 -17.0,-132.00000000000003" stroke="#fff" stroke-linecap="round" stroke-linejoin="round"/><polygon fill="#231f20" fill-rule="evenodd" points="-323.0,27.0 -322.99999999999494,242.0 -340.99999999999494,242.00000000000043 -341.00000000000006,27.000000000000426 -323.00000000000006,27.0" stroke-linejoin="round"/><polyline fill="none" points="-323.0,27.0 -322.99999999999494,242.0 -340.99999999999494,242.00000000000043 -341.00000000000006,27.000000000000426 -323.00000000000006,27.0" stroke="#231f20" stroke-linecap="round" stroke-linejoin="round"/><polygon fill="#231f20" fill-rule="evenodd" points="-25.0,-62.0 -24.999999999994735,159.0 -150.99999999999474,159.000000000003 -151.00000000000003,-61.99999999999699 -25.00000000000003,-62.000000000000014" stroke-linejoin="round"/><polyline fill="none" points="-25.0,-62.0 -24.999999999994735,159.0 -150.99999999999474,159.000000000003 -151.00000000000003,-61.99999999999699 -25.00000000000003,-62.000000000000014" stroke="#231f20" stroke-linecap="round" stroke-linejoin="round"/><polygon fill="#128542" fill-rule="evenodd" points="-115.0,32.0 -114.99999999999868,87.0 -296.9999999999987,87.00000000000439 -297.0,32.00000000000439 -115.0,31.99999999999998" stroke-linejoin="round"/><polyline fill="none" points="-115.0,32.0 -114.99999999999868,87.0 -296.9999999999987,87.00000000000439 -297.0,32.00000000000439 -115.0,31.99999999999998" stroke="#128542" stroke-linecap="round" stroke-linejoin="round"/><polygon fill="#f8e817" fill-rule="evenodd" points="318.0,228.0 318.0000000000014,287.0 120.00000000000142,287.00000000000483 119.99999999999999,228.00000000000483 318.0,227.99999999999997" stroke-linejoin="round"/><polyline fill="none" points="318.0,228.0 318.0000000000014,287.0 120.00000000000142,287.00000000000483 119.99999999999999,228.00000000000483 318.0,227.99999999999997" stroke="#f8e817" stroke-linecap="round" stroke-linejoin="round"/><polygon fill="#ef5b2d" fill-rule="evenodd" points="6.0,-191.0 6.000000000001719,-121.0 -43.99999999999828,-120.99999999999876 -44.00000000000001,-190.99999999999875 5.999999999999993,-191.0" stroke-linejoin="round"/><polyline fill="none" points="6.0,-191.0 6.000000000001719,-121.0 -43.99999999999828,-120.99999999999876 -44.00000000000001,-190.99999999999875 5.999999999999993,-191.0" stroke="#ef5b2d" stroke-linecap="round" stroke-linejoin="round"/><polygon fill="#231f20" fill-rule="evenodd" points="308.0,-263.0 308.0000000000008,-230.0 257.0000000000008,-229.99999999999872 257.0,-262.99999999999875 308.0,-263.0" stroke-linejoin="round"/><polyline fill="none" points="308.0,-263.0 308.0000000000008,-230.0 257.0000000000008,-229.99999999999872 257.0,-262.99999999999875 308.0,-263.0" stroke="#231f20" stroke-linecap="round" stroke-linejoin="round"/><polygon fill="#0192c9" fill-rule="evenodd" points="5.0,298.0 5.00000000000288,413.0 -134.99999999999713,413.0000000000035 -135.00000000000003,298.0000000000035 4.999999999999972,298.0" stroke-linejoin="round"/><polyline fill="none" points="5.0,298.0 5.00000000000288,413.0 -134.99999999999713,413.0000000000035 -135.00000000000003,298.0000000000035 4.999999999999972,298.0" stroke="#0192c9" stroke-linecap="round" stroke-linejoin="round"/><polygon fill="#231f20" fill-rule="evenodd" points="32.0,-148.0 32.00000000000089,-113.0 20.000000000000888,-112.9999999999997 20.0,-147.99999999999972 32.0,-148.00000000000003" stroke-linejoin="round"/><polyline fill="none" points="32.0,-148.0 32.00000000000089,-113.0 20.000000000000888,-112.9999999999997 20.0,-147.99999999999972 32.0,-148.00000000000003" stroke="#231f20" stroke-linecap="round" stroke-linejoin="round"/><polygon fill="#eb1c24" fill-rule="evenodd" points="290.0,39.0 290.000000000003,156.0 157.000000000003,156.0000000000034 157.0,39.00000000000341 290.0,38.99999999999999" stroke-linejoin="round"/><polyline fill="none" points="290.0,39.0 290.000000000003,156.0 157.000000000003,156.0000000000034 157.0,39.00000000000341 290.0,38.99999999999999" stroke="#eb1c24" stroke-linecap="round" stroke-linejoin="round"/><polygon fill="#fffeff" fill-rule="evenodd" points="279.0,148.0 279.00000000000136,201.0 173.00000000000136,201.00000000000273 173.0,148.00000000000273 279.0,147.99999999999997" stroke-linejoin="round"/><polyline fill="none" points="279.0,148.0 279.00000000000136,201.0 173.00000000000136,201.00000000000273 173.0,148.00000000000273 279.0,147.99999999999997" stroke="#fffeff" stroke-linecap="round" stroke-linejoin="round"/><polygon fill="#ef5b2d" fill-rule="evenodd" points="197.0,-267.0 197.00000000000543,-58.0 96.00000000000543,-57.999999999997364 95.99999999999996,-266.9999999999974 196.99999999999994,-267.00000000000006" stroke-linejoin="round"/><polyline fill="none" points="197.0,-267.0 197.00000000000543,-58.0 96.00000000000543,-57.999999999997364 95.99999999999996,-266.9999999999974 196.99999999999994,-267.00000000000006" stroke="#ef5b2d" stroke-linecap="round" stroke-linejoin="round"/><polygon fill="#f8e817" fill-rule="evenodd" points="12.0,230.0 12.000000000000972,267.0 -163.99999999999903,267.00000000000466 -164.0,230.00000000000466 12.0,230.0" stroke-linejoin="round"/><polyline fill="none" points="12.0,230.0 12.000000000000972,267.0 -163.99999999999903,267.00000000000466 -164.0,230.00000000000466 12.0,230.0" stroke="#f8e817" stroke-linecap="round" stroke-linejoin="round"/><polygon fill="#231f20" fill-rule="evenodd" points="94.0,191.0 94.0000000000038,334.0 -104.9999999999962,334.0000000000053 -105.00000000000001,191.0000000000053 93.99999999999999,190.99999999999997" stroke-linejoin="round"/><polyline fill="none" points="94.0,191.0 94.0000000000038,334.0 -104.9999999999962,334.0000000000053 -105.00000000000001,191.0000000000053 93.99999999999999,190.99999999999997" stroke="#231f20" stroke-linecap="round" stroke-linejoin="round"/><polygon fill="#ef5b2d" fill-rule="evenodd" points="-144.0,-303.0 -143.99999999999451,-98.0 -345.99999999999454,-97.99999999999459 -346.00000000000006,-302.9999999999946 -144.00000000000006,-303.00000000000006" stroke-linejoin="round"/><polyline fill="none" points="-144.0,-303.0 -143.99999999999451,-98.0 -345.99999999999454,-97.99999999999459 -346.00000000000006,-302.9999999999946 -144.00000000000006,-303.00000000000006" stroke="#ef5b2d" stroke-linecap="round" stroke-linejoin="round"/><polygon fill="#939498" fill-rule="evenodd" points="-341.0,-266.0 -340.9999999999942,-51.0 -414.9999999999942,-50.999999999997996 -415.00000000000006,-265.999999999998 -341.00000000000006,-266.0" stroke-linejoin="round"/><polyline fill="none" points="-341.0,-266.0 -340.9999999999942,-51.0 -414.9999999999942,-50.999999999997996 -415.00000000000006,-265.999999999998 -341.00000000000006,-266.0" stroke="#939498" stroke-linecap="round" stroke-linejoin="round"/><polygon fill="#eb1c24" fill-rule="evenodd" points="146.0,315.0 146.00000000000244,405.0 72.00000000000244,405.00000000000205 71.99999999999999,315.00000000000205 146.0,315.0" stroke-linejoin="round"/><polyline fill="none" points="146.0,315.0 146.00000000000244,405.0 72.00000000000244,405.00000000000205 71.99999999999999,315.00000000000205 146.0,315.0" stroke="#eb1c24" stroke-linecap="round" stroke-linejoin="round"/><polygon fill="#fbec15" fill-rule="evenodd" points="-68.0,-201.0 -67.99999999999521,-27.0 -170.99999999999523,-26.99999999999716 -171.00000000000003,-200.99999999999716 -68.00000000000003,-201.0" stroke-linejoin="round"/><polyline fill="none" points="-68.0,-201.0 -67.99999999999521,-27.0 -170.99999999999523,-26.99999999999716 -171.00000000000003,-200.99999999999716 -68.00000000000003,-201.0" stroke="#fbec15" stroke-linecap="round" stroke-linejoin="round"/><polygon fill="#939498" fill-rule="evenodd" points="-58.0,-38.0 -57.99999999999659,85.0 -121.99999999999659,85.00000000000178 -122.00000000000001,-37.999999999998224 -58.000000000000014,-38.00000000000001" stroke-linejoin="round"/><polyline fill="none" points="-58.0,-38.0 -57.99999999999659,85.0 -121.99999999999659,85.00000000000178 -122.00000000000001,-37.999999999998224 -58.000000000000014,-38.00000000000001" stroke="#939498" stroke-linecap="round" stroke-linejoin="round"/><polygon fill="#fffeff" fill-rule="evenodd" points="-43.0,134.0 -42.99999999999513,308.0 -175.99999999999514,308.00000000000375 -176.00000000000003,134.00000000000375 -43.00000000000003,134.0" stroke-linejoin="round"/><polyline fill="none" points="-43.0,134.0 -42.99999999999513,308.0 -175.99999999999514,308.00000000000375 -176.00000000000003,134.00000000000375 -43.00000000000003,134.0" stroke="#fffeff" stroke-linecap="round" stroke-linejoin="round"/><polygon fill="#ef5b2d" fill-rule="evenodd" points="195.0,-227.0 195.00000000000358,-100.0 38.00000000000358,-99.99999999999555 37.99999999999998,-226.99999999999557 194.99999999999997,-227.00000000000003" stroke-linejoin="round"/><polyline fill="none" points="195.0,-227.0 195.00000000000358,-100.0 38.00000000000358,-99.99999999999555 37.99999999999998,-226.99999999999557 194.99999999999997,-227.00000000000003" stroke="#ef5b2d" stroke-linecap="round" stroke-linejoin="round"/><polygon fill="#ef5b2d" fill-rule="evenodd" points="-294.0,-366.0 -293.99999999999386,-150.0 -407.99999999999386,-149.99999999999676 -408.00000000000006,-365.99999999999676 -294.00000000000006,-366.0" stroke-linejoin="round"/><polyline fill="none" points="-294.0,-366.0 -293.99999999999386,-150.0 -407.99999999999386,-149.99999999999676 -408.00000000000006,-365.99999999999676 -294.00000000000006,-366.0" stroke="#ef5b2d" stroke-linecap="round" stroke-linejoin="round"/><polygon fill="#dd2d26" fill-rule="evenodd" points="189.0,-81.0 189.00000000000531,104.0 150.00000000000531,104.00000000000112 149.99999999999997,-80.99999999999888 188.99999999999997,-81.0" stroke-linejoin="round"/><polyline fill="none" points="189.0,-81.0 189.00000000000531,104.0 150.00000000000531,104.00000000000112 149.99999999999997,-80.99999999999888 188.99999999999997,-81.0" stroke="#dd2d26" stroke-linecap="round" stroke-linejoin="round"/><polygon fill="#eb1c24" fill-rule="evenodd" points="104.0,-30.0 104.00000000000414,113.0 -5.999999999995865,113.0000000000032 -6.000000000000024,-29.999999999996803 103.99999999999997,-30.000000000000007" stroke-linejoin="round"/><polyline fill="none" points="104.0,-30.0 104.00000000000414,113.0 -5.999999999995865,113.0000000000032 -6.000000000000024,-29.999999999996803 103.99999999999997,-30.000000000000007" stroke="#eb1c24" stroke-linecap="round" stroke-linejoin="round"/><polygon fill="#128542" fill-rule="evenodd" points="122.0,289.0 122.00000000000506,462.0 -71.99999999999494,462.0000000000057 -72.00000000000001,289.0000000000057 121.99999999999999,289.0" stroke-linejoin="round"/><polyline fill="none" points="122.0,289.0 122.00000000000506,462.0 -71.99999999999494,462.0000000000057 -72.00000000000001,289.0000000000057 121.99999999999999,289.0" stroke="#128542" stroke-linecap="round" stroke-linejoin="round"/><polygon fill="#dd2d26" fill-rule="evenodd" points="325.0,-105.0 325.00000000000045,-89.0 295.00000000000045,-88.99999999999912 295.0,-104.99999999999912 325.0,-105.00000000000001" stroke-linejoin="round"/><polyline fill="none" points="325.0,-105.0 325.00000000000045,-89.0 295.00000000000045,-88.99999999999912 295.0,-104.99999999999912 325.0,-105.00000000000001" stroke="#dd2d26" stroke-linecap="round" stroke-linejoin="round"/><polygon fill="#128542" fill-rule="evenodd" points="159.0,158.0 159.00000000000637,372.0 -58.99999999999363,372.0000000000065 -59.000000000000014,158.00000000000648 159.0,157.99999999999997" stroke-linejoin="round"/><polyline fill="none" points="159.0,158.0 159.00000000000637,372.0 -58.99999999999363,372.0000000000065 -59.000000000000014,158.00000000000648 159.0,157.99999999999997" stroke="#128542" stroke-linecap="round" stroke-linejoin="round"/><polygon fill="#939498" fill-rule="evenodd" points="-387.0,145.0 -386.99999999999864,190.0 -397.99999999999864,190.00000000000034 -398.0,145.00000000000034 -387.0,145.0" stroke-linejoin="round"/><polyline fill="none" points="-387.0,145.0 -386.99999999999864,190.0 -397.99999999999864,190.00000000000034 -398.0,145.00000000000034 -387.0,145.0" stroke="#939498" stroke-linecap="round" stroke-linejoin="round"/><polygon fill="#fbec15" fill-rule="evenodd" points="250.0,-343.0 250.00000000000247,-261.0 69.00000000000247,-260.99999999999454 68.99999999999999,-342.99999999999454 250.0,-343.00000000000006" stroke-linejoin="round"/><polyline fill="none" points="250.0,-343.0 250.00000000000247,-261.0 69.00000000000247,-260.99999999999454 68.99999999999999,-342.99999999999454 250.0,-343.00000000000006" stroke="#fbec15" stroke-linecap="round" stroke-linejoin="round"/><polygon fill="#eb1c24" fill-rule="evenodd" points="217.0,195.0 217.00000000000156,246.0 124.00000000000156,246.00000000000284 124.0,195.00000000000284 217.0,195.0" stroke-linejoin="round"/><polyline fill="none" points="217.0,195.0 217.00000000000156,246.0 124.00000000000156,246.00000000000284 124.0,195.00000000000284 217.0,195.0" stroke="#eb1c24" stroke-linecap="round" stroke-linejoin="round"/><polygon fill="#fbec15" fill-rule="evenodd" points="-283.0,7.0 -282.99999999999477,177.0 -294.99999999999477,177.00000000000037 -295.0,7.0000000000003695 -283.0,6.999999999999999" stroke-linejoin="round"/><polyline fill="none" points="-283.0,7.0 -282.99999999999477,177.0 -294.99999999999477,177.00000000000037 -295.0,7.0000000000003695 -283.0,6.999999999999999" stroke="#fbec15" stroke-linecap="round" stroke-linejoin="round"/><polygon fill="#eb1c24" fill-rule="evenodd" points="-322.0,385.0 -321.99999999999443,565.0 -419.99999999999443,565.0000000000031 -420.0,385.00000000000307 -322.0,385.0" stroke-linejoin="round"/><polyline fill="none" points="-322.0,385.0 -321.99999999999443,565.0 -419.99999999999443,565.0000000000031 -420.0,385.00000000000307 -322.0,385.0" stroke="#eb1c24" stroke-linecap="round" stroke-linejoin="round"/><polygon fill="#ef5b2d" fill-rule="evenodd" points="-110.0,107.0 -109.99999999999913,135.0 -276.99999999999915,135.0000000000052 -277.0,107.0000000000052 -110.0,106.99999999999997" stroke-linejoin="round"/><polyline fill="none" points="-110.0,107.0 -109.99999999999913,135.0 -276.99999999999915,135.0000000000052 -277.0,107.0000000000052 -110.0,106.99999999999997" stroke="#ef5b2d" stroke-linecap="round" stroke-linejoin="round"/><polygon fill="#128542" fill-rule="evenodd" points="-336.0,-348.0 -335.9999999999957,-211.0 -386.9999999999957,-210.9999999999984 -387.0,-347.9999999999984 -336.0,-348.0" stroke-linejoin="round"/><polyline fill="none" points="-336.0,-348.0 -335.9999999999957,-211.0 -386.9999999999957,-210.9999999999984 -387.0,-347.9999999999984 -336.0,-348.0" stroke="#128542" stroke-linecap="round" stroke-linejoin="round"/><polygon fill="#fbec15" fill-rule="evenodd" points="-144.0,387.0 -143.9999999999995,403.0 -169.9999999999995,403.00000000000085 -170.0,387.00000000000085 -144.0,387.0" stroke-linejoin="round"/><polyline fill="none" points="-144.0,387.0 -143.9999999999995,403.0 -169.9999999999995,403.00000000000085 -170.0,387.00000000000085 -144.0,387.0" stroke="#fbec15" stroke-linecap="round" stroke-linejoin="round"/><polygon fill="#eb1c24" fill-rule="evenodd" points="263.0,390.0 263.0000000000047,537.0 99.00000000000472,537.0000000000052 99.00000000000001,390.00000000000523 263.0,389.99999999999994" stroke-linejoin="round"/><polyline fill="none" points="263.0,390.0 263.0000000000047,537.0 99.00000000000472,537.0000000000052 99.00000000000001,390.00000000000523 263.0,389.99999999999994" stroke="#eb1c24" stroke-linecap="round" stroke-linejoin="round"/><polygon fill="#fbec15" fill-rule="evenodd" points="327.0,-197.0 327.0000000000022,-128.0 269.0000000000022,-127.99999999999814 269.0,-196.99999999999812 327.0,-197.0" stroke-linejoin="round"/><polyline fill="none" points="327.0,-197.0 327.0000000000022,-128.0 269.0000000000022,-127.99999999999814 269.0,-196.99999999999812 327.0,-197.0" stroke="#fbec15" stroke-linecap="round" stroke-linejoin="round"/><polygon fill="#fff" fill-rule="evenodd" points="-73.0,-199.0 -72.99999999999876,-161.0 -140.99999999999875,-160.99999999999778 -140.99999999999997,-198.99999999999778 -72.99999999999997,-199.0" stroke-linejoin="round"/><polyline fill="none" points="-73.0,-199.0 -72.99999999999876,-161.0 -140.99999999999875,-160.99999999999778 -140.99999999999997,-198.99999999999778 -72.99999999999997,-199.0" stroke="#fff" stroke-linecap="round" stroke-linejoin="round"/><polygon fill="#939498" fill-rule="evenodd" points="-128.0,332.0 -127.99999999999321,540.0 -139.9999999999932,540.0000000000003 -140.00000000000003,332.00000000000034 -128.00000000000003,331.99999999999994" stroke-linejoin="round"/><polyline fill="none" points="-128.0,332.0 -127.99999999999321,540.0 -139.9999999999932,540.0000000000003 -140.00000000000003,332.00000000000034 -128.00000000000003,331.99999999999994" stroke="#939498" stroke-linecap="round" stroke-linejoin="round"/><polygon fill="#fffeff" fill-rule="evenodd" points="59.0,-361.0 59.00000000000543,-196.0 43.00000000000543,-195.99999999999946 42.999999999999986,-360.99999999999943 58.999999999999986,-360.99999999999994" stroke-linejoin="round"/><polyline fill="none" points="59.0,-361.0 59.00000000000543,-196.0 43.00000000000543,-195.99999999999946 42.999999999999986,-360.99999999999943 58.999999999999986,-360.99999999999994" stroke="#fffeff" stroke-linecap="round" stroke-linejoin="round"/><polygon fill="#939498" fill-rule="evenodd" points="0.0,163.0 9.275474856742042e-13,191.0 -201.99999999999906,191.0000000000067 -202.0,163.0000000000067 0.0,162.99999999999997" stroke-linejoin="round"/><polyline fill="none" points="0.0,163.0 9.275474856742042e-13,191.0 -201.99999999999906,191.0000000000067 -202.0,163.0000000000067 0.0,162.99999999999997" stroke="#939498" stroke-linecap="round" stroke-linejoin="round"/><polygon fill="#dd2d26" fill-rule="evenodd" points="377.0,85.0 377.0000000000054,246.0 333.0000000000054,246.00000000000148 333.0,85.00000000000148 377.0,85.0" stroke-linejoin="round"/><polyline fill="none" points="377.0,85.0 377.0000000000054,246.0 333.0000000000054,246.00000000000148 333.0,85.00000000000148 377.0,85.0" stroke="#dd2d26" stroke-linecap="round" stroke-linejoin="round"/><polygon fill="#eb1c24" fill-rule="evenodd" points="230.0,287.0 230.0000000000059,463.0 108.00000000000591,463.0000000000041 107.99999999999997,287.0000000000041 229.99999999999997,286.99999999999994" stroke-linejoin="round"/><polyline fill="none" points="230.0,287.0 230.0000000000059,463.0 108.00000000000591,463.0000000000041 107.99999999999997,287.0000000000041 229.99999999999997,286.99999999999994" stroke="#eb1c24" stroke-linecap="round" stroke-linejoin="round"/><polygon fill="#231f20" fill-rule="evenodd" points="-381.0,276.0 -380.99999999999926,297.0 -589.9999999999993,297.0000000000071 -590.0,276.0000000000071 -381.0,276.0" stroke-linejoin="round"/><polyline fill="none" points="-381.0,276.0 -380.99999999999926,297.0 -589.9999999999993,297.0000000000071 -590.0,276.0000000000071 -381.0,276.0" stroke="#231f20" stroke-linecap="round" stroke-linejoin="round"/><polygon fill="#0192cb" fill-rule="evenodd" points="351.0,221.0 351.0000000000052,373.0 216.00000000000517,373.0000000000046 215.99999999999997,221.0000000000046 351.0,220.99999999999997" stroke-linejoin="round"/><polyline fill="none" points="351.0,221.0 351.0000000000052,373.0 216.00000000000517,373.0000000000046 215.99999999999997,221.0000000000046 351.0,220.99999999999997" stroke="#0192cb" stroke-linecap="round" stroke-linejoin="round"/><polygon fill="#fbec15" fill-rule="evenodd" points="91.0,255.0 91.00000000000742,471.0 30.000000000007418,471.0000000000021 29.99999999999997,255.0000000000021 90.99999999999997,255.0" stroke-linejoin="round"/><polyline fill="none" points="91.0,255.0 91.00000000000742,471.0 30.000000000007418,471.0000000000021 29.99999999999997,255.0000000000021 90.99999999999997,255.0" stroke="#fbec15" stroke-linecap="round" stroke-linejoin="round"/><polygon fill="#f8e817" fill-rule="evenodd" points="179.0,-136.0 179.0000000000041,-18.0 140.0000000000041,-17.99999999999865 140.0,-135.99999999999864 179.0,-136.0" stroke-linejoin="round"/><polyline fill="none" points="179.0,-136.0 179.0000000000041,-18.0 140.0000000000041,-17.99999999999865 140.0,-135.99999999999864 179.0,-136.0" stroke="#f8e817" stroke-linecap="round" stroke-linejoin="round"/><polygon fill="#0192c9" fill-rule="evenodd" points="305.0,-72.0 305.0000000000073,137.0 273.0000000000073,137.0000000000011 272.99999999999994,-71.99999999999889 304.99999999999994,-72.00000000000001" stroke-linejoin="round"/><polyline fill="none" points="305.0,-72.0 305.0000000000073,137.0 273.0000000000073,137.0000000000011 272.99999999999994,-71.99999999999889 304.99999999999994,-72.00000000000001" stroke="#0192c9" stroke-linecap="round" stroke-linejoin="round"/><polygon fill="#f8e817" fill-rule="evenodd" points="186.0,-259.0 186.00000000000134,-221.0 59.000000000001336,-220.99999999999554 59.0,-258.99999999999557 186.0,-259.00000000000006" stroke-linejoin="round"/><polyline fill="none" points="186.0,-259.0 186.00000000000134,-221.0 59.000000000001336,-220.99999999999554 59.0,-258.99999999999557 186.0,-259.00000000000006" stroke="#f8e817" stroke-linecap="round" stroke-linejoin="round"/><polygon fill="#128542" fill-rule="evenodd" points="-393.0,169.0 -392.9999999999964,271.0 -426.9999999999964,271.0000000000012 -427.00000000000006,169.0000000000012 -393.00000000000006,169.0" stroke-linejoin="round"/><polyline fill="none" points="-393.0,169.0 -392.9999999999964,271.0 -426.9999999999964,271.0000000000012 -427.00000000000006,169.0000000000012 -393.00000000000006,169.0" stroke="#128542" stroke-linecap="round" stroke-linejoin="round"/><polygon fill="#939498" fill-rule="evenodd" points="-122.0,-46.0 -121.99999999999228,171.0 -197.99999999999227,171.0000000000027 -198.00000000000003,-45.9999999999973 -122.00000000000003,-46.000000000000014" stroke-linejoin="round"/><polyline fill="none" points="-122.0,-46.0 -121.99999999999228,171.0 -197.99999999999227,171.0000000000027 -198.00000000000003,-45.9999999999973 -122.00000000000003,-46.000000000000014" stroke="#939498" stroke-linecap="round" stroke-linejoin="round"/><polygon fill="#f8e817" fill-rule="evenodd" points="-27.0,-55.0 -26.99999999999434,103.0 -192.99999999999434,103.00000000000595 -193.00000000000003,-54.999999999994046 -27.00000000000003,-55.00000000000002" stroke-linejoin="round"/><polyline fill="none" points="-27.0,-55.0 -26.99999999999434,103.0 -192.99999999999434,103.00000000000595 -193.00000000000003,-54.999999999994046 -27.00000000000003,-55.00000000000002" stroke="#f8e817" stroke-linecap="round" stroke-linejoin="round"/><polygon fill="#231f20" fill-rule="evenodd" points="-231.0,-400.0 -230.99999999999304,-207.0 -429.99999999999307,-206.9999999999928 -430.00000000000006,-399.99999999999284 -231.00000000000006,-400.00000000000006" stroke-linejoin="round"/><polyline fill="none" points="-231.0,-400.0 -230.99999999999304,-207.0 -429.99999999999307,-206.9999999999928 -430.00000000000006,-399.99999999999284 -231.00000000000006,-400.00000000000006" stroke="#231f20" stroke-linecap="round" stroke-linejoin="round"/><polygon fill="#dd2d26" fill-rule="evenodd" points="-299.0,125.0 -298.99999999999693,209.0 -415.99999999999693,209.00000000000426 -416.0,125.00000000000426 -299.0,125.0" stroke-linejoin="round"/><polyline fill="none" points="-299.0,125.0 -298.99999999999693,209.0 -415.99999999999693,209.00000000000426 -416.0,125.00000000000426 -299.0,125.0" stroke="#dd2d26" stroke-linecap="round" stroke-linejoin="round"/><polygon fill="#eb1c24" fill-rule="evenodd" points="276.0,322.0 276.0000000000037,423.0 156.0000000000037,423.0000000000044 156.0,322.0000000000044 276.0,321.99999999999994" stroke-linejoin="round"/><polyline fill="none" points="276.0,322.0 276.0000000000037,423.0 156.0000000000037,423.0000000000044 156.0,322.0000000000044 276.0,321.99999999999994" stroke="#eb1c24" stroke-linecap="round" stroke-linejoin="round"/><polygon fill="#eb1c24" fill-rule="evenodd" points="330.0,-45.0 330.0000000000032,42.0 187.00000000000318,42.00000000000527 186.99999999999997,-44.99999999999473 330.0,-45.000000000000014" stroke-linejoin="round"/><polyline fill="none" points="330.0,-45.0 330.0000000000032,42.0 187.00000000000318,42.00000000000527 186.99999999999997,-44.99999999999473 330.0,-45.000000000000014" stroke="#eb1c24" stroke-linecap="round" stroke-linejoin="round"/><polygon fill="#939498" fill-rule="evenodd" points="-15.0,-291.0 -14.999999999995813,-178.0 -39.999999999995815,-177.99999999999906 -40.000000000000014,-290.9999999999991 -15.000000000000014,-291.0" stroke-linejoin="round"/><polyline fill="none" points="-15.0,-291.0 -14.999999999995813,-178.0 -39.999999999995815,-177.99999999999906 -40.000000000000014,-290.9999999999991 -15.000000000000014,-291.0" stroke="#939498" stroke-linecap="round" stroke-linejoin="round"/><polygon fill="#fff" fill-rule="evenodd" points="151.0,-315.0 151.0000000000078,-106.0 140.0000000000078,-105.99999999999959 139.99999999999997,-314.9999999999996 150.99999999999997,-315.0" stroke-linejoin="round"/><polyline fill="none" points="151.0,-315.0 151.0000000000078,-106.0 140.0000000000078,-105.99999999999959 139.99999999999997,-314.9999999999996 150.99999999999997,-315.0" stroke="#fff" stroke-linecap="round" stroke-linejoin="round"/><polygon fill="#eb1c24" fill-rule="evenodd" points="-96.0,225.0 -95.99999999999858,263.0 -142.99999999999858,263.00000000000176 -143.0,225.00000000000176 -96.0,225.0" stroke-linejoin="round"/><polyline fill="none" points="-96.0,225.0 -95.99999999999858,263.0 -142.99999999999858,263.00000000000176 -143.0,225.00000000000176 -96.0,225.0" stroke="#eb1c24" stroke-linecap="round" stroke-linejoin="round"/><polygon fill="#939498" fill-rule="evenodd" points="-191.0,-70.0 -190.99999999999795,-16.0 -262.99999999999795,-15.999999999997275 -263.0,-69.99999999999727 -191.0,-70.0" stroke-linejoin="round"/><polyline fill="none" points="-191.0,-70.0 -190.99999999999795,-16.0 -262.99999999999795,-15.999999999997275 -263.0,-69.99999999999727 -191.0,-70.0" stroke="#939498" stroke-linecap="round" stroke-linejoin="round"/><polygon fill="#fff" fill-rule="evenodd" points="-16.0,279.0 -15.999999999995323,402.0 -69.99999999999532,402.00000000000205 -70.00000000000001,279.00000000000205 -16.000000000000014,279.0" stroke-linejoin="round"/><polyline fill="none" points="-16.0,279.0 -15.999999999995323,402.0 -69.99999999999532,402.00000000000205 -70.00000000000001,279.00000000000205 -16.000000000000014,279.0" stroke="#fff" stroke-linecap="round" stroke-linejoin="round"/><polygon fill="#0192c9" fill-rule="evenodd" points="-69.0,69.0 -68.99999999999403,225.0 -110.99999999999403,225.00000000000162 -111.00000000000001,69.00000000000162 -69.00000000000001,69.0" stroke-linejoin="round"/><polyline fill="none" points="-69.0,69.0 -68.99999999999403,225.0 -110.99999999999403,225.00000000000162 -111.00000000000001,69.00000000000162 -69.00000000000001,69.0" stroke="#0192c9" stroke-linecap="round" stroke-linejoin="round"/><polygon fill="#f8e817" fill-rule="evenodd" points="165.0,-13.0 165.00000000000517,121.0 65.00000000000517,121.00000000000385 65.0,-12.999999999996149 165.0,-13.00000000000002" stroke-linejoin="round"/><polyline fill="none" points="165.0,-13.0 165.00000000000517,121.0 65.00000000000517,121.00000000000385 65.0,-12.999999999996149 165.0,-13.00000000000002" stroke="#f8e817" stroke-linecap="round" stroke-linejoin="round"/><polygon fill="#128542" fill-rule="evenodd" points="-278.0,276.0 -277.99999999999653,365.0 -498.99999999999653,365.0000000000086 -499.0,276.0000000000086 -278.0,276.0" stroke-linejoin="round"/><polyline fill="none" points="-278.0,276.0 -277.99999999999653,365.0 -498.99999999999653,365.0000000000086 -499.0,276.0000000000086 -278.0,276.0" stroke="#128542" stroke-linecap="round" stroke-linejoin="round"/><polygon fill="#fbec15" fill-rule="evenodd" points="-56.0,125.0 -55.99999999999466,262.0 -140.99999999999466,262.0000000000033 -141.00000000000003,125.0000000000033 -56.00000000000003,124.99999999999997" stroke-linejoin="round"/><polyline fill="none" points="-56.0,125.0 -55.99999999999466,262.0 -140.99999999999466,262.0000000000033 -141.00000000000003,125.0000000000033 -56.00000000000003,124.99999999999997" stroke="#fbec15" stroke-linecap="round" stroke-linejoin="round"/><polygon fill="#f8e817" fill-rule="evenodd" points="-281.0,-170.0 -280.99999999999267,17.0 -305.99999999999267,17.000000000000984 -306.00000000000006,-169.999999999999 -281.00000000000006,-170.0" stroke-linejoin="round"/><polyline fill="none" points="-281.0,-170.0 -280.99999999999267,17.0 -305.99999999999267,17.000000000000984 -306.00000000000006,-169.999999999999 -281.00000000000006,-170.0" stroke="#f8e817" stroke-linecap="round" stroke-linejoin="round"/><polygon fill="#fbec15" fill-rule="evenodd" points="-344.0,261.0 -343.99999999999176,470.0 -556.9999999999918,470.0000000000084 -557.0000000000001,261.0000000000084 -344.0000000000001,260.99999999999994" stroke-linejoin="round"/><polyline fill="none" points="-344.0,261.0 -343.99999999999176,470.0 -556.9999999999918,470.0000000000084 -557.0000000000001,261.0000000000084 -344.0000000000001,260.99999999999994" stroke="#fbec15" stroke-linecap="round" stroke-linejoin="round"/><polygon fill="#fffeff" fill-rule="evenodd" points="269.0,249.0 269.0000000000056,390.0 208.00000000000563,390.00000000000244 208.0,249.00000000000244 269.0,249.0" stroke-linejoin="round"/><polyline fill="none" points="269.0,249.0 269.0000000000056,390.0 208.00000000000563,390.00000000000244 208.0,249.00000000000244 269.0,249.0" stroke="#fffeff" stroke-linecap="round" stroke-linejoin="round"/><polygon fill="#fbec15" fill-rule="evenodd" points="118.0,-48.0 118.00000000000128,-16.0 43.00000000000128,-15.999999999996996 42.99999999999999,-47.999999999996994 118.0,-48.00000000000001" stroke-linejoin="round"/><polyline fill="none" points="118.0,-48.0 118.00000000000128,-16.0 43.00000000000128,-15.999999999996996 42.99999999999999,-47.999999999996994 118.0,-48.00000000000001" stroke="#fbec15" stroke-linecap="round" stroke-linejoin="round"/><polygon fill="#231f20" fill-rule="evenodd" points="231.0,313.0 231.00000000000168,355.0 110.00000000000168,355.0000000000049 109.99999999999999,313.0000000000049 231.0,313.0" stroke-linejoin="round"/><polyline fill="none" points="231.0,313.0 231.00000000000168,355.0 110.00000000000168,355.0000000000049 109.99999999999999,313.0000000000049 231.0,313.0" stroke="#231f20" stroke-linecap="round" stroke-linejoin="round"/><polygon fill="#f8e817" fill-rule="evenodd" points="340.0,-7.0 340.0000000000089,214.0 271.0000000000089,214.00000000000279 270.99999999999994,-6.999999999997215 339.99999999999994,-7.00000000000002" stroke-linejoin="round"/><polyline fill="none" points="340.0,-7.0 340.0000000000089,214.0 271.0000000000089,214.00000000000279 270.99999999999994,-6.999999999997215 339.99999999999994,-7.00000000000002" stroke="#f8e817" stroke-linecap="round" stroke-linejoin="round"/><polygon fill="#fffeff" fill-rule="evenodd" points="344.0,-199.0 344.0000000000005,-186.0 197.0000000000005,-185.999999999994 196.99999999999997,-198.999999999994 344.0,-199.00000000000003" stroke-linejoin="round"/><polyline fill="none" points="344.0,-199.0 344.0000000000005,-186.0 197.0000000000005,-185.999999999994 196.99999999999997,-198.999999999994 344.0,-199.00000000000003" stroke="#fffeff" stroke-linecap="round" stroke-linejoin="round"/><polygon fill="#939498" fill-rule="evenodd" points="-151.0,-274.0 -150.99999999999162,-69.0 -161.99999999999162,-68.99999999999955 -162.00000000000003,-273.99999999999955 -151.00000000000003,-274.0" stroke-linejoin="round"/><polyline fill="none" points="-151.0,-274.0 -150.99999999999162,-69.0 -161.99999999999162,-68.99999999999955 -162.00000000000003,-273.99999999999955 -151.00000000000003,-274.0" stroke="#939498" stroke-linecap="round" stroke-linejoin="round"/><polygon fill="#fbec15" fill-rule="evenodd" points="-371.0,323.0 -370.99999999999187,520.0 -408.99999999999187,520.0000000000016 -409.0,323.0000000000016 -371.0,323.0" stroke-linejoin="round"/><polyline fill="none" points="-371.0,323.0 -370.99999999999187,520.0 -408.99999999999187,520.0000000000016 -409.0,323.0000000000016 -371.0,323.0" stroke="#fbec15" stroke-linecap="round" stroke-linejoin="round"/><polygon fill="#fff" fill-rule="evenodd" points="161.0,-187.0 161.00000000000216,-135.0 -24.99999999999784,-134.99999999999227 -25.000000000000004,-186.99999999999227 161.0,-187.0" stroke-linejoin="round"/><polyline fill="none" points="161.0,-187.0 161.00000000000216,-135.0 -24.99999999999784,-134.99999999999227 -25.000000000000004,-186.99999999999227 161.0,-187.0" stroke="#fff" stroke-linecap="round" stroke-linejoin="round"/><polygon fill="#eb1c24" fill-rule="evenodd" points="10.0,32.0 10.000000000000625,47.0 -119.99999999999937,47.00000000000543 -120.0,32.00000000000543 10.0,31.999999999999982" stroke-linejoin="round"/><polyline fill="none" points="10.0,32.0 10.000000000000625,47.0 -119.99999999999937,47.00000000000543 -120.0,32.00000000000543 10.0,31.999999999999982" stroke="#eb1c24" stroke-linecap="round" stroke-linejoin="round"/><polygon fill="#dd2d26" fill-rule="evenodd" points="329.0,-1.0 329.000000000003,71.0 314.000000000003,71.00000000000063 314.0,-0.9999999999993747 329.0,-1.0000000000000067" stroke-linejoin="round"/><polyline fill="none" points="329.0,-1.0 329.000000000003,71.0 314.000000000003,71.00000000000063 314.0,-0.9999999999993747 329.0,-1.0000000000000067" stroke="#dd2d26" stroke-linecap="round" stroke-linejoin="round"/><polygon fill="#939498" fill-rule="evenodd" points="181.0,170.0 181.00000000000279,236.0 105.00000000000279,236.0000000000032 104.99999999999999,170.0000000000032 181.0,170.0" stroke-linejoin="round"/><polyline fill="none" points="181.0,170.0 181.00000000000279,236.0 105.00000000000279,236.0000000000032 104.99999999999999,170.0000000000032 181.0,170.0" stroke="#939498" stroke-linecap="round" stroke-linejoin="round"/><polygon fill="#0192c9" fill-rule="evenodd" points="277.0,-313.0 277.000000000002,-266.0 207.000000000002,-265.99999999999704 207.0,-312.99999999999704 277.0,-313.0" stroke-linejoin="round"/><polyline fill="none" points="277.0,-313.0 277.000000000002,-266.0 207.000000000002,-265.99999999999704 207.0,-312.99999999999704 277.0,-313.0" stroke="#0192c9" stroke-linecap="round" stroke-linejoin="round"/><polygon fill="#f8e817" fill-rule="evenodd" points="56.0,87.0 56.000000000007724,268.0 25.000000000007724,268.0000000000013 24.999999999999975,87.00000000000131 55.99999999999997,86.99999999999997" stroke-linejoin="round"/><polyline fill="none" points="56.0,87.0 56.000000000007724,268.0 25.000000000007724,268.0000000000013 24.999999999999975,87.00000000000131 55.99999999999997,86.99999999999997" stroke="#f8e817" stroke-linecap="round" stroke-linejoin="round"/><polygon fill="#ef5b2d" fill-rule="evenodd" points="-319.0,19.0 -318.99999999999824,60.0 -437.99999999999824,60.000000000005116 -438.0,19.000000000005116 -319.0,18.999999999999986" stroke-linejoin="round"/><polyline fill="none" points="-319.0,19.0 -318.99999999999824,60.0 -437.99999999999824,60.000000000005116 -438.0,19.000000000005116 -319.0,18.999999999999986" stroke="#ef5b2d" stroke-linecap="round" stroke-linejoin="round"/><polygon fill="#939498" fill-rule="evenodd" points="342.0,-65.0 342.0000000000012,-37.0 193.0000000000012,-36.999999999993555 192.99999999999997,-64.99999999999355 342.0,-65.00000000000001" stroke-linejoin="round"/><polyline fill="none" points="342.0,-65.0 342.0000000000012,-37.0 193.0000000000012,-36.999999999993555 192.99999999999997,-64.99999999999355 342.0,-65.00000000000001" stroke="#939498" stroke-linecap="round" stroke-linejoin="round"/><polygon fill="#0192cb" fill-rule="evenodd" points="313.0,-118.0 313.0000000000055,9.0 214.0000000000055,9.000000000004304 213.99999999999997,-117.9999999999957 313.0,-118.00000000000001" stroke-linejoin="round"/><polyline fill="none" points="313.0,-118.0 313.0000000000055,9.0 214.0000000000055,9.000000000004304 213.99999999999997,-117.9999999999957 313.0,-118.00000000000001" stroke="#0192cb" stroke-linecap="round" stroke-linejoin="round"/><polygon fill="#f8e817" fill-rule="evenodd" points="70.0,107.0 70.00000000000367,191.0 -143.99999999999633,191.00000000000935 -144.0,107.00000000000935 70.0,106.99999999999997" stroke-linejoin="round"/><polyline fill="none" points="70.0,107.0 70.00000000000367,191.0 -143.99999999999633,191.00000000000935 -144.0,107.00000000000935 70.0,106.99999999999997" stroke="#f8e817" stroke-linecap="round" stroke-linejoin="round"/><polygon fill="#f8e817" fill-rule="evenodd" points="325.0,243.0 325.0000000000069,400.0 139.00000000000688,400.0000000000082 138.99999999999997,243.00000000000819 325.0,242.99999999999997" stroke-linejoin="round"/><polyline fill="none" points="325.0,243.0 325.0000000000069,400.0 139.00000000000688,400.0000000000082 138.99999999999997,243.00000000000819 325.0,242.99999999999997" stroke="#f8e817" stroke-linecap="round" stroke-linejoin="round"/><polygon fill="#939498" fill-rule="evenodd" points="302.0,44.0 302.00000000000165,81.0 238.00000000000165,81.00000000000283 238.0,44.00000000000283 302.0,43.99999999999999" stroke-linejoin="round"/><polyline fill="none" points="302.0,44.0 302.00000000000165,81.0 238.00000000000165,81.00000000000283 238.0,44.00000000000283 302.0,43.99999999999999" stroke="#939498" stroke-linecap="round" stroke-linejoin="round"/><polygon fill="#ef5b2d" fill-rule="evenodd" points="75.0,-66.0 75.00000000000706,93.0 -17.999999999992937,93.00000000000414 -18.000000000000014,-65.99999999999586 74.99999999999999,-66.00000000000001" stroke-linejoin="round"/><polyline fill="none" points="75.0,-66.0 75.00000000000706,93.0 -17.999999999992937,93.00000000000414 -18.000000000000014,-65.99999999999586 74.99999999999999,-66.00000000000001" stroke="#ef5b2d" stroke-linecap="round" stroke-linejoin="round"/><polygon fill="#0192cb" fill-rule="evenodd" points="174.0,-227.0 174.00000000000142,-195.0 -50.99999999999858,-194.99999999998994 -51.000000000000014,-226.99999999998994 174.0,-227.00000000000003" stroke-linejoin="round"/><polyline fill="none" points="174.0,-227.0 174.00000000000142,-195.0 -50.99999999999858,-194.99999999998994 -51.000000000000014,-226.99999999998994 174.0,-227.00000000000003" stroke="#0192cb" stroke-linecap="round" stroke-linejoin="round"/><polygon fill="#fff" fill-rule="evenodd" points="264.0,255.0 264.0000000000028,317.0 90.00000000000279,317.00000000000784 90.0,255.00000000000784 264.0,255.0" stroke-linejoin="round"/><polyline fill="none" points="264.0,255.0 264.0000000000028,317.0 90.00000000000279,317.00000000000784 90.0,255.00000000000784 264.0,255.0" stroke="#fff" stroke-linecap="round" stroke-linejoin="round"/><polygon fill="#dd2d26" fill-rule="evenodd" points="-150.0,-242.0 -149.9999999999948,-127.0 -182.9999999999948,-126.99999999999851 -183.0,-241.99999999999852 -150.0,-242.00000000000003" stroke-linejoin="round"/><polyline fill="none" points="-150.0,-242.0 -149.9999999999948,-127.0 -182.9999999999948,-126.99999999999851 -183.0,-241.99999999999852 -150.0,-242.00000000000003" stroke="#dd2d26" stroke-linecap="round" stroke-linejoin="round"/><polygon fill="#939498" fill-rule="evenodd" points="164.0,128.0 164.0000000000079,302.0 -39.9999999999921,302.00000000000927 -40.000000000000014,128.00000000000927 164.0,127.99999999999997" stroke-linejoin="round"/><polyline fill="none" points="164.0,128.0 164.0000000000079,302.0 -39.9999999999921,302.00000000000927 -40.000000000000014,128.00000000000927 164.0,127.99999999999997" stroke="#939498" stroke-linecap="round" stroke-linejoin="round"/><polygon fill="#0192c9" fill-rule="evenodd" points="-193.0,-175.0 -192.99999999999844,-141.0 -377.9999999999984,-140.99999999999156 -377.99999999999994,-174.99999999999156 -192.99999999999994,-175.00000000000003" stroke-linejoin="round"/><polyline fill="none" points="-193.0,-175.0 -192.99999999999844,-141.0 -377.9999999999984,-140.99999999999156 -377.99999999999994,-174.99999999999156 -192.99999999999994,-175.00000000000003" stroke="#0192c9" stroke-linecap="round" stroke-linejoin="round"/><polygon fill="#fbec15" fill-rule="evenodd" points="398.0,295.0 398.00000000000637,434.0 305.00000000000637,434.00000000000426 305.0,295.00000000000426 398.0,295.0" stroke-linejoin="round"/><polyline fill="none" points="398.0,295.0 398.00000000000637,434.0 305.00000000000637,434.00000000000426 305.0,295.00000000000426 398.0,295.0" stroke="#fbec15" stroke-linecap="round" stroke-linejoin="round"/><polygon fill="#0192c9" fill-rule="evenodd" points="-150.0,-379.0 -149.9999999999903,-169.0 -354.99999999999034,-168.99999999999054 -355.00000000000006,-378.99999999999056 -150.00000000000006,-379.00000000000006" stroke-linejoin="round"/><polyline fill="none" points="-150.0,-379.0 -149.9999999999903,-169.0 -354.99999999999034,-168.99999999999054 -355.00000000000006,-378.99999999999056 -150.00000000000006,-379.00000000000006" stroke="#0192c9" stroke-linecap="round" stroke-linejoin="round"/><polygon fill="#eb1c24" fill-rule="evenodd" points="174.0,-88.0 174.00000000000367,-9.0 38.000000000003666,-8.999999999993687 37.99999999999999,-87.99999999999369 174.0,-88.00000000000001" stroke-linejoin="round"/><polyline fill="none" points="174.0,-88.0 174.00000000000367,-9.0 38.000000000003666,-8.999999999993687 37.99999999999999,-87.99999999999369 174.0,-88.00000000000001" stroke="#eb1c24" stroke-linecap="round" stroke-linejoin="round"/><polygon fill="#0192c9" fill-rule="evenodd" points="27.0,390.0 27.000000000003354,462.0 -44.999999999996646,462.00000000000335 -45.00000000000001,390.00000000000335 26.999999999999993,390.0" stroke-linejoin="round"/><polyline fill="none" points="27.0,390.0 27.000000000003354,462.0 -44.999999999996646,462.00000000000335 -45.00000000000001,390.00000000000335 26.999999999999993,390.0" stroke="#0192c9" stroke-linecap="round" stroke-linejoin="round"/><polygon fill="#939498" fill-rule="evenodd" points="383.0,-205.0 383.0000000000101,11.0 329.0000000000101,11.000000000002533 329.0,-204.99999999999747 383.0,-205.0" stroke-linejoin="round"/><polyline fill="none" points="383.0,-205.0 383.0000000000101,11.0 329.0000000000101,11.000000000002533 329.0,-204.99999999999747 383.0,-205.0" stroke="#939498" stroke-linecap="round" stroke-linejoin="round"/><polygon fill="#ef5b2d" fill-rule="evenodd" points="155.0,140.0 155.00000000001017,356.0 121.00000000001017,356.0000000000016 120.99999999999997,140.0000000000016 154.99999999999997,139.99999999999997" stroke-linejoin="round"/><polyline fill="none" points="155.0,140.0 155.00000000001017,356.0 121.00000000001017,356.0000000000016 120.99999999999997,140.0000000000016 154.99999999999997,139.99999999999997" stroke="#ef5b2d" stroke-linecap="round" stroke-linejoin="round"/><polygon fill="#fffeff" fill-rule="evenodd" points="167.0,7.0 167.00000000000728,161.0 23.000000000007276,161.00000000000682 22.999999999999968,7.000000000006821 166.99999999999997,6.999999999999979" stroke-linejoin="round"/><polyline fill="none" points="167.0,7.0 167.00000000000728,161.0 23.000000000007276,161.00000000000682 22.999999999999968,7.000000000006821 166.99999999999997,6.999999999999979" stroke="#fffeff" stroke-linecap="round" stroke-linejoin="round"/><polygon fill="#128542" fill-rule="evenodd" points="109.0,234.0 109.00000000001003,445.0 32.00000000001003,445.0000000000037 31.999999999999968,234.0000000000037 108.99999999999997,234.00000000000003" stroke-linejoin="round"/><polyline fill="none" points="109.0,234.0 109.00000000001003,445.0 32.00000000001003,445.0000000000037 31.999999999999968,234.0000000000037 108.99999999999997,234.00000000000003" stroke="#128542" stroke-linecap="round" stroke-linejoin="round"/><polygon fill="#fffeff" fill-rule="evenodd" points="-329.0,-103.0 -328.9999999999921,62.0 -449.9999999999921,62.00000000000579 -450.0,-102.9999999999942 -329.0,-103.00000000000001" stroke-linejoin="round"/><polyline fill="none" points="-329.0,-103.0 -328.9999999999921,62.0 -449.9999999999921,62.00000000000579 -450.0,-102.9999999999942 -329.0,-103.00000000000001" stroke="#fffeff" stroke-linecap="round" stroke-linejoin="round"/><polygon fill="#fbec15" fill-rule="evenodd" points="-326.0,53.0 -325.99999999999875,79.0 -532.9999999999987,79.00000000000996 -533.0,53.00000000000996 -326.0,52.99999999999997" stroke-linejoin="round"/><polyline fill="none" points="-326.0,53.0 -325.99999999999875,79.0 -532.9999999999987,79.00000000000996 -533.0,53.00000000000996 -326.0,52.99999999999997" stroke="#fbec15" stroke-linecap="round" stroke-linejoin="round"/><polygon fill="#231f20" fill-rule="evenodd" points="325.0,-205.0 325.00000000000347,-133.0 166.00000000000347,-132.9999999999923 165.99999999999997,-204.9999999999923 325.0,-205.0" stroke-linejoin="round"/><polyline fill="none" points="325.0,-205.0 325.00000000000347,-133.0 166.00000000000347,-132.9999999999923 165.99999999999997,-204.9999999999923 325.0,-205.0" stroke="#231f20" stroke-linecap="round" stroke-linejoin="round"/><polygon fill="#fffeff" fill-rule="evenodd" points="258.0,-362.0 258.00000000000585,-241.0 79.00000000000585,-240.9999999999913 78.99999999999997,-361.9999999999913 258.0,-362.0" stroke-linejoin="round"/><polyline fill="none" points="258.0,-362.0 258.00000000000585,-241.0 79.00000000000585,-240.9999999999913 78.99999999999997,-361.9999999999913 258.0,-362.0" stroke="#fffeff" stroke-linecap="round" stroke-linejoin="round"/><polygon fill="#fbec15" fill-rule="evenodd" points="-178.0,335.0 -177.99999999999775,381.0 -353.9999999999977,381.0000000000086 -354.0,335.0000000000086 -178.0,334.99999999999994" stroke-linejoin="round"/><polyline fill="none" points="-178.0,335.0 -177.99999999999775,381.0 -353.9999999999977,381.0000000000086 -354.0,335.0000000000086 -178.0,334.99999999999994" stroke="#fbec15" stroke-linecap="round" stroke-linejoin="round"/><polyline fill="none" points="0.0,600.0 62.717077960591915,596.7131372209609 124.74701449065495,586.8885604402773 185.410196624967,570.6339097770831 244.04198584547754,548.1272745855487 299.999999999996,519.6152422706485 352.6711513754782,485.41019662495125 401.47836381530726,445.886895286417 445.8868952864267,401.4783638152932 485.4101966249562,352.6711513754603 519.6152422706483,299.99999999997476 548.1272745855429,244.04198584545352 570.6339097770716,185.4101966249408 586.8885604402599,124.74701449062721 596.7131372209375,62.71707796056326 599.9999999999704,-2.893330020015128e-11 596.7131372209313,-62.717077960620806 586.8885604402477,-124.7470144906838 570.6339097770535,-185.4101966249958 548.1272745855191,-244.0419858455063 519.6152422706191,-300.0000000000247 485.4101966249218,-352.6711513755069 445.8868952863876,-401.47836381533597 401.47836381526383,-445.88689528645534 352.6711513754309,-485.41019662498485 299.99999999994543,-519.615242270677 244.04198584542422,-548.1272745855715 185.41019662491152,-570.6339097771003 124.74701449059796,-586.8885604402885 62.71707796053405,-596.7131372209661 -5.810818493046099e-11,-599.9999999999991 -62.717077960649945,-596.71313722096 -124.7470144907129,-586.8885604402764 -185.41019662502487,-570.6339097770822 -244.04198584553535,-548.1272745855478 -300.0000000000538,-519.6152422706477 -352.6711513755359,-485.4101966249505 -401.4783638153649,-445.8868952864163 -445.8868952864843,-401.4783638152926 -485.4101966250138,-352.6711513754597 -519.615242270706,-299.99999999997425 -548.1272745856005,-244.0419858454531 -570.6339097771292,-185.41019662494045" stroke="#fff" stroke-linecap="round" stroke-linejoin="round" stroke-width="450.0"/><polyline fill="none" points="-570.6339097771292,-185.41019662494045 -586.8885604403175,-124.74701449062692 -596.7131372209951,-62.717077960563046 -600.0000000000281,2.90754087473033e-11 -596.7131372209891,62.71707796062088 -586.8885604403055,124.7470144906838 -570.6339097771113,185.41019662499573 -548.1272745855769,244.0419858455062 -519.6152422706768,300.00000000002456 -485.4101966249796,352.67115137550667 -445.88689528644545,401.4783638153357 -401.4783638153218,445.88689528645506 -352.671151375489,485.4101966249845 -300.0000000000036,519.6152422706766 -244.04198584548246,548.1272745855712 -185.41019662496984,570.6339097770999 -124.74701449065635,586.8885604402882 -62.71707796059251,596.7131372209658 -4.263256414560601e-13,599.9999999999987" stroke="#fff" stroke-linecap="round" stroke-linejoin="round" stroke-width="450.0"/></svg>